<svg width="228" height="61" viewBox="0 0 228 61" fill="none" xmlns="http://www.w3.org/2000/svg">
<rect width="228" height="61" rx="8" fill="#FF3C00"/>
<path d="M46.56 18.6V41H44.32V20.712H32.8V41H30.56V18.6H46.56ZM58.821 41.384C54.149 41.384 50.405 37.736 50.405 33C50.405 28.264 54.149 24.616 58.821 24.616C63.493 24.616 67.237 28.264 67.237 33C67.237 37.736 63.493 41.384 58.821 41.384ZM58.821 39.336C62.373 39.336 65.125 36.552 65.125 33C65.125 29.448 62.373 26.664 58.821 26.664C55.269 26.664 52.517 29.448 52.517 33C52.517 36.552 55.269 39.336 58.821 39.336ZM83.5863 38.952H85.8263V45.288H83.7143V41H70.6583V45.288H68.5463V38.952H70.4983C71.5223 37.608 72.1302 36.04 72.1302 32.904V25H83.5863V38.952ZM73.0583 38.952H81.4743V27.048H74.2423V32.904C74.2423 35.528 73.8263 37.416 73.0583 38.952ZM97.5973 24.616C102.109 24.616 105.853 28.264 105.853 33C105.853 37.736 102.109 41.384 97.5973 41.384C94.7493 41.384 92.4773 40.008 91.1333 37.864V47.4H89.0213V25H91.1333V28.136C92.4773 25.992 94.7493 24.616 97.5973 24.616ZM97.4373 39.336C100.989 39.336 103.741 36.552 103.741 33C103.741 29.448 100.989 26.664 97.4373 26.664C93.8853 26.664 91.1333 29.448 91.1333 33C91.1333 36.552 93.8853 39.336 97.4373 39.336ZM116.821 41.384C112.149 41.384 108.405 37.736 108.405 33C108.405 28.264 112.149 24.616 116.821 24.616C121.493 24.616 125.237 28.264 125.237 33C125.237 37.736 121.493 41.384 116.821 41.384ZM116.821 39.336C120.373 39.336 123.125 36.552 123.125 33C123.125 29.448 120.373 26.664 116.821 26.664C113.269 26.664 110.517 29.448 110.517 33C110.517 36.552 113.269 39.336 116.821 39.336ZM135.875 41.384C131.363 41.384 127.811 38.088 127.811 33.16C127.811 28.008 128.771 25.384 133.955 22.888C137.283 21.288 140.003 20.84 140.387 18.12L142.051 19.08C141.539 22.28 138.211 23.176 135.075 24.552C132.099 25.832 130.883 27.016 130.275 29.256C131.875 27.144 134.499 26.44 136.323 26.44C140.579 26.44 143.715 29.544 143.715 33.896C143.715 38.216 140.387 41.384 135.875 41.384ZM135.875 39.272C139.235 39.272 141.603 37 141.603 33.896C141.603 30.76 139.427 28.488 136.035 28.488C133.251 28.488 130.051 30.344 130.051 33.704C130.051 36.968 132.611 39.272 135.875 39.272ZM158.256 25H160.368V41H158.256V34.024H149.04V41H146.928V25H149.04V31.976H158.256V25ZM172.226 24.616C177.122 24.616 180.162 28.68 180.162 33.064C180.162 33.384 180.13 33.736 180.098 34.056H166.05C166.498 37.32 169.026 39.336 172.418 39.336C174.946 39.336 176.706 38.152 177.57 36.616L179.426 37.704C178.082 39.88 175.618 41.384 172.386 41.384C167.33 41.384 163.874 37.832 163.874 33C163.874 28.296 167.266 24.616 172.226 24.616ZM172.226 26.664C168.866 26.664 166.466 28.872 166.05 32.008H177.986C177.538 28.488 174.978 26.664 172.226 26.664ZM190.913 24.616C195.809 24.616 198.849 28.68 198.849 33.064C198.849 33.384 198.817 33.736 198.785 34.056H184.737C185.185 37.32 187.713 39.336 191.105 39.336C193.633 39.336 195.393 38.152 196.257 36.616L198.113 37.704C196.769 39.88 194.305 41.384 191.073 41.384C186.017 41.384 182.561 37.832 182.561 33C182.561 28.296 185.953 24.616 190.913 24.616ZM190.913 26.664C187.553 26.664 185.153 28.872 184.737 32.008H196.673C196.225 28.488 193.665 26.664 190.913 26.664Z" fill="white"/>
</svg>
