<svg width="274" height="278" viewBox="0 0 274 278" fill="none" xmlns="http://www.w3.org/2000/svg">
<path d="M52.0304 248.36L44.7404 277.52H30.9904L28.1104 248.36H52.0304Z" fill="url(#paint0_linear_2013_3243)"/>
<g style="mix-blend-mode:multiply" opacity="0.5">
<path d="M52.0304 248.36L44.7404 277.52H38.4004L41.0404 248.51L52.0304 248.36Z" fill="#B17181"/>
</g>
<g style="mix-blend-mode:multiply" opacity="0.5">
<path d="M52.0304 248.36L44.9403 276.72V276.74L44.7404 277.52H30.9904L28.1104 248.36H52.0304Z" fill="#B17181"/>
</g>
<path d="M249.42 247.43L242.14 277.52H228.38L225.51 247.43H249.42Z" fill="url(#paint1_linear_2013_3243)"/>
<g style="mix-blend-mode:multiply" opacity="0.5">
<path d="M249.43 247.43L242.14 277.52H235.8L237.7 247.43V247.38L249.43 247.43Z" fill="#B17181"/>
</g>
<g style="mix-blend-mode:multiply" opacity="0.5">
<path d="M249.421 247.42L246.271 260.41L245.96 261.69L242.13 277.51H228.36L227.181 265.1C227.181 265.1 227.181 265.1 227.181 265.09L226.44 257.43L226.32 256.25L225.48 247.42H249.391H249.421Z" fill="#B17181"/>
</g>
<path d="M274 212.22L198.94 208.29L99.62 11.12L7.12 204.18L0 204.16L99.29 0L204.38 85.25L274 212.22Z" fill="url(#paint2_linear_2013_3243)"/>
<path d="M7.12012 204.18H25.6001L106.78 25.3301L99.6201 11.1201L7.12012 204.18Z" fill="url(#paint3_linear_2013_3243)"/>
<path d="M268.59 211.94L249.38 247.64L180.15 248.43L170.02 248.55L31.7999 250.14L28.3298 250.18L24.8899 235.02L24.2999 232.45L19.4999 211.26L17.8799 204.19L106.77 25.3301L176.27 163.28C176.27 163.28 176.27 163.28 176.27 163.29V163.31L191.44 193.4L198.94 208.29L201.32 208.41L268.59 211.94Z" fill="url(#paint4_linear_2013_3243)"/>
<g style="mix-blend-mode:overlay" opacity="0.5">
<path d="M106.77 25.3301L22.6299 196.07L29.6799 235.56L174.92 234.01L189.72 189.98L106.77 25.3301Z" fill="white"/>
</g>
<g style="mix-blend-mode:multiply" opacity="0.5">
<path d="M115.52 231.21L131.83 231.72L24.8898 232.71L24.2998 230.15L178.29 229.32L115.52 231.21Z" fill="#B17181"/>
</g>
<g style="mix-blend-mode:multiply" opacity="0.5">
<path d="M189.39 221.9L42.1396 224.39L188.95 225.16L189.39 221.9Z" fill="#B17181"/>
</g>
<g style="mix-blend-mode:multiply" opacity="0.5">
<path d="M24.25 209.85L99.29 205.34L193.51 207.25L24.25 209.85Z" fill="#B17181"/>
</g>
<g style="mix-blend-mode:multiply" opacity="0.5">
<path d="M23.7098 192.46L186.64 191.78L22.6299 194.64L23.7098 192.46Z" fill="#B17181"/>
</g>
<g style="mix-blend-mode:multiply" opacity="0.5">
<path d="M31.1699 177.47C32.0299 177.62 181.53 173.72 181.53 173.72L183.28 177.19L31.1699 177.47Z" fill="#B17181"/>
</g>
<g style="mix-blend-mode:multiply" opacity="0.5">
<path d="M40.04 159.61L170.02 161.28L63.23 161.18L93.79 162.75L38.25 163.19L40.04 159.61Z" fill="#B17181"/>
</g>
<g style="mix-blend-mode:multiply" opacity="0.5">
<path d="M167.31 145.73L114.08 141.69L57.1104 145.73H167.31Z" fill="#B17181"/>
</g>
<g style="mix-blend-mode:multiply" opacity="0.5">
<path d="M53.2002 133.13L77.2402 135.8L156.79 132.22L53.2002 133.13Z" fill="#B17181"/>
</g>
<g style="mix-blend-mode:multiply" opacity="0.5">
<path d="M152.13 115.88L70.3604 117.44L151.52 114.19L152.13 115.88Z" fill="#B17181"/>
</g>
<g style="mix-blend-mode:multiply" opacity="0.5">
<path d="M68.9095 101.52L138.49 102.26L67.5195 104.32L68.9095 101.52Z" fill="#B17181"/>
</g>
<g style="mix-blend-mode:multiply" opacity="0.5">
<path d="M77.2402 89.7097L104.21 85.7998L132.93 88.3998L77.2402 89.7097Z" fill="#B17181"/>
</g>
<g style="mix-blend-mode:multiply" opacity="0.5">
<path d="M83.2798 72.6201H127.34L92.5697 73.2301L105.1 74.6201H81.9697L83.2798 72.6201Z" fill="#B17181"/>
</g>
<g style="mix-blend-mode:multiply" opacity="0.5">
<path d="M123.56 58.6499L97.8701 60.4199H123.56V58.6499Z" fill="#B17181"/>
</g>
<g style="mix-blend-mode:multiply" opacity="0.5">
<path d="M99.29 48.8397L108.63 47.7197L117.82 49.9597L99.29 48.8397Z" fill="#B17181"/>
</g>
<path d="M268.589 211.94L249.38 247.64L246.02 247.68L262.13 211.58L268.589 211.94Z" fill="url(#paint5_linear_2013_3243)"/>
<path d="M200.17 206.57L199.58 207.74L199.37 208.15L195.29 216.16L195.09 216.52L194.67 217.36L194.4 217.88L193.6 219.47L193.27 220.11L192.79 221.04L191.63 223.32L189.37 227.74L188.91 228.65L188.04 230.35L187.46 231.5L180.41 245.31L180.32 245.49L178.82 248.43L170.03 248.55L171.2 245.09L171.31 244.74L176.34 229.78L176.46 229.43L177.16 227.34L177.21 227.19L177.87 225.24L178.14 224.41L178.2 224.25L178.47 223.44L179.55 220.22L179.96 219.01L180.26 218.12L180.48 217.47L180.73 216.73L180.93 216.12L183.1 209.68L183.27 209.17L185.86 201.5L185.91 201.33L186.18 200.53L186.41 199.86L189.72 189.98L199.9 206.14L200 206.3L200.17 206.57Z" fill="url(#paint6_linear_2013_3243)"/>
<g style="mix-blend-mode:multiply" opacity="0.3">
<path d="M188.05 230.35L187.46 231.5C187.46 231.5 187.38 231.49 187.35 231.48C186.97 231.42 186.58 231.37 186.19 231.33C185.41 231.25 184.63 231.2 183.83 231.13C182.24 231.01 180.59 230.89 178.95 230.54C178.75 230.49 178.54 230.44 178.33 230.4C178.13 230.35 177.93 230.3 177.72 230.24C177.52 230.18 177.32 230.13 177.13 230.06C176.92 229.99 176.73 229.93 176.53 229.87C176.47 229.84 176.4 229.82 176.34 229.79L176.46 229.44C177.28 229.74 178.13 229.99 178.99 230.14C179.19 230.18 179.38 230.21 179.57 230.23L180.16 230.31L180.74 230.36C180.93 230.37 181.12 230.39 181.31 230.39C182.09 230.44 182.86 230.44 183.64 230.44C184.42 230.44 185.22 230.44 186.02 230.48C186.23 230.48 186.43 230.49 186.64 230.5C185.88 230.37 185.11 230.2 184.36 230.02C183.97 229.92 183.58 229.82 183.19 229.71C182.79 229.6 182.4 229.49 182.02 229.36L181.45 229.17C181.26 229.11 181.07 229.04 180.89 228.97L180.32 228.76C180.14 228.7 179.95 228.61 179.77 228.54L179.22 228.31C179.03 228.24 178.86 228.15 178.67 228.08C178.3 227.92 177.96 227.73 177.61 227.57C177.47 227.5 177.31 227.42 177.17 227.35L177.21 227.19C177.38 227.28 177.55 227.37 177.73 227.46C178.08 227.62 178.42 227.8 178.79 227.95C178.96 228.03 179.14 228.11 179.32 228.19L179.87 228.39C181.33 228.97 182.88 229.41 184.43 229.75C185.63 230.01 186.84 230.2 188.05 230.34V230.35Z" fill="url(#paint7_linear_2013_3243)"/>
<path d="M199.59 207.74L199.38 208.15C199.2 208.13 199.02 208.11 198.84 208.09C197.16 207.89 195.45 207.49 193.87 206.87C193.09 206.57 192.34 206.2 191.66 205.79C191.31 205.59 190.99 205.37 190.68 205.14C190.37 204.92 190.07 204.69 189.79 204.47C188.65 203.54 187.61 202.57 186.29 201.75C186.15 201.67 186.01 201.59 185.86 201.5L185.92 201.33C186.1 201.43 186.28 201.54 186.44 201.65C187.77 202.48 188.82 203.47 189.98 204.37C190.56 204.82 191.16 205.26 191.84 205.63C192.51 206.01 193.25 206.34 194.02 206.62C195.54 207.18 197.19 207.5 198.79 207.66C199.05 207.69 199.31 207.71 199.58 207.73L199.59 207.74Z" fill="url(#paint8_linear_2013_3243)"/>
<path d="M200 206.3C198.58 206.26 197.14 206.14 195.7 205.92C194.82 205.79 193.95 205.61 193.08 205.37C192.22 205.13 191.37 204.82 190.58 204.46C189.78 204.08 189.06 203.62 188.45 203.12C187.84 202.61 187.351 202.06 186.931 201.51C186.661 201.19 186.43 200.86 186.19 200.53L186.411 199.86C186.781 200.38 187.12 200.89 187.49 201.4C187.89 201.95 188.31 202.47 188.86 202.96C189.4 203.44 190.051 203.88 190.791 204.26C191.531 204.63 192.331 204.93 193.151 205.18C193.371 205.24 193.571 205.3 193.781 205.36L194.421 205.52L195.061 205.66L195.7 205.78C197.11 206.01 198.501 206.12 199.891 206.16L199.99 206.33L200 206.3Z" fill="url(#paint9_linear_2013_3243)"/>
<path d="M180.41 245.31L180.32 245.49C180.18 245.49 180.04 245.49 179.9 245.49C178.17 245.48 176.45 245.54 174.69 245.46C173.8 245.42 172.91 245.35 172 245.22C171.73 245.19 171.47 245.14 171.2 245.09L171.32 244.75C171.54 244.79 171.77 244.83 172.01 244.88C172.88 245.02 173.75 245.11 174.63 245.17C176.37 245.29 178.11 245.29 179.84 245.31C180.03 245.31 180.22 245.31 180.41 245.32V245.31Z" fill="url(#paint10_linear_2013_3243)"/>
<path d="M195.29 216.16L195.1 216.52C195.1 216.52 195.06 216.51 195.03 216.51C194.13 216.25 193.26 215.93 192.44 215.52C191.64 215.11 190.91 214.61 190.32 214.07C189.71 213.54 189.22 212.99 188.68 212.48C188.16 211.96 187.59 211.47 186.93 211.06C185.83 210.39 184.48 209.9 183.12 209.68L183.29 209.17C183.37 209.17 183.45 209.18 183.52 209.2C183.98 209.29 184.45 209.41 184.9 209.55C185.36 209.7 185.81 209.87 186.24 210.05C186.65 210.25 187.06 210.46 187.44 210.71C188.2 211.18 188.8 211.73 189.33 212.26C189.88 212.81 190.35 213.34 190.91 213.84C191.45 214.34 192.09 214.78 192.82 215.17C193.19 215.36 193.57 215.53 193.97 215.69C194.37 215.85 194.76 216 195.19 216.12C195.23 216.13 195.27 216.15 195.31 216.15L195.29 216.16Z" fill="url(#paint11_linear_2013_3243)"/>
<path d="M193.601 219.47L193.271 220.11C193.271 220.11 193.191 220.09 193.161 220.08C192.391 219.83 191.591 219.64 190.781 219.52C189.981 219.38 189.171 219.3 188.371 219.27C186.761 219.2 185.201 219.29 183.681 219.49C182.281 219.67 180.921 219.94 179.551 220.23L179.961 219.02C180.961 218.81 181.991 218.62 183.071 218.49C184.681 218.3 186.401 218.22 188.181 218.35C189.061 218.42 189.971 218.53 190.861 218.71C191.771 218.88 192.651 219.13 193.501 219.43C193.531 219.44 193.571 219.46 193.601 219.48V219.47Z" fill="url(#paint12_linear_2013_3243)"/>
<path d="M194.671 217.36L194.411 217.88C193.971 217.67 193.521 217.48 193.051 217.33C192.271 217.07 191.461 216.89 190.671 216.8C189.051 216.61 187.45 216.7 185.96 216.92C185.2 217.02 184.47 217.17 183.75 217.33C183.03 217.48 182.31 217.67 181.58 217.83C181.15 217.93 180.721 218.03 180.271 218.12L180.5 217.47C180.71 217.41 180.931 217.36 181.151 217.31C182.571 216.95 184.03 216.58 185.6 216.36C186 216.31 186.42 216.26 186.84 216.23C186.42 216.21 186.01 216.2 185.62 216.2C184.87 216.2 184.15 216.27 183.45 216.36C182.73 216.46 182.031 216.57 181.301 216.66C181.121 216.69 180.93 216.71 180.75 216.74L180.95 216.13C181.66 216.01 182.37 215.9 183.11 215.81C183.85 215.71 184.621 215.64 185.421 215.64C187.011 215.64 188.66 215.83 190.26 216.15C190.79 216.25 191.33 216.38 191.85 216.51C192.22 216.6 192.6 216.7 192.97 216.81C193.55 216.98 194.14 217.17 194.69 217.36H194.671Z" fill="url(#paint13_linear_2013_3243)"/>
</g>
<path opacity="0.1" d="M189.37 227.74L188.91 228.65C186.33 228.34 182.3 227.49 177.86 225.24L178.15 224.4C182.34 226.01 186.21 227.06 189.37 227.73V227.74Z" fill="url(#paint14_radial_2013_3243)" style="mix-blend-mode:multiply"/>
<path opacity="0.1" d="M192.79 221.04L191.63 223.31C187.43 223.32 185.769 224.86 178.189 224.24L178.459 223.44C184.749 222.73 186.18 219.44 192.78 221.04H192.79Z" fill="url(#paint15_radial_2013_3243)" style="mix-blend-mode:multiply"/>
<path d="M141.21 150.99H78.6898V150.58C78.6498 149.16 78.6299 147.72 78.6299 146.28C78.6299 105.78 92.6898 72.8198 109.96 72.8198C127.23 72.8198 141.29 105.78 141.29 146.28C141.29 147.73 141.27 149.16 141.24 150.58V150.99H141.21ZM79.6299 150.16H140.25C140.28 148.88 140.29 147.58 140.29 146.28C140.29 106.24 126.67 73.6599 109.93 73.6599C93.1899 73.6599 79.5798 106.24 79.5798 146.28C79.5798 147.59 79.5899 148.88 79.6099 150.16H79.6299Z" fill="black"/>
<path d="M95.5197 235.64L92.5996 158.98H133.88L132.42 236.18L95.5197 235.64Z" fill="#B17181"/>
<path d="M144.73 146.05C144.73 147.57 144.71 149.08 144.67 150.58H74.3597C74.3197 149.08 74.2998 147.57 74.2998 146.05C74.2998 103.52 90.0698 69.04 109.51 69.04C128.96 69.04 144.73 103.52 144.73 146.05Z" fill="#B17181"/>
<path d="M95.3696 235.65L92.5996 160.15H131.83L130.44 236.18L95.3696 235.65Z" fill="url(#paint16_linear_2013_3243)"/>
<g style="mix-blend-mode:multiply" opacity="0.5">
<path d="M199.47 207.95L194.67 199.09L174.34 248.36L178.82 248.43L199.47 207.95Z" fill="#B17181"/>
</g>
<path d="M142.92 146.09C142.92 147.6 142.9 149.09 142.86 150.58H74.3597C74.3197 149.09 74.2998 147.6 74.2998 146.09C74.2998 103.96 89.6597 69.79 108.61 69.79C127.56 69.79 142.92 103.96 142.92 146.09Z" fill="url(#paint17_linear_2013_3243)"/>
<path d="M138.63 146.39C138.63 147.8 138.61 149.2 138.58 150.58H78.6399C78.6099 149.2 78.5898 147.8 78.5898 146.39C78.5898 107.12 92.0399 75.2803 108.61 75.2803C125.18 75.2803 138.63 107.12 138.63 146.39Z" fill="#B17181"/>
<path d="M129.29 162.23L128.94 183.89L128.89 186.51L128.37 218.72L128.31 222.43L128.09 236.18L97.5604 235.65L96.8104 212.88L96.4803 202.85L95.9204 185.67L95.7103 179.46L95.1504 162.21H129.31L129.29 162.23Z" fill="url(#paint18_radial_2013_3243)"/>
<g style="mix-blend-mode:multiply" opacity="0.3">
<path d="M126.33 224.91C126.74 222.69 127.47 220.57 128.37 218.72L128.31 222.43C127.98 223.38 127.7 224.38 127.48 225.42C127.28 226.43 127.12 227.47 127.02 228.54C126.93 229.59 126.86 230.67 126.86 231.75C126.86 232.29 126.87 232.83 126.89 233.37C126.92 233.92 126.93 234.45 126.99 234.99C127 235.26 127.02 235.54 127.05 235.82H126.04C125.88 234.49 125.79 233.13 125.77 231.77C125.72 229.47 125.9 227.15 126.33 224.91Z" fill="url(#paint19_linear_2013_3243)"/>
<path d="M128.94 183.89L128.89 186.51C128.74 186.28 128.56 186.05 128.4 185.82C127.31 184.31 126.2 182.72 125.24 180.91C124.3 179.06 123.54 177.05 122.95 174.93C122.6 173.7 122.32 172.42 122.09 171.13C121.94 170.22 121.8 169.3 121.68 168.38C121.47 166.59 121.34 164.79 121.26 162.99C121.25 162.74 121.24 162.49 121.23 162.23C121.22 162.04 121.21 161.85 121.21 161.66C121.21 161.41 121.2 161.17 121.2 160.92H121.87C121.87 161.14 121.89 161.37 121.9 161.59C121.9 161.8 121.92 162.02 121.93 162.23C121.95 162.49 121.97 162.74 121.99 163C122.1 164.72 122.3 166.43 122.56 168.11C122.71 169.13 122.89 170.15 123.11 171.13C123.34 172.21 123.61 173.27 123.93 174.3C124.53 176.25 125.29 178.1 126.18 179.77C127 181.24 127.94 182.57 128.93 183.89H128.94Z" fill="url(#paint20_linear_2013_3243)"/>
<path d="M117.07 230.98C116.98 232.63 116.78 234.24 116.51 235.82H114.76C114.98 234.16 115.11 232.48 115.14 230.82C115.17 228.8 115.02 226.79 114.74 224.82C114.46 222.85 114.04 220.91 113.5 219.04C112.45 215.3 110.98 211.79 109.3 208.52C107.62 205.23 105.7 202.13 103.77 199.02C101.84 195.92 99.8302 192.83 97.9402 189.53C97.2302 188.3 96.5403 187.02 95.9003 185.69L95.7002 179.47C96.1202 180.5 96.5603 181.49 97.0303 182.45C97.8603 184.12 98.7402 185.69 99.6902 187.24C101.59 190.34 103.62 193.31 105.64 196.38C107.66 199.44 109.63 202.63 111.4 206.16C113.16 209.69 114.68 213.54 115.73 217.74C116.25 219.84 116.66 222.01 116.89 224.23C117.13 226.46 117.2 228.73 117.07 230.98Z" fill="url(#paint21_linear_2013_3243)"/>
<path d="M123.37 227.28C123.39 229.02 123.35 230.76 123.26 232.49C123.2 233.6 123.12 234.71 123.04 235.82H122.05C122.05 235.66 122.07 235.49 122.08 235.33C122.03 235.49 122 235.66 121.95 235.82H120.84C121.01 235.2 121.17 234.57 121.32 233.94C121.76 231.98 122.08 229.98 122.13 227.98C122.2 225.96 122.03 223.94 121.65 222C120.89 218.1 119.42 214.54 117.68 211.3C116.82 209.68 115.9 208.11 114.91 206.61C113.94 205.1 112.92 203.62 111.92 202.11C109.92 199.09 107.92 195.97 106.27 192.38C105.44 190.59 104.72 188.69 104.15 186.66C103.87 185.65 103.65 184.6 103.44 183.54C103.25 182.48 103.12 181.37 103.09 180.24C103.06 179.12 103.12 177.95 103.35 176.84C103.56 175.72 103.95 174.7 104.41 173.8C104.88 172.9 105.44 172.15 106.04 171.5C106.14 171.38 106.26 171.26 106.37 171.15C106.85 170.64 107.36 170.18 107.86 169.74C109.1 168.67 110.36 167.7 111.47 166.46C112.36 165.48 113.15 164.26 113.76 162.87C113.91 162.53 114.05 162.19 114.17 161.83C114.27 161.54 114.38 161.24 114.48 160.93H114.96C114.85 161.34 114.72 161.75 114.58 162.15C114.51 162.4 114.41 162.63 114.32 162.87C114.22 163.1 114.13 163.33 114.04 163.56L113.73 164.23L113.56 164.56L113.39 164.87C112.94 165.72 112.4 166.47 111.84 167.16C110.7 168.51 109.44 169.57 108.25 170.69C108.1 170.83 107.94 170.99 107.78 171.14C107.36 171.57 106.94 172.01 106.55 172.49C106.02 173.12 105.53 173.84 105.15 174.64C104.77 175.43 104.47 176.31 104.33 177.24C104.17 178.18 104.13 179.16 104.19 180.14C104.3 182.12 104.73 184.08 105.27 185.97C105.82 187.84 106.52 189.62 107.33 191.3C108.94 194.67 110.91 197.66 112.93 200.62C114.95 203.55 117.04 206.55 118.82 209.96C119.28 210.84 119.71 211.75 120.13 212.67C119.87 211.71 119.58 210.77 119.25 209.85C118.65 208.15 117.96 206.55 117.17 205C116.38 203.45 115.54 201.94 114.71 200.37C113.88 198.8 113.07 197.17 112.36 195.41C111.65 193.65 111.07 191.72 110.75 189.66C110.43 187.61 110.44 185.44 110.67 183.39C110.93 181.35 111.39 179.38 112 177.56C112.6 175.73 113.3 174.01 114.07 172.36C114.26 171.94 114.45 171.53 114.65 171.13C115.24 169.92 115.83 168.74 116.36 167.52C117.01 166.06 117.59 164.56 117.96 162.93C118.01 162.73 118.05 162.54 118.09 162.34C118.19 161.87 118.28 161.39 118.33 160.91H118.89C118.89 160.97 118.88 161.03 118.87 161.08C118.79 161.58 118.74 162.09 118.64 162.57C118.63 162.69 118.61 162.82 118.58 162.93C118.24 164.77 117.63 166.49 116.98 168.1C116.57 169.13 116.13 170.12 115.68 171.11C115.39 171.78 115.1 172.44 114.83 173.1C114.14 174.76 113.5 176.47 112.97 178.23C112.45 179.99 112.05 181.81 111.85 183.67C111.67 185.52 111.67 187.4 111.98 189.21C112.28 191.01 112.82 192.72 113.49 194.33C114.17 195.96 114.96 197.49 115.79 199.01C116.62 200.53 117.48 202.06 118.3 203.66C119.12 205.26 119.89 206.98 120.51 208.81C121.75 212.46 122.55 216.41 122.96 220.4C123.09 221.74 123.19 223.07 123.26 224.4C123.33 225.34 123.37 226.29 123.34 227.25L123.37 227.28Z" fill="url(#paint22_linear_2013_3243)"/>
</g>
<path opacity="0.1" d="M112.43 235.79H107.07C104.85 224.86 100.79 222.17 96.8 212.89L96.46 202.86C103.65 215.19 113.05 215.48 112.43 235.78V235.79Z" fill="url(#paint23_radial_2013_3243)" style="mix-blend-mode:multiply"/>
<path d="M104.18 205.75C104.18 207.15 103.33 208.28 102.29 208.28C101.26 208.28 100.41 207.14 100.41 205.75C100.41 204.35 101.26 203.21 102.29 203.21C103.33 203.21 104.18 204.35 104.18 205.75Z" fill="#B17181"/>
<path d="M103.76 205.58C103.76 206.88 103.02 207.95 102.09 207.95C101.17 207.95 100.42 206.88 100.42 205.58C100.42 204.27 101.17 203.21 102.09 203.21C103.02 203.21 103.76 204.27 103.76 205.58Z" fill="url(#paint24_linear_2013_3243)"/>
<path d="M31.7999 250.14L28.3298 250.18L28.2699 249.89L28.1998 249.63L27.8799 248.19L27.8198 247.94L26.2299 240.93L26.1299 240.46L22.9299 226.41L22.8899 226.17L22.7599 225.66L22.7098 225.44L21.2799 219.14L21.1499 218.54L20.2999 214.8L20.1699 214.23L20.1499 214.16L19.9999 213.49L19.6599 212.02L19.4099 210.9L18.7499 207.99L18.1998 205.59L17.8799 204.19L17.9199 204.11L18.5199 202.89L19.5798 200.77L19.6599 200.61L20.7699 198.38L20.9598 197.99L23.2399 193.39L23.9099 197.75L23.9698 198.22L24.3099 200.49L24.3499 200.68L24.6399 202.66L24.6799 202.93L25.1499 206.01L25.3599 207.38L25.5299 208.5L25.6299 209.18L25.7899 210.27L25.8899 210.9L26.9799 218.18L27.0698 218.73L28.1998 226.19L28.2198 226.36L28.2499 226.53L28.3298 227.04L30.7899 243.4L30.8899 244.05L31.5099 248.21L31.5399 248.37L31.6898 249.36L31.7198 249.54L31.7999 250.14Z" fill="url(#paint25_linear_2013_3243)"/>
<path d="M45.9004 172.76L48.4403 214.45H77.5004L81.9703 172.76H45.9004Z" fill="url(#paint26_linear_2013_3243)"/>
<path d="M78.7295 176.55L75.4095 211.8H50.8395L49.3595 187.45L48.6895 176.55H78.7295Z" fill="url(#paint27_linear_2013_3243)"/>
<path opacity="0.4" d="M66.1595 211.8H57.8995L49.3595 187.45L48.6895 176.55H57.8795L66.1595 211.8Z" fill="url(#paint28_linear_2013_3243)" style="mix-blend-mode:color-dodge"/>
<path opacity="0.4" d="M71.5203 211.8H68.5403L60.7803 176.55H67.5902L71.5203 211.8Z" fill="url(#paint29_linear_2013_3243)" style="mix-blend-mode:color-dodge"/>
<g style="mix-blend-mode:multiply" opacity="0.5">
<path d="M77.2402 194.17L65.1102 194.49L65.3103 176.55H62.1703L62.6902 194.54L49.7803 194.69L49.8903 196.48L62.7603 196.87L63.0802 211.8H64.7803L65.0902 196.94L76.8003 197.5L77.2402 194.17Z" fill="#B17181"/>
</g>
<path d="M77.99 193.6L64.1 193.86L64.27 176.55L61.25 176.54L61.6899 193.91L48.46 194.15V195.84L61.75 196.23L62.24 212.63H63.9399L64.08 196.3L77.8199 196.72L77.99 193.6Z" fill="url(#paint30_linear_2013_3243)"/>
<path d="M45.9004 172.76L48.1104 171.93H83.7003L78.7303 214.45H77.5004L81.9703 172.76H45.9004Z" fill="#B17181"/>
<path d="M98.8398 169.08L100.15 186.32H122.75L125.55 169.08H98.8398Z" fill="url(#paint31_linear_2013_3243)"/>
<path d="M123.04 170.66L121.12 185.22H102.01L101.35 175.53L101.01 170.66H123.04Z" fill="url(#paint32_linear_2013_3243)"/>
<path opacity="0.4" d="M113.41 185.22H107.5C105.76 182.49 103.55 178.99 101.35 175.53L101.01 170.66H105.37L113.41 185.22Z" fill="url(#paint33_linear_2013_3243)" style="mix-blend-mode:color-dodge"/>
<path opacity="0.4" d="M118.9 185.22H116.06L108.4 170.66H113.32L118.9 185.22Z" fill="url(#paint34_linear_2013_3243)" style="mix-blend-mode:color-dodge"/>
<g style="mix-blend-mode:multiply" opacity="0.5">
<path d="M113.26 170.66H110.82L111.54 185.22H112.86L113.26 170.66Z" fill="#B17181"/>
</g>
<path d="M112.45 170.66L110.1 170.65L110.87 185.57H112.2L112.45 170.66Z" fill="url(#paint35_linear_2013_3243)"/>
<path d="M98.8398 169.08L100.56 168.75H126.9L123.7 186.32H122.75L125.55 169.08H98.8398Z" fill="#B17181"/>
<g style="mix-blend-mode:multiply" opacity="0.5">
<path d="M176.27 163.28L107.84 41.5402L26.0399 211.19L19.4999 211.26L17.8799 204.19L106.77 25.3301L176.27 163.28Z" fill="#B17181"/>
</g>
<path d="M7.12 204.18L0 204.16L99.29 0L206.5 208.64L198.94 208.29L99.62 11.12L7.12 204.18Z" fill="url(#paint36_linear_2013_3243)"/>
<path d="M174.92 234.01L172.07 242.47L30.7396 242.26L29.6797 235.56L174.92 234.01Z" fill="url(#paint37_linear_2013_3243)"/>
<g style="mix-blend-mode:multiply" opacity="0.5">
<path d="M99.29 0L206.5 208.64L274 212.22L204.38 85.25L99.29 0Z" fill="#B17181"/>
</g>
<path d="M138.49 144.74C138.49 146.07 138.47 147.41 138.44 148.72H81.4601C81.4301 147.41 81.4102 146.08 81.4102 144.74C81.4102 133.38 82.6002 122.66 84.6802 113.27C86.5302 105 89.0701 97.7401 92.1201 91.9401C93.1901 89.9101 94.3201 88.0702 95.5101 86.4202C97.1201 84.1902 98.8301 82.3001 100.62 80.8401C101.72 79.9301 102.86 79.1901 104.01 78.6101C104.41 78.4001 104.81 78.2301 105.22 78.0701C106.75 77.4601 108.34 77.1401 109.95 77.1401C125.72 77.1401 138.49 107.41 138.49 144.74Z" fill="url(#paint38_linear_2013_3243)"/>
<path opacity="0.4" d="M119.38 148.72H96.9496C93.8696 139.79 89.3497 126.76 84.6797 113.27C86.5197 105 89.0696 97.7399 92.1196 91.9399L119.37 148.72H119.38Z" fill="url(#paint39_linear_2013_3243)" style="mix-blend-mode:color-dodge"/>
<path opacity="0.4" d="M130.93 148.72H126.31L95.5195 86.4102C97.1295 84.1802 98.8395 82.3001 100.63 80.8301L130.939 148.72H130.93Z" fill="url(#paint40_linear_2013_3243)" style="mix-blend-mode:color-dodge"/>
<path opacity="0.4" d="M136.49 148.72H134.52L104.02 78.61C104.41 78.4 104.809 78.2201 105.219 78.0601L136.49 148.71V148.72Z" fill="url(#paint41_linear_2013_3243)" style="mix-blend-mode:color-dodge"/>
<path d="M150.54 146.86H66.2002V151.15H150.54V146.86Z" fill="url(#paint42_linear_2013_3243)"/>
<g style="mix-blend-mode:multiply" opacity="0.5">
<path d="M135.55 114.94L135.05 112.62L111.68 112.67L112.37 75.8401L107.78 74.6201L108.37 112.71L82.09 113.03L81.71 114.86L108.4 114.94L108.81 146.86H110.77L111.63 114.94H135.55Z" fill="#B17181"/>
</g>
<path d="M137.18 113.8L135.66 111.2L110.44 111.52L111.33 71.0898L106.48 73.4099L107.12 111.56L79.4297 111.9V113.8H107.16L107.7 146.86H109.67L110.39 113.8H137.18Z" fill="url(#paint43_linear_2013_3243)"/>
<path d="M185.1 248.36L177.82 277.52H164.06L161.22 248.65L185.1 248.36Z" fill="url(#paint44_linear_2013_3243)"/>
<g style="mix-blend-mode:multiply" opacity="0.5">
<path d="M185.1 248.36L177.82 277.52H171.47L174.12 248.51L185.1 248.36Z" fill="#B17181"/>
</g>
<g style="mix-blend-mode:multiply" opacity="0.5">
<path d="M185.11 248.36L177.82 277.52H164.06L161.22 248.65L185.11 248.36Z" fill="#B17181"/>
</g>
<path opacity="0.7" d="M67.5303 146.86L88.5702 148.63L150.55 146.86H67.5303Z" fill="url(#paint45_linear_2013_3243)" style="mix-blend-mode:overlay"/>
<path opacity="0.7" d="M29.6797 235.56L72.0197 237.61L174.92 234.01L29.6797 235.56Z" fill="url(#paint46_linear_2013_3243)" style="mix-blend-mode:overlay"/>
<path d="M139.47 172.76L142.02 214.45H171.07L175.54 172.76H139.47Z" fill="url(#paint47_linear_2013_3243)"/>
<path d="M172.29 176.55L168.97 211.8H144.41L142.98 188.3L142.25 176.55H172.29Z" fill="url(#paint48_linear_2013_3243)"/>
<path opacity="0.4" d="M158.29 211.8H149.67L142.98 188.3L142.25 176.55H151.12L158.29 211.8Z" fill="url(#paint49_linear_2013_3243)" style="mix-blend-mode:color-dodge"/>
<path opacity="0.4" d="M163.55 211.8H160.91L155.53 176.55H161.73L163.55 211.8Z" fill="url(#paint50_linear_2013_3243)" style="mix-blend-mode:color-dodge"/>
<g style="mix-blend-mode:multiply" opacity="0.5">
<path d="M170.82 194.17L158.69 194.49L158.88 176.55H155.73L156.26 194.54L143.36 194.69L143.47 196.48L156.33 196.87L156.66 211.8H158.36L158.66 196.94L170.36 197.5L170.82 194.17Z" fill="#B17181"/>
</g>
<path d="M171.56 193.6L157.68 193.86L157.83 176.55L154.81 176.54L155.26 193.91L142.03 194.15V195.84L155.33 196.23L155.8 212.63H157.5L157.66 196.3L171.39 196.72L171.56 193.6Z" fill="url(#paint51_linear_2013_3243)"/>
<path d="M139.47 172.76L141.69 171.93H177.28L172.3 214.45H171.07L175.54 172.76H139.47Z" fill="#B17181"/>
<path d="M178.89 214.45H135.55V218.74H178.89V214.45Z" fill="url(#paint52_linear_2013_3243)"/>
<path opacity="0.7" d="M135.55 214.45L168.27 215.9L178.89 214.45H135.55Z" fill="url(#paint53_linear_2013_3243)" style="mix-blend-mode:overlay"/>
<path opacity="0.3" d="M112.98 12.6899L216.75 207.95L117.22 16.55L112.98 12.6899Z" fill="url(#paint54_linear_2013_3243)"/>
<path opacity="0.3" d="M142.03 35.9399L233.99 207.95L146.01 40.4301L142.03 35.9399Z" fill="url(#paint55_linear_2013_3243)"/>
<path opacity="0.3" d="M167.32 57.6099L252.13 208.64L170.02 59.3699L167.32 57.6099Z" fill="url(#paint56_linear_2013_3243)"/>
<path opacity="0.3" d="M188.01 75.2803L264.6 208.29L189.55 76.1503L188.01 75.2803Z" fill="url(#paint57_linear_2013_3243)"/>
<path d="M186.58 52.73L190.9 132.12L199.73 146.48L215.15 148.45L217.82 52.73H186.58Z" fill="url(#paint58_linear_2013_3243)"/>
<g style="mix-blend-mode:multiply" opacity="0.5">
<path d="M199.74 146.48L215.15 148.45L217.82 52.73H198.14L199.74 146.48Z" fill="#B17181"/>
</g>
<path d="M224.23 41.27H179.33V52.73H224.23V41.27Z" fill="url(#paint59_linear_2013_3243)"/>
<g style="mix-blend-mode:multiply" opacity="0.5">
<path d="M224.22 41.27H198.14V52.73H224.22V41.27Z" fill="#B17181"/>
</g>
<g style="mix-blend-mode:multiply" opacity="0.5">
<path d="M260.91 214.45L200.96 212.22L259.94 216.6L260.91 214.45Z" fill="#B17181"/>
</g>
<g style="mix-blend-mode:multiply" opacity="0.5">
<path d="M193.97 218.75L250.16 221.6L204.14 220.17L222.43 221.99L192.9 220.82L193.97 218.75Z" fill="#B17181"/>
</g>
<g style="mix-blend-mode:multiply" opacity="0.5">
<path d="M196.2 227.23L219.7 226.54L252.43 229.93L196.2 227.23Z" fill="#B17181"/>
</g>
<g style="mix-blend-mode:multiply" opacity="0.5">
<path d="M186.45 233.51L232.71 235.82L185.61 235.2L186.45 233.51Z" fill="#B17181"/>
</g>
<g style="mix-blend-mode:multiply" opacity="0.5">
<path d="M186.64 241.65H248.72L247.74 243.66L186.64 241.65Z" fill="#B17181"/>
</g>
<path d="M104.89 195.27L103.68 193.39L121.51 192.78L120.41 195.56L104.89 195.27Z" fill="#B17181"/>
<path d="M104.11 195.89L103.68 193.39H120.74L120.41 195.55L104.11 195.89Z" fill="url(#paint60_linear_2013_3243)"/>
<g style="mix-blend-mode:multiply" opacity="0.3">
<path d="M23.9707 198.22C23.3807 198.22 22.8007 198.23 22.2307 198.27C21.7407 198.29 21.2507 198.33 20.7607 198.38L20.9707 197.99C21.4007 197.94 21.8408 197.9 22.2808 197.86C22.8208 197.82 23.3708 197.78 23.9108 197.75L23.9807 198.22H23.9707Z" fill="url(#paint61_linear_2013_3243)"/>
<path d="M24.3501 200.68C23.8001 200.68 23.2501 200.67 22.7001 200.67C21.9001 200.67 21.1101 200.69 20.3201 200.73C20.0701 200.74 19.8201 200.75 19.5801 200.77L19.6602 200.61C19.8802 200.59 20.1101 200.58 20.3401 200.57C21.1301 200.54 21.9401 200.51 22.7401 200.5L24.3102 200.48L24.3401 200.67L24.3501 200.68Z" fill="url(#paint62_linear_2013_3243)"/>
<path d="M28.21 226.36C27 226.23 25.83 225.99 24.65 225.83C24.03 225.75 23.4 225.67 22.76 225.66L22.71 225.44C23 225.46 23.2899 225.48 23.5699 225.51C23.9699 225.55 24.37 225.6 24.76 225.66C25.91 225.83 27.0299 226.06 28.1899 226.19L28.21 226.36Z" fill="url(#paint63_linear_2013_3243)"/>
<path d="M28.3208 227.04C27.7508 226.83 27.1409 226.63 26.5009 226.5C25.7409 226.35 24.9209 226.29 24.0609 226.32C23.6909 226.34 23.3109 226.37 22.9309 226.41L22.8809 226.17C23.2909 226.1 23.7008 226.07 24.1008 226.03C25.0108 225.98 25.9008 226.03 26.7408 226.16C27.2608 226.24 27.7608 226.37 28.2408 226.52L28.3208 227.03V227.04Z" fill="url(#paint64_linear_2013_3243)"/>
<path d="M30.8801 244.05C30.8801 244.05 30.8401 244.02 30.8201 244C30.5501 243.79 30.3701 243.55 30.2101 243.31C29.9001 242.83 29.7402 242.32 29.4302 241.88C29.2702 241.66 29.0801 241.45 28.8401 241.3C28.5801 241.14 28.2702 241.02 27.9102 240.96C27.5602 240.89 27.1601 240.88 26.7701 240.89L26.2201 240.92L26.1201 240.45C26.1201 240.45 26.1701 240.45 26.2001 240.45H26.8801C27.3301 240.45 27.7801 240.49 28.1901 240.58C28.4001 240.63 28.6002 240.68 28.7802 240.76C28.8602 240.8 28.9502 240.84 29.0302 240.89C29.1202 240.94 29.1801 240.99 29.2501 241.04C29.5401 241.24 29.7301 241.47 29.8801 241.71C30.1901 242.2 30.3401 242.71 30.6201 243.17C30.6701 243.24 30.7202 243.31 30.7802 243.38L30.8801 244.03V244.05Z" fill="url(#paint65_linear_2013_3243)"/>
<path d="M27.0703 218.73C27.0703 218.73 27.0504 218.73 27.0404 218.74C26.5804 218.88 26.1304 219.01 25.6504 219.1C25.1704 219.19 24.7003 219.26 24.2203 219.29C23.7503 219.33 23.2604 219.34 22.8004 219.32C22.2704 219.29 21.7604 219.22 21.2904 219.13L21.1504 218.54C21.7604 218.67 22.3804 218.76 23.0004 218.78C24.3104 218.83 25.7304 218.61 26.9904 218.18L27.0703 218.73Z" fill="url(#paint66_linear_2013_3243)"/>
<path d="M31.5304 248.37C30.7204 248.45 29.9004 248.47 29.1204 248.39C28.9004 248.38 28.7104 248.35 28.5004 248.32L28.2003 248.26L28.0604 248.24L27.9204 248.2C27.9204 248.2 27.8904 248.2 27.8704 248.19L27.8203 247.94C28.2503 248.08 28.7203 248.17 29.2103 248.22C29.9503 248.31 30.7404 248.29 31.5204 248.21L31.5404 248.37H31.5304Z" fill="url(#paint67_linear_2013_3243)"/>
<path d="M31.71 249.54C31.64 249.55 31.58 249.57 31.5 249.59L31.2 249.65C30.99 249.7 30.8 249.73 30.59 249.76C30.38 249.79 30.18 249.82 29.97 249.85C29.77 249.86 29.56 249.89 29.36 249.9C28.99 249.92 28.62 249.91 28.27 249.9L28.21 249.63C28.6 249.67 28.99 249.69 29.4 249.67C30.16 249.66 30.9399 249.54 31.6899 249.37L31.72 249.54H31.71Z" fill="url(#paint68_linear_2013_3243)"/>
<path d="M25.3604 207.38C25.1804 207.54 25.0103 207.71 24.8303 207.88C23.8203 208.86 22.7404 209.83 21.5104 210.76C20.9304 211.19 20.3104 211.62 19.6504 212.02L19.4004 210.91C19.7304 210.68 20.0503 210.45 20.3503 210.21C21.5003 209.34 22.5403 208.4 23.5903 207.44C24.1003 206.98 24.6304 206.5 25.1404 206.02L25.3503 207.39L25.3604 207.38Z" fill="url(#paint69_linear_2013_3243)"/>
<path d="M25.63 209.18C25.02 209.72 24.44 210.27 23.89 210.83C22.92 211.79 21.94 212.79 20.75 213.71C20.56 213.87 20.35 214.01 20.15 214.16L20 213.49C20 213.49 20.06 213.44 20.1 213.42C20.66 212.97 21.1999 212.51 21.6899 212.05C22.1999 211.57 22.6799 211.08 23.1899 210.6C23.9299 209.89 24.68 209.18 25.53 208.49L25.64 209.18H25.63Z" fill="url(#paint70_linear_2013_3243)"/>
<path d="M25.8804 210.9C25.5104 211.17 25.1504 211.44 24.8104 211.74C24.2804 212.16 23.7603 212.59 23.1903 213.02C22.6403 213.44 22.0304 213.86 21.3704 214.24C21.0204 214.43 20.6604 214.61 20.2904 214.8L20.1504 214.23C20.3904 214.11 20.6103 213.99 20.8203 213.86C21.4403 213.51 22.0104 213.12 22.5404 212.71C23.0904 212.3 23.6004 211.88 24.1404 211.45C24.6604 211.06 25.1804 210.65 25.7804 210.27L25.8704 210.9H25.8804Z" fill="url(#paint71_linear_2013_3243)"/>
</g>
<path opacity="0.1" d="M24.6802 202.93C21.4202 204.65 19.9401 206.39 18.7501 207.99L18.2001 205.59C19.3101 204.91 20.7001 204.18 22.5001 203.39C20.8901 203.6 19.3602 203.84 17.9102 204.11L18.5201 202.89C20.3701 202.67 22.4101 202.57 24.6401 202.66L24.6802 202.93Z" fill="url(#paint72_radial_2013_3243)" style="mix-blend-mode:multiply"/>
<path d="M89.0698 214.45H17.8799V218.74H89.0698V214.45Z" fill="url(#paint73_linear_2013_3243)"/>
<path opacity="0.7" d="M17.8799 214.45L71.6399 215.9L89.0798 214.45H17.8799Z" fill="url(#paint74_linear_2013_3243)" style="mix-blend-mode:overlay"/>
<g style="mix-blend-mode:multiply" opacity="0.5">
<path d="M174.31 235.82L77.2402 239.3L173.7 237.61L174.31 235.82Z" fill="#B17181"/>
</g>
<g style="mix-blend-mode:multiply" opacity="0.5">
<path d="M30.2803 239.3H59.3903L30.4502 240.45L30.2803 239.3Z" fill="#B17181"/>
</g>
<g style="mix-blend-mode:multiply" opacity="0.5">
<path d="M172.95 239.87H131.83L172.53 241.12L172.95 239.87Z" fill="#B17181"/>
</g>
<g style="mix-blend-mode:multiply" opacity="0.3">
<path d="M174.34 248.36C174.34 249.32 174.33 250.28 174.28 251.25C174.2 252.66 174.04 254.06 173.75 255.4C173.61 256.06 173.44 256.71 173.23 257.33C173.01 257.94 172.76 258.51 172.46 259.02C172.15 259.5 171.81 259.93 171.43 260.23C171.05 260.53 170.65 260.71 170.25 260.85C169.46 261.12 168.66 261.13 167.92 261.42C167.55 261.57 167.2 261.77 166.88 262.08C166.57 262.39 166.32 262.81 166.12 263.32C165.91 263.83 165.77 264.42 165.66 265.04L165.52 265.98C165.49 266.29 165.47 266.61 165.45 266.93C165.37 268.21 165.45 269.51 165.64 270.75C165.83 272 166.12 273.21 166.47 274.36C166.8 275.45 167.17 276.5 167.59 277.51H166.18C165.93 276.76 165.7 275.98 165.49 275.19C165.15 273.89 164.88 272.51 164.75 271.09C164.6 269.67 164.57 268.19 164.72 266.75C164.77 266.39 164.8 266.04 164.85 265.69L165.06 264.65C165.2 263.98 165.41 263.32 165.67 262.73C165.8 262.43 165.95 262.16 166.12 261.91C166.2 261.8 166.3 261.68 166.38 261.58C166.47 261.47 166.56 261.4 166.65 261.3C167.03 260.96 167.44 260.76 167.84 260.64C168.63 260.4 169.43 260.37 170.18 260.14C170.55 260.03 170.91 259.86 171.25 259.58C171.58 259.32 171.89 258.91 172.15 258.47C172.41 258.01 172.62 257.47 172.8 256.91C172.98 256.33 173.11 255.72 173.23 255.09C173.43 253.82 173.53 252.5 173.53 251.18C173.53 250.25 173.5 249.29 173.44 248.35H174.33L174.34 248.36Z" fill="url(#paint75_linear_2013_3243)"/>
<path d="M178.04 260.76C177.91 262.12 177.69 263.46 177.32 264.69C177.24 265.01 177.12 265.29 177.03 265.6L176.84 266.03L176.76 266.24L176.66 266.43C176.42 266.98 176.11 267.46 175.8 267.9C175.18 268.77 174.49 269.44 173.83 270.16C173.5 270.52 173.2 270.9 172.9 271.31C172.61 271.72 172.35 272.18 172.14 272.7C171.94 273.2 171.77 273.77 171.68 274.36C171.6 274.95 171.58 275.58 171.61 276.22C171.63 276.65 171.67 277.08 171.72 277.51H171.09C171.04 277.11 171.01 276.69 171 276.28C170.99 275.56 171.02 274.82 171.14 274.11C171.26 273.39 171.47 272.74 171.72 272.16C171.98 271.58 172.29 271.1 172.61 270.68C172.94 270.26 173.28 269.9 173.62 269.55C174.29 268.86 174.99 268.24 175.6 267.45C176.21 266.67 176.72 265.66 177.09 264.48C177.45 263.32 177.67 262.01 177.8 260.7C177.86 260.04 177.9 259.37 177.9 258.7C177.91 258.03 177.9 257.35 177.86 256.68C177.79 255.34 177.62 254.02 177.41 252.72C177.19 251.43 176.94 250.15 176.68 248.87C176.65 248.69 176.6 248.52 176.57 248.34H177.02C177.04 248.44 177.06 248.53 177.08 248.63C177.3 249.94 177.53 251.25 177.71 252.58C177.8 253.24 177.87 253.91 177.95 254.6C178.02 255.27 178.07 255.95 178.11 256.63C178.18 258 178.14 259.38 178.03 260.75L178.04 260.76Z" fill="url(#paint76_linear_2013_3243)"/>
<path d="M179.77 261.6V262.09C179.77 262.4 179.75 262.73 179.74 263.06C179.73 263.38 179.7 263.7 179.68 264.02C179.64 264.34 179.61 264.66 179.56 264.97C179.37 266.25 179.03 267.42 178.66 268.51C178.28 269.63 177.85 270.65 177.47 271.73C177.09 272.79 176.74 273.88 176.46 275.01C176.26 275.83 176.08 276.66 175.96 277.51H175.29C175.43 276.49 175.63 275.5 175.91 274.57C176.24 273.4 176.63 272.29 177.04 271.23C177.46 270.17 177.91 269.17 178.32 268.13C178.71 267.09 179.06 266 179.26 264.81C179.48 263.63 179.55 262.37 179.52 261.12C179.47 258.61 179.05 256.15 178.6 253.76L177.88 250.16C177.76 249.55 177.64 248.94 177.53 248.33H177.9C178 248.88 178.08 249.44 178.18 250C178.39 251.21 178.62 252.41 178.83 253.63C179.05 254.83 179.27 256.06 179.44 257.3C179.63 258.54 179.74 259.81 179.78 261.1C179.78 261.26 179.79 261.42 179.79 261.58L179.77 261.6Z" fill="url(#paint77_linear_2013_3243)"/>
</g>
<g style="mix-blend-mode:multiply" opacity="0.3">
<path d="M227.22 251.41C227.19 253.31 226.91 255.15 226.57 256.92C226.54 257.09 226.5 257.28 226.46 257.44L226.34 256.25C226.58 254.65 226.76 253.03 226.74 251.41C226.74 251.03 226.73 250.66 226.71 250.28C226.66 249.32 226.55 248.37 226.4 247.43H226.94C226.99 247.8 227.05 248.19 227.09 248.58C227.15 249.14 227.19 249.71 227.21 250.28C227.22 250.66 227.22 251.03 227.21 251.41H227.22Z" fill="url(#paint78_linear_2013_3243)"/>
<path d="M246.27 260.41L245.96 261.69C245.86 261.25 245.74 260.83 245.59 260.44C245.44 260.03 245.26 259.64 245.06 259.25C244.66 258.5 244.19 257.81 243.74 257.1C243.27 256.39 242.81 255.65 242.39 254.81C241.99 253.95 241.67 253.02 241.42 252.03C241.26 251.45 241.15 250.86 241.06 250.27C240.98 249.84 240.93 249.41 240.88 248.99C240.82 248.46 240.78 247.94 240.75 247.41H241.09C241.12 247.9 241.18 248.38 241.25 248.86C241.32 249.33 241.39 249.8 241.48 250.27C241.58 250.77 241.7 251.26 241.83 251.74C242.09 252.65 242.41 253.51 242.8 254.28C243.18 255.05 243.64 255.74 244.11 256.42C244.58 257.11 245.07 257.81 245.51 258.62C245.73 259.03 245.92 259.45 246.11 259.91C246.17 260.07 246.22 260.23 246.27 260.4V260.41Z" fill="url(#paint79_linear_2013_3243)"/>
<path d="M238.93 277.52H238.079C238.069 276.76 238.01 275.99 237.92 275.24C237.8 274.33 237.629 273.42 237.389 272.55C236.939 270.81 236.309 269.18 235.609 267.65C234.889 266.12 234.079 264.68 233.249 263.24C232.419 261.79 231.559 260.36 230.769 258.82C229.959 257.28 229.209 255.59 228.689 253.71C228.429 252.77 228.219 251.77 228.109 250.73C228.099 250.57 228.079 250.43 228.069 250.27C227.989 249.39 227.989 248.48 228.089 247.59C228.089 247.53 228.099 247.48 228.109 247.42H228.67C228.67 247.52 228.659 247.61 228.639 247.71C228.589 248.57 228.639 249.44 228.769 250.27C228.769 250.35 228.79 250.42 228.8 250.48C228.93 251.39 229.17 252.27 229.43 253.11C229.7 253.95 230.009 254.76 230.359 255.53C230.709 256.3 231.089 257.03 231.489 257.75C232.289 259.2 233.159 260.57 234.009 262C234.869 263.43 235.709 264.91 236.459 266.55C237.209 268.19 237.86 269.98 238.31 271.94C238.53 272.91 238.7 273.93 238.81 274.95C238.89 275.8 238.919 276.65 238.899 277.51L238.93 277.52Z" fill="url(#paint80_linear_2013_3243)"/>
<path d="M241.6 276.39C241.6 276.76 241.6 277.15 241.6 277.52H241.04C241.07 277.26 241.08 276.98 241.09 276.7C241.12 275.77 241.04 274.83 240.88 273.93C240.56 272.11 239.93 270.45 239.19 268.95C238.82 268.19 238.44 267.47 238.02 266.77C237.6 266.07 237.17 265.38 236.75 264.68C235.89 263.27 235.05 261.82 234.34 260.15C233.99 259.32 233.68 258.43 233.44 257.49C233.32 257.02 233.22 256.54 233.13 256.05C233.05 255.55 233 255.04 232.99 254.51C232.98 253.98 233 253.44 233.09 252.93C233.18 252.4 233.35 251.92 233.55 251.51C233.75 251.09 233.99 250.74 234.24 250.44C234.29 250.38 234.34 250.32 234.39 250.27C234.59 250.04 234.8 249.82 235.02 249.62C235.54 249.12 236.08 248.67 236.55 248.1C236.72 247.89 236.88 247.66 237.03 247.42H237.33C237.14 247.8 236.93 248.12 236.7 248.42C236.21 249.05 235.68 249.55 235.17 250.07C235.1 250.14 235.04 250.21 234.97 250.28C234.78 250.47 234.61 250.68 234.44 250.91C234.22 251.2 234.01 251.54 233.85 251.91C233.7 252.28 233.56 252.69 233.5 253.12C233.43 253.55 233.42 254.01 233.45 254.47C233.49 255.39 233.68 256.31 233.91 257.18C234.15 258.05 234.44 258.88 234.78 259.66C235.47 261.22 236.31 262.62 237.17 263.99C238.03 265.36 238.91 266.76 239.68 268.34C239.87 268.75 240.06 269.16 240.24 269.6C240.13 269.15 240 268.71 239.86 268.29C239.62 267.49 239.32 266.76 238.98 266.04C238.65 265.32 238.29 264.61 237.93 263.88C237.58 263.15 237.24 262.4 236.94 261.58C236.64 260.76 236.39 259.86 236.25 258.9C236.11 257.95 236.11 256.94 236.22 255.99C236.34 255.04 236.53 254.12 236.78 253.28C237.04 252.42 237.34 251.63 237.67 250.86C237.75 250.67 237.82 250.47 237.91 250.28C238.15 249.72 238.42 249.17 238.64 248.6C238.8 248.21 238.94 247.83 239.06 247.43H239.37C239.24 247.93 239.08 248.42 238.91 248.88C238.73 249.35 238.54 249.82 238.36 250.28C238.23 250.59 238.12 250.9 237.99 251.21C237.7 251.99 237.43 252.78 237.2 253.59C236.98 254.41 236.8 255.26 236.73 256.12C236.65 256.99 236.65 257.86 236.78 258.7C236.91 259.53 237.13 260.33 237.43 261.08C237.72 261.84 238.06 262.55 238.41 263.26C238.76 263.97 239.13 264.68 239.48 265.42C239.83 266.16 240.15 266.96 240.42 267.82C240.94 269.52 241.28 271.35 241.46 273.21C241.51 273.83 241.55 274.45 241.58 275.07C241.61 275.51 241.62 275.95 241.61 276.39H241.6Z" fill="url(#paint81_linear_2013_3243)"/>
</g>
<path opacity="0.1" d="M228.43 263.17C227.98 268.74 228.13 273.66 228.46 277.52H228.38L227.2 265.11C227.2 265.11 227.2 265.11 227.2 265.1C227.43 263.49 227.77 261.8 228.25 260.04C230.89 270.19 236.19 269.07 236.88 277.52H233.95C232.51 273.17 230.25 271.98 228.43 263.17Z" fill="url(#paint82_radial_2013_3243)" style="mix-blend-mode:multiply"/>
<g style="mix-blend-mode:multiply" opacity="0.3">
<path d="M37.79 277.52H37.2199C37.1999 277.05 37.17 276.59 37.15 276.13L36.78 271.37L36.5999 268.99C36.5499 268.19 36.49 267.41 36.39 266.64C36.33 266.25 36.25 265.88 36.15 265.52C36.11 265.32 36.05 265.16 36 264.97C35.94 264.8 35.86 264.63 35.8 264.45C35.51 263.77 35.1399 263.15 34.7299 262.59C33.8999 261.46 32.94 260.53 32.02 259.53C31.78 259.27 31.5599 259.02 31.3299 258.75C31.0999 258.48 30.8899 258.19 30.6999 257.88C30.4999 257.57 30.3299 257.23 30.1899 256.85C30.0499 256.47 29.9699 256.05 29.9399 255.63C29.9199 255.2 29.9699 254.77 30.0699 254.36C30.1699 253.98 30.3199 253.62 30.4899 253.28C30.4999 253.28 30.51 253.26 30.52 253.24C30.71 252.9 30.91 252.59 31.13 252.3C31.36 252.01 31.5899 251.74 31.8199 251.49C31.9999 251.32 32.1699 251.15 32.3499 250.99C32.9899 250.41 33.66 249.9 34.29 249.36H35.2199C35.2199 249.36 35.1499 249.43 35.1199 249.46C34.5099 250.02 33.89 250.51 33.29 251C32.89 251.33 32.4899 251.65 32.1199 252.01C31.7299 252.39 31.35 252.8 31.04 253.28C30.98 253.37 30.9199 253.46 30.8599 253.56C30.5099 254.15 30.27 254.86 30.29 255.6C30.3 256.35 30.56 257.06 30.91 257.67C31.26 258.29 31.71 258.81 32.16 259.33C33.07 260.35 34.04 261.28 34.89 262.41C35.32 262.97 35.72 263.59 36.04 264.29C36.12 264.46 36.19 264.64 36.26 264.82C36.33 265.01 36.3999 265.18 36.4599 265.38C36.5699 265.76 36.6599 266.15 36.7299 266.55C36.8599 267.34 36.95 268.14 37.04 268.94L37.28 271.31C37.44 272.89 37.5899 274.46 37.7299 276.06C37.7799 276.54 37.8099 277.05 37.8399 277.54L37.79 277.52Z" fill="url(#paint83_linear_2013_3243)"/>
<path d="M38.6399 277.52H38.0898C38.0798 277.36 38.0599 277.21 38.0499 277.04C37.9099 275.55 37.7298 274.06 37.5798 272.55C37.4998 271.79 37.4399 271.03 37.4099 270.28C37.3899 269.9 37.3699 269.52 37.3599 269.13C37.3599 268.75 37.3599 268.37 37.3599 267.99C37.3599 267.22 37.3599 266.48 37.2799 265.75C37.2399 265.38 37.1798 265.02 37.0898 264.67C36.9898 264.32 36.8799 263.99 36.7599 263.66C36.4899 263.01 36.1399 262.41 35.7699 261.84C35.3999 261.28 35.0099 260.75 34.6099 260.2C34.2099 259.66 33.7999 259.11 33.5499 258.39C33.4199 258.03 33.3498 257.63 33.3398 257.22C33.3398 256.82 33.3799 256.41 33.4799 256.03C33.6899 255.27 34.0299 254.62 34.4299 254.05C34.6399 253.77 34.8698 253.51 35.0898 253.27C35.3198 253.03 35.5299 252.81 35.7499 252.58C36.2099 252.14 36.6399 251.69 37.0199 251.17C37.0399 251.13 37.0698 251.1 37.0898 251.06C37.4198 250.56 37.6799 250 37.8799 249.39C37.8799 249.38 37.8799 249.36 37.8799 249.35H38.4398C38.4098 249.45 38.3798 249.56 38.3398 249.65C38.2198 250.01 38.0999 250.37 37.9199 250.71L37.7899 250.96C37.7899 250.96 37.7599 251.04 37.7399 251.08C37.7099 251.12 37.6899 251.16 37.6599 251.19L37.5199 251.43L37.3699 251.65C36.9599 252.23 36.4799 252.67 36.0299 253.12C35.9699 253.17 35.9099 253.22 35.8499 253.28C35.4499 253.65 35.0498 254.02 34.6998 254.46C34.2998 254.95 33.9599 255.54 33.7599 256.2C33.6699 256.52 33.6099 256.87 33.5999 257.23C33.5999 257.58 33.6499 257.94 33.7399 258.26C33.9599 258.93 34.3499 259.48 34.7299 260.04C35.1199 260.58 35.4999 261.12 35.8899 261.69C36.2599 262.26 36.6199 262.87 36.8999 263.53C37.1899 264.2 37.4099 264.93 37.5099 265.69C37.6199 266.45 37.6399 267.22 37.6599 267.98C37.7399 270.99 38.2698 273.92 38.5798 276.95C38.5998 277.14 38.6199 277.32 38.6299 277.52H38.6399Z" fill="url(#paint84_linear_2013_3243)"/>
<path d="M44.9397 276.48V276.73L44.7397 277.51H43.4298C43.4598 277.01 43.4797 276.49 43.4697 275.97V275.45L43.4397 274.91C43.4097 274.55 43.3997 274.2 43.3597 273.84C43.3497 273.67 43.3297 273.48 43.3197 273.31L43.2698 272.76C43.2298 272.4 43.1798 272.05 43.1298 271.68C43.0198 270.97 42.9098 270.26 42.7598 269.54C42.6198 268.83 42.4598 268.12 42.2798 267.42C42.1798 267.07 42.0797 266.74 41.9797 266.39C41.8797 266.04 41.7798 265.7 41.6598 265.35C41.2298 263.98 40.7697 262.59 40.4697 261.1C40.3197 260.35 40.2197 259.58 40.1897 258.79C40.1797 258.4 40.1897 257.99 40.1997 257.59C40.2297 257.2 40.2797 256.79 40.3497 256.39C40.4397 256 40.5498 255.59 40.6798 255.22C40.8298 254.84 40.9997 254.47 41.2097 254.14C41.4097 253.82 41.6297 253.53 41.8297 253.26C42.0297 252.99 42.2498 252.74 42.4198 252.5C42.6098 252.26 42.7598 252.01 42.8898 251.78C42.9898 251.58 43.0798 251.37 43.1498 251.14C43.1598 251.1 43.1797 251.06 43.1897 251.03C43.3297 250.53 43.4097 249.96 43.4497 249.34H44.8998C44.8798 249.93 44.8198 250.55 44.6798 251.18C44.6398 251.38 44.5798 251.57 44.5198 251.77C44.3798 252.18 44.2097 252.6 43.9997 252.95C43.9297 253.05 43.8598 253.16 43.7898 253.25C43.6398 253.48 43.4797 253.67 43.3197 253.85C42.8597 254.36 42.3998 254.75 42.0398 255.19C41.8598 255.4 41.7097 255.64 41.5697 255.9C41.4297 256.17 41.2997 256.46 41.2097 256.76C40.9997 257.38 40.8897 258.07 40.8597 258.78C40.8397 259.13 40.8497 259.49 40.8597 259.85C40.8897 260.21 40.9297 260.56 40.9697 260.91C41.1997 262.34 41.6598 263.69 42.1598 265.03C42.3998 265.7 42.6598 266.38 42.8998 267.06C43.1298 267.75 43.3697 268.44 43.5897 269.14C44.0197 270.55 44.3998 272.02 44.6398 273.54C44.6998 273.93 44.7398 274.31 44.7898 274.69C44.8198 275.08 44.8698 275.47 44.8898 275.87L44.9198 276.45L44.9397 276.48Z" fill="url(#paint85_linear_2013_3243)"/>
</g>
<defs>
<linearGradient id="paint0_linear_2013_3243" x1="40.0704" y1="248.36" x2="40.0704" y2="277.52" gradientUnits="userSpaceOnUse">
<stop stop-color="#754449"/>
<stop offset="0.62" stop-color="#A04E40"/>
<stop offset="0.67" stop-color="#A44F40"/>
</linearGradient>
<linearGradient id="paint1_linear_2013_3243" x1="237.47" y1="247.43" x2="237.47" y2="-49.5595" gradientUnits="userSpaceOnUse">
<stop stop-color="#754449"/>
<stop offset="0.62" stop-color="#A04E40"/>
<stop offset="0.67" stop-color="#A44F40"/>
</linearGradient>
<linearGradient id="paint2_linear_2013_3243" x1="0" y1="106.11" x2="274" y2="106.11" gradientUnits="userSpaceOnUse">
<stop stop-color="#9F2A3B"/>
<stop offset="0.99" stop-color="#A73E43"/>
</linearGradient>
<linearGradient id="paint3_linear_2013_3243" x1="7.12012" y1="107.65" x2="106.78" y2="107.65" gradientUnits="userSpaceOnUse">
<stop stop-color="#621627"/>
<stop offset="0.99" stop-color="#53070D"/>
</linearGradient>
<linearGradient id="paint4_linear_2013_3243" x1="143.24" y1="250.18" x2="143.24" y2="25.3301" gradientUnits="userSpaceOnUse">
<stop stop-color="#754449"/>
<stop offset="0.62" stop-color="#A04E40"/>
<stop offset="0.67" stop-color="#A44F40"/>
</linearGradient>
<linearGradient id="paint5_linear_2013_3243" x1="257.31" y1="247.68" x2="257.31" y2="211.58" gradientUnits="userSpaceOnUse">
<stop offset="0.01" stop-color="#D7432A"/>
<stop offset="1" stop-color="#810331"/>
</linearGradient>
<linearGradient id="paint6_linear_2013_3243" x1="185.1" y1="248.55" x2="185.1" y2="189.98" gradientUnits="userSpaceOnUse">
<stop offset="0.01" stop-color="#D7432A"/>
<stop offset="1" stop-color="#810331"/>
</linearGradient>
<linearGradient id="paint7_linear_2013_3243" x1="182.2" y1="227.19" x2="182.2" y2="231.5" gradientUnits="userSpaceOnUse">
<stop stop-color="white"/>
<stop offset="1" stop-color="#7A2442"/>
</linearGradient>
<linearGradient id="paint8_linear_2013_3243" x1="192.72" y1="201.33" x2="192.72" y2="208.15" gradientUnits="userSpaceOnUse">
<stop stop-color="white"/>
<stop offset="1" stop-color="#7A2442"/>
</linearGradient>
<linearGradient id="paint9_linear_2013_3243" x1="193.09" y1="199.85" x2="193.09" y2="206.3" gradientUnits="userSpaceOnUse">
<stop stop-color="white"/>
<stop offset="1" stop-color="#7A2442"/>
</linearGradient>
<linearGradient id="paint10_linear_2013_3243" x1="175.8" y1="244.73" x2="175.8" y2="245.5" gradientUnits="userSpaceOnUse">
<stop stop-color="white"/>
<stop offset="1" stop-color="#7A2442"/>
</linearGradient>
<linearGradient id="paint11_linear_2013_3243" x1="189.2" y1="209.17" x2="189.2" y2="216.52" gradientUnits="userSpaceOnUse">
<stop stop-color="white"/>
<stop offset="1" stop-color="#7A2442"/>
</linearGradient>
<linearGradient id="paint12_linear_2013_3243" x1="186.581" y1="218.28" x2="186.581" y2="220.22" gradientUnits="userSpaceOnUse">
<stop stop-color="white"/>
<stop offset="1" stop-color="#7A2442"/>
</linearGradient>
<linearGradient id="paint13_linear_2013_3243" x1="187.47" y1="215.64" x2="187.47" y2="218.12" gradientUnits="userSpaceOnUse">
<stop stop-color="white"/>
<stop offset="1" stop-color="#7A2442"/>
</linearGradient>
<radialGradient id="paint14_radial_2013_3243" cx="0" cy="0" r="1" gradientUnits="userSpaceOnUse" gradientTransform="translate(183.62 226.53) scale(4.42954 3.8152)">
<stop stop-color="#7E748B"/>
<stop offset="1" stop-color="#631A61"/>
</radialGradient>
<radialGradient id="paint15_radial_2013_3243" cx="0" cy="0" r="1" gradientUnits="userSpaceOnUse" gradientTransform="translate(185.5 222.5) scale(5.39122 4.64346)">
<stop stop-color="#7E748B"/>
<stop offset="1" stop-color="#631A61"/>
</radialGradient>
<linearGradient id="paint16_linear_2013_3243" x1="112.21" y1="236.18" x2="112.21" y2="160.15" gradientUnits="userSpaceOnUse">
<stop stop-color="#CB5646"/>
<stop offset="0.99" stop-color="#FF823C"/>
</linearGradient>
<linearGradient id="paint17_linear_2013_3243" x1="108.61" y1="150.58" x2="108.61" y2="69.79" gradientUnits="userSpaceOnUse">
<stop offset="0.01" stop-color="#D7432A"/>
<stop offset="1" stop-color="#810331"/>
</linearGradient>
<radialGradient id="paint18_radial_2013_3243" cx="0" cy="0" r="1" gradientUnits="userSpaceOnUse" gradientTransform="translate(112.22 199.2) scale(32.6677 28.1372)">
<stop stop-color="#CD3D29"/>
<stop offset="1" stop-color="#B41F33"/>
</radialGradient>
<linearGradient id="paint19_linear_2013_3243" x1="127.07" y1="218.72" x2="127.07" y2="235.82" gradientUnits="userSpaceOnUse">
<stop stop-color="white"/>
<stop offset="1" stop-color="#7A2442"/>
</linearGradient>
<linearGradient id="paint20_linear_2013_3243" x1="125.07" y1="160.92" x2="125.07" y2="186.51" gradientUnits="userSpaceOnUse">
<stop stop-color="white"/>
<stop offset="1" stop-color="#7A2442"/>
</linearGradient>
<linearGradient id="paint21_linear_2013_3243" x1="106.41" y1="179.47" x2="106.41" y2="235.82" gradientUnits="userSpaceOnUse">
<stop stop-color="white"/>
<stop offset="1" stop-color="#7A2442"/>
</linearGradient>
<linearGradient id="paint22_linear_2013_3243" x1="113.23" y1="160.92" x2="113.23" y2="235.82" gradientUnits="userSpaceOnUse">
<stop stop-color="white"/>
<stop offset="1" stop-color="#7A2442"/>
</linearGradient>
<radialGradient id="paint23_radial_2013_3243" cx="0" cy="0" r="1" gradientUnits="userSpaceOnUse" gradientTransform="translate(104.46 219.33) scale(14.6486 12.617)">
<stop stop-color="#7E748B"/>
<stop offset="1" stop-color="#631A61"/>
</radialGradient>
<linearGradient id="paint24_linear_2013_3243" x1="102.09" y1="207.95" x2="102.09" y2="203.21" gradientUnits="userSpaceOnUse">
<stop stop-color="#CB5646"/>
<stop offset="0.99" stop-color="#FF823C"/>
</linearGradient>
<linearGradient id="paint25_linear_2013_3243" x1="24.8499" y1="250.18" x2="24.8499" y2="193.39" gradientUnits="userSpaceOnUse">
<stop offset="0.01" stop-color="#D7432A"/>
<stop offset="1" stop-color="#810331"/>
</linearGradient>
<linearGradient id="paint26_linear_2013_3243" x1="63.9404" y1="214.45" x2="63.9404" y2="172.76" gradientUnits="userSpaceOnUse">
<stop offset="0.01" stop-color="#D7432A"/>
<stop offset="1" stop-color="#810331"/>
</linearGradient>
<linearGradient id="paint27_linear_2013_3243" x1="48.6895" y1="194.17" x2="78.7295" y2="194.17" gradientUnits="userSpaceOnUse">
<stop offset="0.01" stop-color="#FFC49D"/>
<stop offset="1" stop-color="#FFECB3"/>
</linearGradient>
<linearGradient id="paint28_linear_2013_3243" x1="48.6895" y1="194.17" x2="66.1595" y2="194.17" gradientUnits="userSpaceOnUse">
<stop offset="0.01" stop-color="#FFC49D"/>
<stop offset="1" stop-color="#FFECB3"/>
</linearGradient>
<linearGradient id="paint29_linear_2013_3243" x1="60.7803" y1="194.17" x2="71.5203" y2="194.17" gradientUnits="userSpaceOnUse">
<stop offset="0.01" stop-color="#FFC49D"/>
<stop offset="1" stop-color="#FFECB3"/>
</linearGradient>
<linearGradient id="paint30_linear_2013_3243" x1="63.23" y1="212.63" x2="63.23" y2="176.54" gradientUnits="userSpaceOnUse">
<stop offset="0.01" stop-color="#D7432A"/>
<stop offset="1" stop-color="#810331"/>
</linearGradient>
<linearGradient id="paint31_linear_2013_3243" x1="112.2" y1="186.32" x2="112.2" y2="169.08" gradientUnits="userSpaceOnUse">
<stop offset="0.01" stop-color="#D7432A"/>
<stop offset="1" stop-color="#810331"/>
</linearGradient>
<linearGradient id="paint32_linear_2013_3243" x1="101.01" y1="177.94" x2="123.04" y2="177.94" gradientUnits="userSpaceOnUse">
<stop offset="0.01" stop-color="#FFC49D"/>
<stop offset="1" stop-color="#FFECB3"/>
</linearGradient>
<linearGradient id="paint33_linear_2013_3243" x1="101.01" y1="177.94" x2="113.41" y2="177.94" gradientUnits="userSpaceOnUse">
<stop offset="0.01" stop-color="#FFC49D"/>
<stop offset="1" stop-color="#FFECB3"/>
</linearGradient>
<linearGradient id="paint34_linear_2013_3243" x1="108.4" y1="177.94" x2="118.9" y2="177.94" gradientUnits="userSpaceOnUse">
<stop offset="0.01" stop-color="#FFC49D"/>
<stop offset="1" stop-color="#FFECB3"/>
</linearGradient>
<linearGradient id="paint35_linear_2013_3243" x1="111.27" y1="185.57" x2="111.27" y2="170.65" gradientUnits="userSpaceOnUse">
<stop offset="0.01" stop-color="#D7432A"/>
<stop offset="1" stop-color="#810331"/>
</linearGradient>
<linearGradient id="paint36_linear_2013_3243" x1="103.25" y1="208.64" x2="103.25" y2="0" gradientUnits="userSpaceOnUse">
<stop stop-color="#CB5646"/>
<stop offset="0.64" stop-color="#FF823C"/>
</linearGradient>
<linearGradient id="paint37_linear_2013_3243" x1="102.3" y1="234.01" x2="102.3" y2="242.47" gradientUnits="userSpaceOnUse">
<stop offset="0.01" stop-color="#D7432A"/>
<stop offset="1" stop-color="#810331"/>
</linearGradient>
<linearGradient id="paint38_linear_2013_3243" x1="109.95" y1="148.72" x2="109.95" y2="77.1401" gradientUnits="userSpaceOnUse">
<stop offset="0.01" stop-color="#FFC49D"/>
<stop offset="1" stop-color="#FFECB3"/>
</linearGradient>
<linearGradient id="paint39_linear_2013_3243" x1="102.03" y1="148.72" x2="102.03" y2="91.9299" gradientUnits="userSpaceOnUse">
<stop offset="0.01" stop-color="#FFC49D"/>
<stop offset="1" stop-color="#FFECB3"/>
</linearGradient>
<linearGradient id="paint40_linear_2013_3243" x1="113.219" y1="148.72" x2="113.219" y2="80.8301" gradientUnits="userSpaceOnUse">
<stop offset="0.01" stop-color="#FFC49D"/>
<stop offset="1" stop-color="#FFECB3"/>
</linearGradient>
<linearGradient id="paint41_linear_2013_3243" x1="120.25" y1="148.72" x2="120.25" y2="78.0701" gradientUnits="userSpaceOnUse">
<stop offset="0.01" stop-color="#FFC49D"/>
<stop offset="1" stop-color="#FFECB3"/>
</linearGradient>
<linearGradient id="paint42_linear_2013_3243" x1="108.37" y1="146.86" x2="108.37" y2="151.16" gradientUnits="userSpaceOnUse">
<stop offset="0.01" stop-color="#D7432A"/>
<stop offset="1" stop-color="#810331"/>
</linearGradient>
<linearGradient id="paint43_linear_2013_3243" x1="108.31" y1="146.86" x2="108.31" y2="71.0898" gradientUnits="userSpaceOnUse">
<stop offset="0.01" stop-color="#D7432A"/>
<stop offset="1" stop-color="#810331"/>
</linearGradient>
<linearGradient id="paint44_linear_2013_3243" x1="173.16" y1="-49.5605" x2="173.16" y2="-49.5605" gradientUnits="userSpaceOnUse">
<stop stop-color="#754449"/>
<stop offset="0.62" stop-color="#A04E40"/>
<stop offset="0.67" stop-color="#A44F40"/>
</linearGradient>
<linearGradient id="paint45_linear_2013_3243" x1="67.5303" y1="147.75" x2="150.55" y2="147.75" gradientUnits="userSpaceOnUse">
<stop offset="0.01" stop-color="#FFC49D"/>
<stop offset="1" stop-color="#FFECB3"/>
</linearGradient>
<linearGradient id="paint46_linear_2013_3243" x1="29.6797" y1="235.82" x2="174.92" y2="235.82" gradientUnits="userSpaceOnUse">
<stop offset="0.01" stop-color="#FFC49D"/>
<stop offset="1" stop-color="#FFECB3"/>
</linearGradient>
<linearGradient id="paint47_linear_2013_3243" x1="157.5" y1="214.45" x2="157.5" y2="172.76" gradientUnits="userSpaceOnUse">
<stop offset="0.01" stop-color="#D7432A"/>
<stop offset="1" stop-color="#810331"/>
</linearGradient>
<linearGradient id="paint48_linear_2013_3243" x1="142.25" y1="194.17" x2="172.29" y2="194.17" gradientUnits="userSpaceOnUse">
<stop offset="0.01" stop-color="#FFC49D"/>
<stop offset="1" stop-color="#FFECB3"/>
</linearGradient>
<linearGradient id="paint49_linear_2013_3243" x1="142.25" y1="194.17" x2="158.29" y2="194.17" gradientUnits="userSpaceOnUse">
<stop offset="0.01" stop-color="#FFC49D"/>
<stop offset="1" stop-color="#FFECB3"/>
</linearGradient>
<linearGradient id="paint50_linear_2013_3243" x1="155.53" y1="194.17" x2="163.55" y2="194.17" gradientUnits="userSpaceOnUse">
<stop offset="0.01" stop-color="#FFC49D"/>
<stop offset="1" stop-color="#FFECB3"/>
</linearGradient>
<linearGradient id="paint51_linear_2013_3243" x1="156.79" y1="212.63" x2="156.79" y2="176.54" gradientUnits="userSpaceOnUse">
<stop offset="0.01" stop-color="#D7432A"/>
<stop offset="1" stop-color="#810331"/>
</linearGradient>
<linearGradient id="paint52_linear_2013_3243" x1="157.22" y1="214.45" x2="157.22" y2="218.75" gradientUnits="userSpaceOnUse">
<stop offset="0.01" stop-color="#D7432A"/>
<stop offset="1" stop-color="#810331"/>
</linearGradient>
<linearGradient id="paint53_linear_2013_3243" x1="135.55" y1="215.17" x2="178.89" y2="215.17" gradientUnits="userSpaceOnUse">
<stop offset="0.01" stop-color="#FFC49D"/>
<stop offset="1" stop-color="#FFECB3"/>
</linearGradient>
<linearGradient id="paint54_linear_2013_3243" x1="112.98" y1="110.32" x2="216.75" y2="110.32" gradientUnits="userSpaceOnUse">
<stop stop-color="#CB5646"/>
<stop offset="0.99" stop-color="#FF823C"/>
</linearGradient>
<linearGradient id="paint55_linear_2013_3243" x1="142.03" y1="121.94" x2="233.99" y2="121.94" gradientUnits="userSpaceOnUse">
<stop stop-color="#CB5646"/>
<stop offset="0.99" stop-color="#FF823C"/>
</linearGradient>
<linearGradient id="paint56_linear_2013_3243" x1="167.32" y1="133.13" x2="252.13" y2="133.13" gradientUnits="userSpaceOnUse">
<stop stop-color="#CB5646"/>
<stop offset="0.99" stop-color="#FF823C"/>
</linearGradient>
<linearGradient id="paint57_linear_2013_3243" x1="188.01" y1="141.79" x2="264.6" y2="141.79" gradientUnits="userSpaceOnUse">
<stop stop-color="#CB5646"/>
<stop offset="0.99" stop-color="#FF823C"/>
</linearGradient>
<linearGradient id="paint58_linear_2013_3243" x1="202.2" y1="148.45" x2="202.2" y2="52.73" gradientUnits="userSpaceOnUse">
<stop offset="0.01" stop-color="#B87277"/>
<stop offset="1" stop-color="#E17F49"/>
</linearGradient>
<linearGradient id="paint59_linear_2013_3243" x1="201.78" y1="52.73" x2="201.78" y2="41.27" gradientUnits="userSpaceOnUse">
<stop offset="0.01" stop-color="#B87277"/>
<stop offset="1" stop-color="#E17F49"/>
</linearGradient>
<linearGradient id="paint60_linear_2013_3243" x1="112.21" y1="195.89" x2="112.21" y2="193.39" gradientUnits="userSpaceOnUse">
<stop stop-color="#CB5646"/>
<stop offset="0.99" stop-color="#FF823C"/>
</linearGradient>
<linearGradient id="paint61_linear_2013_3243" x1="22.3607" y1="197.75" x2="22.3607" y2="198.38" gradientUnits="userSpaceOnUse">
<stop stop-color="white"/>
<stop offset="1" stop-color="#7A2442"/>
</linearGradient>
<linearGradient id="paint62_linear_2013_3243" x1="21.9601" y1="200.49" x2="21.9601" y2="200.77" gradientUnits="userSpaceOnUse">
<stop stop-color="white"/>
<stop offset="1" stop-color="#7A2442"/>
</linearGradient>
<linearGradient id="paint63_linear_2013_3243" x1="25.47" y1="225.44" x2="25.47" y2="226.36" gradientUnits="userSpaceOnUse">
<stop stop-color="white"/>
<stop offset="1" stop-color="#7A2442"/>
</linearGradient>
<linearGradient id="paint64_linear_2013_3243" x1="25.6008" y1="226.01" x2="25.6008" y2="227.04" gradientUnits="userSpaceOnUse">
<stop stop-color="white"/>
<stop offset="1" stop-color="#7A2442"/>
</linearGradient>
<linearGradient id="paint65_linear_2013_3243" x1="28.5001" y1="240.45" x2="28.5001" y2="244.05" gradientUnits="userSpaceOnUse">
<stop stop-color="white"/>
<stop offset="1" stop-color="#7A2442"/>
</linearGradient>
<linearGradient id="paint66_linear_2013_3243" x1="24.1104" y1="218.18" x2="24.1104" y2="219.33" gradientUnits="userSpaceOnUse">
<stop stop-color="white"/>
<stop offset="1" stop-color="#7A2442"/>
</linearGradient>
<linearGradient id="paint67_linear_2013_3243" x1="29.6804" y1="247.94" x2="29.6804" y2="248.44" gradientUnits="userSpaceOnUse">
<stop stop-color="white"/>
<stop offset="1" stop-color="#7A2442"/>
</linearGradient>
<linearGradient id="paint68_linear_2013_3243" x1="29.96" y1="249.36" x2="29.96" y2="249.9" gradientUnits="userSpaceOnUse">
<stop stop-color="white"/>
<stop offset="1" stop-color="#7A2442"/>
</linearGradient>
<linearGradient id="paint69_linear_2013_3243" x1="22.3704" y1="206.01" x2="22.3704" y2="212.02" gradientUnits="userSpaceOnUse">
<stop stop-color="white"/>
<stop offset="1" stop-color="#7A2442"/>
</linearGradient>
<linearGradient id="paint70_linear_2013_3243" x1="22.81" y1="208.5" x2="22.81" y2="214.16" gradientUnits="userSpaceOnUse">
<stop stop-color="white"/>
<stop offset="1" stop-color="#7A2442"/>
</linearGradient>
<linearGradient id="paint71_linear_2013_3243" x1="23.0204" y1="210.27" x2="23.0204" y2="214.8" gradientUnits="userSpaceOnUse">
<stop stop-color="white"/>
<stop offset="1" stop-color="#7A2442"/>
</linearGradient>
<radialGradient id="paint72_radial_2013_3243" cx="0" cy="0" r="1" gradientUnits="userSpaceOnUse" gradientTransform="translate(21.3002 205.3) scale(3.25416 2.80282)">
<stop stop-color="#7E748B"/>
<stop offset="1" stop-color="#631A61"/>
</radialGradient>
<linearGradient id="paint73_linear_2013_3243" x1="53.4699" y1="214.45" x2="53.4699" y2="218.75" gradientUnits="userSpaceOnUse">
<stop offset="0.01" stop-color="#D7432A"/>
<stop offset="1" stop-color="#810331"/>
</linearGradient>
<linearGradient id="paint74_linear_2013_3243" x1="17.8799" y1="215.17" x2="89.0798" y2="215.17" gradientUnits="userSpaceOnUse">
<stop offset="0.01" stop-color="#FFC49D"/>
<stop offset="1" stop-color="#FFECB3"/>
</linearGradient>
<linearGradient id="paint75_linear_2013_3243" x1="169.49" y1="248.36" x2="169.49" y2="277.52" gradientUnits="userSpaceOnUse">
<stop stop-color="white"/>
<stop offset="1" stop-color="#7A2442"/>
</linearGradient>
<linearGradient id="paint76_linear_2013_3243" x1="174.58" y1="248.36" x2="174.58" y2="277.52" gradientUnits="userSpaceOnUse">
<stop stop-color="white"/>
<stop offset="1" stop-color="#7A2442"/>
</linearGradient>
<linearGradient id="paint77_linear_2013_3243" x1="177.53" y1="248.36" x2="177.53" y2="277.52" gradientUnits="userSpaceOnUse">
<stop stop-color="white"/>
<stop offset="1" stop-color="#7A2442"/>
</linearGradient>
<linearGradient id="paint78_linear_2013_3243" x1="226.79" y1="247.42" x2="226.79" y2="257.44" gradientUnits="userSpaceOnUse">
<stop stop-color="white"/>
<stop offset="1" stop-color="#7A2442"/>
</linearGradient>
<linearGradient id="paint79_linear_2013_3243" x1="243.51" y1="247.42" x2="243.51" y2="261.69" gradientUnits="userSpaceOnUse">
<stop stop-color="white"/>
<stop offset="1" stop-color="#7A2442"/>
</linearGradient>
<linearGradient id="paint80_linear_2013_3243" x1="233.479" y1="247.42" x2="233.479" y2="277.52" gradientUnits="userSpaceOnUse">
<stop stop-color="white"/>
<stop offset="1" stop-color="#7A2442"/>
</linearGradient>
<linearGradient id="paint81_linear_2013_3243" x1="237.28" y1="247.42" x2="237.28" y2="277.52" gradientUnits="userSpaceOnUse">
<stop stop-color="white"/>
<stop offset="1" stop-color="#7A2442"/>
</linearGradient>
<radialGradient id="paint82_radial_2013_3243" cx="0" cy="0" r="1" gradientUnits="userSpaceOnUse" gradientTransform="translate(232.03 268.78) scale(7.95567 6.85231)">
<stop stop-color="#7E748B"/>
<stop offset="1" stop-color="#631A61"/>
</radialGradient>
<linearGradient id="paint83_linear_2013_3243" x1="33.8499" y1="249.36" x2="33.8499" y2="277.52" gradientUnits="userSpaceOnUse">
<stop stop-color="white"/>
<stop offset="1" stop-color="#7A2442"/>
</linearGradient>
<linearGradient id="paint84_linear_2013_3243" x1="35.9799" y1="249.36" x2="35.9799" y2="277.52" gradientUnits="userSpaceOnUse">
<stop stop-color="white"/>
<stop offset="1" stop-color="#7A2442"/>
</linearGradient>
<linearGradient id="paint85_linear_2013_3243" x1="42.5697" y1="249.36" x2="42.5697" y2="277.52" gradientUnits="userSpaceOnUse">
<stop stop-color="white"/>
<stop offset="1" stop-color="#7A2442"/>
</linearGradient>
</defs>
</svg>
