<svg width="119" height="126" viewBox="0 0 119 126" fill="none" xmlns="http://www.w3.org/2000/svg">
<path d="M67.1001 117.662V126H59.3801L58.6201 117.662H67.1001Z" fill="#400125"/>
<path d="M67.1003 117.662H62.8604V126H67.1003V117.662Z" fill="#B67B8A"/>
<path d="M111.57 88.9521C111.57 87.9981 110.79 87.2271 109.84 87.2271C110.79 87.2271 111.57 86.4561 111.57 85.5031C111.57 84.5491 110.79 83.7781 109.84 83.7781L71.4199 75.8091L71.6499 110.57L109.84 111.386C110.8 111.386 111.57 110.615 111.57 109.662C111.57 108.708 110.8 107.937 109.84 107.937C110.8 107.937 111.57 107.166 111.57 106.213C111.57 105.259 110.8 104.488 109.84 104.488C110.8 104.488 111.57 103.717 111.57 102.764C111.57 101.81 110.8 101.039 109.84 101.039C110.8 101.039 111.57 100.268 111.57 99.3141C111.57 98.3611 110.8 97.5901 109.84 97.5901C110.8 97.5901 111.57 96.8191 111.57 95.8651C111.57 94.9121 110.8 94.1411 109.84 94.1411C110.8 94.1411 111.57 93.3701 111.57 92.4161C111.57 91.4631 110.8 90.6921 109.84 90.6921C110.8 90.6921 111.57 89.92 111.57 88.967V88.9521Z" fill="url(#paint0_linear_2013_3244)"/>
<path d="M109.84 90.676C110.79 90.676 111.57 91.451 111.57 92.405C111.57 92.792 111.44 93.149 111.22 93.434C110.91 93.856 110.41 94.129 109.84 94.129C110.12 94.129 110.39 94.198 110.62 94.316C111.18 94.6 111.57 95.182 111.57 95.854C111.57 96.807 110.79 97.579 109.84 97.579C110.79 97.579 111.57 98.353 111.57 99.307C111.57 100.26 110.79 101.032 109.84 101.032C110.79 101.032 111.57 101.806 111.57 102.76C111.57 103.713 110.79 104.484 109.84 104.484C110.79 104.484 111.57 105.259 111.57 106.213C111.57 107.166 110.79 107.937 109.84 107.937C110.79 107.937 111.57 108.712 111.57 109.666C111.57 110.619 110.79 111.39 109.84 111.39L71.6501 110.574V110.558L71.6201 106.464V106.441L71.5901 102.338V102.323L71.5602 98.217V98.205L71.5402 94.091L71.5101 89.97L71.4801 85.848L71.4601 81.723L71.4401 79.923L71.4302 77.602V76.952L71.4102 75.812L87.2701 79.102L109.84 83.786C110.79 83.786 111.56 84.557 111.56 85.51C111.56 85.579 111.56 85.643 111.55 85.708C111.45 86.566 110.72 87.235 109.84 87.235C110.79 87.235 111.56 88.01 111.56 88.96C111.56 89.909 110.79 90.688 109.84 90.688V90.676Z" fill="url(#paint1_linear_2013_3244)"/>
<path d="M13.9999 78.1109L2.58984 77.3359L35.5999 6.00586L45.4598 16.7328L13.9999 78.1109Z" fill="url(#paint2_linear_2013_3244)"/>
<path d="M71.4197 75.8049V110.114H12.9596C12.5996 110.399 12.1497 110.566 11.6697 110.566C10.5297 110.566 9.60962 109.647 9.60962 108.508C9.60962 107.459 10.3796 106.597 11.3896 106.464V106.422C10.3796 106.289 9.60962 105.431 9.60962 104.382C9.60962 103.892 9.77958 103.444 10.0696 103.091C10.3896 102.688 10.8596 102.415 11.3896 102.342V102.301C10.7596 102.217 10.2297 101.852 9.90967 101.336C9.71967 101.024 9.60962 100.656 9.60962 100.261C9.60962 99.2159 10.3796 98.3539 11.3896 98.2209V98.179C10.3796 98.046 9.60962 97.1839 9.60962 96.1389C9.60962 95.0949 10.3796 94.2289 11.3896 94.0959V94.054C10.3796 93.921 9.60962 93.0619 9.60962 92.0139C9.60962 90.9659 10.3796 90.1069 11.3896 89.9739V89.9319C10.3796 89.7989 9.60962 88.9369 9.60962 87.8889C9.60962 86.8399 10.3796 85.9819 11.3896 85.8489V85.8069C10.3796 85.6739 9.60962 84.812 9.60962 83.767C9.60962 82.985 10.0397 82.3089 10.6797 81.9589C10.8897 81.8409 11.1396 81.7619 11.3896 81.7269V81.6859C10.3796 81.5529 9.59961 80.69 9.59961 79.642C9.59961 78.947 9.9396 78.335 10.4696 77.963C10.7396 77.773 11.0496 77.6479 11.3896 77.6019V75.7939H71.4097L71.4197 75.8049Z" fill="url(#paint3_linear_2013_3244)"/>
<g style="mix-blend-mode:multiply" opacity="0.5">
<path d="M11.9395 81.3198L68.6796 81.0088L17.1495 82.1518L11.9395 81.3198Z" fill="#B67B8A"/>
</g>
<g style="mix-blend-mode:multiply" opacity="0.5">
<path d="M11.6699 85.6957L52.6799 84.4277L69.0399 85.6957H11.6699Z" fill="#B67B8A"/>
</g>
<g style="mix-blend-mode:multiply" opacity="0.5">
<path d="M11.3896 89.94L71.3796 88.667L71.4197 89.567L11.3896 89.94Z" fill="#B67B8A"/>
</g>
<g style="mix-blend-mode:multiply" opacity="0.5">
<path d="M71.3796 93.385L39.5197 92.667L57.5896 93.598L11.3896 94.099L71.3796 94.597V93.385Z" fill="#B67B8A"/>
</g>
<g style="mix-blend-mode:multiply" opacity="0.5">
<path d="M11.3896 98.1828L26.3097 97.4038L71.3796 99.0678L11.3896 98.1828Z" fill="#B67B8A"/>
</g>
<g style="mix-blend-mode:multiply" opacity="0.5">
<path d="M11.3201 102.426V102.384C10.6901 102.3 10.1501 101.936 9.83008 101.419L61.3301 102.213L9.9801 103.178C10.3101 102.775 10.7802 102.502 11.3102 102.429L11.3201 102.426Z" fill="#B67B8A"/>
</g>
<g style="mix-blend-mode:multiply" opacity="0.5">
<path d="M71.3004 105.369L13.4004 106.448H71.3804L71.3004 105.369Z" fill="#B67B8A"/>
</g>
<path d="M13.7303 83.775C13.7303 84.914 12.8104 85.8369 11.6704 85.8369C10.5304 85.8369 9.61035 84.914 9.61035 83.775C9.61035 82.635 10.5304 81.7119 11.6704 81.7119C12.8104 81.7119 13.7303 82.635 13.7303 83.775Z" fill="url(#paint4_linear_2013_3244)"/>
<path d="M13.7303 79.6528C13.7303 80.7928 12.8104 81.7158 11.6704 81.7158C10.5304 81.7158 9.61035 80.7928 9.61035 79.6528C9.61035 78.5138 10.5304 77.5908 11.6704 77.5908C12.8104 77.5908 13.7303 78.5138 13.7303 79.6528Z" fill="url(#paint5_linear_2013_3244)"/>
<path d="M13.7303 92.022C13.7303 93.161 12.8104 94.084 11.6704 94.084C10.5304 94.084 9.61035 93.161 9.61035 92.022C9.61035 90.882 10.5304 89.959 11.6704 89.959C12.8104 89.959 13.7303 90.882 13.7303 92.022Z" fill="url(#paint6_linear_2013_3244)"/>
<path d="M13.7303 87.896C13.7303 89.035 12.8104 89.958 11.6704 89.958C10.5304 89.958 9.61035 89.035 9.61035 87.896C9.61035 86.756 10.5304 85.833 11.6704 85.833C12.8104 85.833 13.7303 86.756 13.7303 87.896Z" fill="url(#paint7_linear_2013_3244)"/>
<path d="M13.7303 100.264C13.7303 101.403 12.8104 102.326 11.6704 102.326C10.5304 102.326 9.61035 101.403 9.61035 100.264C9.61035 99.1242 10.5304 98.2012 11.6704 98.2012C12.8104 98.2012 13.7303 99.1242 13.7303 100.264Z" fill="url(#paint8_linear_2013_3244)"/>
<path d="M13.7303 96.1431C13.7303 97.2821 12.8104 98.2051 11.6704 98.2051C10.5304 98.2051 9.61035 97.2821 9.61035 96.1431C9.61035 95.0031 10.5304 94.0801 11.6704 94.0801C12.8104 94.0801 13.7303 95.0031 13.7303 96.1431Z" fill="url(#paint9_linear_2013_3244)"/>
<path d="M13.7303 108.507C13.7303 109.647 12.8104 110.57 11.6704 110.57C10.5304 110.57 9.61035 109.647 9.61035 108.507C9.61035 107.367 10.5304 106.444 11.6704 106.444C12.8104 106.444 13.7303 107.367 13.7303 108.507Z" fill="url(#paint10_linear_2013_3244)"/>
<path d="M13.7303 104.386C13.7303 105.525 12.8104 106.449 11.6704 106.449C10.5304 106.449 9.61035 105.525 9.61035 104.386C9.61035 103.246 10.5304 102.323 11.6704 102.323C12.8104 102.323 13.7303 103.246 13.7303 104.386Z" fill="url(#paint11_linear_2013_3244)"/>
<path d="M32.9904 110.163H21.1604L20.8203 84.025L33.9304 83.7739L32.9904 110.163Z" fill="url(#paint12_linear_2013_3244)"/>
<path d="M21.1599 110.163H19.9899L19.3398 83.053L35.3398 82.707L33.9299 110.163H32.9899L33.9299 84.1321L20.8198 84.3781L21.1599 110.163Z" fill="url(#paint13_linear_2013_3244)"/>
<path d="M32.5903 85.556L23.1504 85.651V98.206H22.5703V85.419L33.0404 85.229L32.4104 98.206H32.0604L32.5903 85.556Z" fill="url(#paint14_linear_2013_3244)"/>
<path d="M33.9304 84.1309V83.7739L20.5703 84.1089L20.9503 110.122L21.1604 110.163L20.8203 84.3779L33.9304 84.1309Z" fill="url(#paint15_linear_2013_3244)"/>
<path fill-rule="evenodd" clip-rule="evenodd" d="M32.4205 98.7642L32.0905 99.0262L31.9905 102.156L22.5804 102.163L22.4805 99.0262V102.483L32.4205 102.452V98.7642Z" fill="url(#paint16_linear_2013_3244)"/>
<path fill-rule="evenodd" clip-rule="evenodd" d="M32.4205 98.7642L32.0905 99.0262H22.4805L22.6605 98.7642H32.4205Z" fill="url(#paint17_linear_2013_3244)"/>
<path fill-rule="evenodd" clip-rule="evenodd" d="M32.2302 103.28L32.0802 103.694L32.0303 108.629L27.7502 108.644L27.7002 103.694V109.142L32.2302 109.096V103.28Z" fill="url(#paint18_linear_2013_3244)"/>
<path fill-rule="evenodd" clip-rule="evenodd" d="M32.2302 103.28L32.0802 103.694H27.7002L27.7903 103.28H32.2302Z" fill="url(#paint19_linear_2013_3244)"/>
<path d="M23.53 100.257L22.98 99.938L22.25 100.511L22.21 101.491L22.58 100.728L23.53 100.257Z" fill="url(#paint20_linear_2013_3244)"/>
<path opacity="0.5" d="M23.1301 100.188L23.5302 100.257L23.2601 100.716L22.7401 100.944L22.0801 101.924L22.2501 100.511L23.1301 100.188Z" fill="url(#paint21_linear_2013_3244)" style="mix-blend-mode:multiply"/>
<path d="M21.1599 110.163H19.9899L19.3398 83.053L35.3398 82.707L33.9299 110.163H32.9899L33.9299 84.1321L20.8198 84.3781L21.1599 110.163Z" fill="url(#paint22_linear_2013_3244)"/>
<path fill-rule="evenodd" clip-rule="evenodd" d="M32.4205 98.7642L32.0905 99.0262H22.4805L22.6605 98.7642H32.4205Z" fill="white"/>
<path fill-rule="evenodd" clip-rule="evenodd" d="M32.2302 103.28L32.0802 103.694H27.7002L27.7903 103.28H32.2302Z" fill="white"/>
<path opacity="0.5" fill-rule="evenodd" clip-rule="evenodd" d="M31.9905 102.156L32.4205 102.453L22.4805 102.483L22.5804 102.164L31.9905 102.156Z" fill="#400125"/>
<path opacity="0.5" fill-rule="evenodd" clip-rule="evenodd" d="M32.0303 108.629L32.2302 109.096L27.7002 109.142L27.7502 108.644L32.0303 108.629Z" fill="#400125"/>
<path fill-rule="evenodd" clip-rule="evenodd" d="M27.0005 103.28L26.8505 103.694L26.8105 108.629L22.5205 108.644L22.4805 103.694V109.142L27.0005 109.096V103.28Z" fill="url(#paint23_linear_2013_3244)"/>
<path fill-rule="evenodd" clip-rule="evenodd" d="M27.0005 103.28L26.8505 103.694H22.4805L22.5605 103.28H27.0005Z" fill="white"/>
<path opacity="0.5" fill-rule="evenodd" clip-rule="evenodd" d="M26.8105 108.629L27.0005 109.096L22.4805 109.142L22.5205 108.644L26.8105 108.629Z" fill="#400125"/>
<path d="M19.9901 110.164L19.6501 110.141L18.9102 82.761L35.6401 82.479L34.2101 110.152L33.9302 110.164L35.3401 82.707L19.3401 83.053L19.9901 110.164Z" fill="url(#paint24_linear_2013_3244)"/>
<path opacity="0.5" d="M23.1298 85.651L32.5797 85.556L33.0198 85.229L22.5498 85.419L23.1298 85.651Z" fill="#400125"/>
<path d="M32.5798 85.5562L32.2599 93.4261L32.0599 98.2051H23.1499L23.1399 91.4591L23.1299 85.6541L23.6199 85.6471L24.4498 85.6391L25.5299 85.6281L28.2499 85.6011L32.5798 85.5562Z" fill="#400125"/>
<g style="mix-blend-mode:overlay" opacity="0.3">
<path d="M28.0099 98.206H25.5199L23.1399 91.459L23.1299 85.655L23.6199 85.647L28.0099 98.206Z" fill="white"/>
</g>
<g style="mix-blend-mode:overlay" opacity="0.3">
<path d="M30.7903 98.205H29.0702L24.4502 85.6389L25.5303 85.6279L30.7903 98.205Z" fill="white"/>
</g>
<g style="mix-blend-mode:overlay" opacity="0.3">
<path d="M32.58 85.5562L32.26 93.4261L28.25 85.6011L32.58 85.5562Z" fill="white"/>
</g>
<path d="M47.8301 84.793L48.1501 101.302H67.7401L67.5602 84.793H47.8301Z" fill="url(#paint25_linear_2013_3244)"/>
<path d="M65.9199 100.098H49.1898L48.9899 89.9891L48.9199 85.9971H65.7599L65.9199 100.098Z" fill="#400125"/>
<g style="mix-blend-mode:overlay" opacity="0.3">
<path d="M56.0499 100.098H52.7999L48.9899 89.9891L48.9199 85.9971H49.8899L56.0499 100.098Z" fill="white"/>
</g>
<path d="M48.9203 86.001H48.5303L48.7603 100.386H65.9203V100.098H49.1902L48.9203 86.001Z" fill="#B67B8A"/>
<g style="mix-blend-mode:overlay" opacity="0.3">
<path d="M60.9003 100.098H59.4303L54.0303 85.9971H57.9003L60.9003 100.098Z" fill="white"/>
</g>
<g style="mix-blend-mode:overlay" opacity="0.3">
<path d="M62.5105 100.098H61.6205L58.7305 85.9971H60.0804L62.5105 100.098Z" fill="white"/>
</g>
<path d="M65.66 104.283H45.21V106.023H65.66V104.283Z" fill="url(#paint26_linear_2013_3244)"/>
<path d="M46.2797 104.386H45.0996V110.114H46.2797V104.386Z" fill="url(#paint27_linear_2013_3244)"/>
<path d="M55.97 104.386H54.79V110.114H55.97V104.386Z" fill="url(#paint28_linear_2013_3244)"/>
<path d="M46.2798 104.386H45.7998V110.114H46.2798V104.386Z" fill="#B67B8A"/>
<path d="M55.9602 104.386H55.4902V110.114H55.9602V104.386Z" fill="#B67B8A"/>
<path d="M74.3196 75.805H11.3896L17.6396 63.505L18.0796 62.643L24.3997 50.199L24.9496 49.101L31.0597 37.082L31.4197 36.356L34.0197 31.236L34.8796 29.546L37.9496 23.494L38.2396 22.932L41.2396 17.021L44.0197 21.971L44.8796 23.494L52.5896 37.192L52.6896 37.374L55.8896 43.05L56.6996 44.493L60.9696 52.083L61.6697 53.329L62.8596 55.444L63.9297 57.348L64.5096 58.373L71.3496 70.533L71.7697 71.285L74.3196 75.805Z" fill="url(#paint29_linear_2013_3244)"/>
<g style="mix-blend-mode:multiply" opacity="0.5">
<path d="M46.6696 30.526L34.0195 31.236L34.8795 29.546L40.5596 29.375L37.7395 30.283L46.6696 30.526Z" fill="#B67B8A"/>
</g>
<g style="mix-blend-mode:multiply" opacity="0.5">
<path d="M48.9203 23.4939H37.9502L38.2402 22.9319L44.0303 21.9709L45.4702 21.7349L48.9203 23.4939Z" fill="#B67B8A"/>
</g>
<g style="mix-blend-mode:multiply" opacity="0.5">
<path d="M52.7004 37.3751L31.0605 37.082L31.4205 36.3571L40.0105 35.373L52.5905 37.1931L52.7004 37.3751Z" fill="#B67B8A"/>
</g>
<g style="mix-blend-mode:multiply" opacity="0.5">
<path d="M56.7002 44.4931L31.9502 42.8291L55.8903 43.0491L56.7002 44.4931Z" fill="#B67B8A"/>
</g>
<g style="mix-blend-mode:multiply" opacity="0.5">
<path d="M61.6703 53.3288L25.4902 51.8398L60.9702 52.0828L61.6703 53.3288Z" fill="#B67B8A"/>
</g>
<g style="mix-blend-mode:multiply" opacity="0.5">
<path d="M40.8604 49.8L24.4004 50.1981L24.9503 49.1011L40.8604 49.8Z" fill="#B67B8A"/>
</g>
<g style="mix-blend-mode:multiply" opacity="0.5">
<path d="M54.4197 62.6431L17.6396 63.5051L18.0796 62.6431H54.4197Z" fill="#B67B8A"/>
</g>
<g style="mix-blend-mode:multiply" opacity="0.5">
<path d="M71.7799 71.2842L37.1299 70.5322H71.3499L71.7799 71.2842Z" fill="#B67B8A"/>
</g>
<path d="M13.3999 75.171L42.0698 18.643L41.2399 17.021L11.6699 75.171H13.3999Z" fill="url(#paint30_linear_2013_3244)"/>
<path d="M58.2302 100.264H57.3302L56.9502 85.8369H58.2302V100.264Z" fill="url(#paint31_linear_2013_3244)"/>
<path d="M66.2003 96.4161V95.144H48.6104V96.4161H66.2003Z" fill="url(#paint32_linear_2013_3244)"/>
<path d="M48.6699 95.144L48.6799 95.394H57.2299V95.144H48.6699Z" fill="#B67B8A"/>
<g style="mix-blend-mode:multiply" opacity="0.5">
<path d="M64.5101 58.3731L49.1602 58.0432L63.9302 57.3481L64.5101 58.3731Z" fill="#B67B8A"/>
</g>
<path d="M58.2402 86.0431L57.9502 85.9971V100.098H58.2302L58.2402 86.0431Z" fill="#B67B8A"/>
<path d="M65.6498 104.386H64.4697V110.114H65.6498V104.386Z" fill="url(#paint33_linear_2013_3244)"/>
<path d="M46.2803 104.386L54.7903 110.118H51.8302L46.2803 106.448V104.386Z" fill="url(#paint34_linear_2013_3244)"/>
<path d="M64.4697 104.386L55.9697 110.118H58.9298L64.4697 106.448V104.386Z" fill="url(#paint35_linear_2013_3244)"/>
<path d="M60.0702 53.785L59.6902 75.171H57.7102L58.0902 49.91L57.7202 49.196H26.9402L27.7002 75.171H26.6302L25.4902 48.041H57.1302L60.0702 53.785Z" fill="url(#paint36_linear_2013_3244)"/>
<path d="M58.0895 49.9088L57.7095 75.1698H27.6995L26.9395 49.1948H57.7295L58.0895 49.9088Z" fill="#400125"/>
<g style="mix-blend-mode:overlay" opacity="0.3">
<path d="M44.0195 75.1698H35.2996L26.9395 49.6278V49.1948H35.0895L44.0195 75.1698Z" fill="white"/>
</g>
<g style="mix-blend-mode:overlay" opacity="0.3">
<path d="M49.3702 75.1698H48.1603L37.7002 49.1948H40.8202L49.3702 75.1698Z" fill="white"/>
</g>
<g style="mix-blend-mode:overlay" opacity="0.3">
<path d="M50.8998 75.1698H50.3998L42.2598 49.1948H42.8397L50.8998 75.1698Z" fill="white"/>
</g>
<path d="M26.9395 49.1948V49.4918L57.9595 49.6468L57.7295 49.1948H26.9395Z" fill="url(#paint37_linear_2013_3244)"/>
<path d="M42.1396 49.1948L42.5896 75.5648H43.1196V49.1948H42.1396Z" fill="url(#paint38_linear_2013_3244)"/>
<path d="M26.9297 52.8989L58.0896 52.6099V53.4539L26.9396 53.5139L26.9297 52.8989Z" fill="url(#paint39_linear_2013_3244)"/>
<path d="M41.8799 48.877L42.3298 75.2469H42.8599V49.101L41.8799 48.877Z" fill="url(#paint40_linear_2013_3244)"/>
<path d="M26.2305 52.584L58.5205 52.2881V53.196H26.2305V52.584Z" fill="url(#paint41_linear_2013_3244)"/>
<path d="M59.6202 52.8921L59.2402 75.17H59.6902L60.0702 53.7841L59.6202 52.8921Z" fill="url(#paint42_linear_2013_3244)"/>
<g style="mix-blend-mode:multiply" opacity="0.5">
<path d="M73.1598 80.7588L109.84 87.2278L71.0498 82.2928L71.4098 81.1418L73.1598 80.7588Z" fill="#B67B8A"/>
</g>
<g style="mix-blend-mode:multiply" opacity="0.5">
<path d="M109.84 90.6769L72.9698 85.127L71.4199 85.8369L82.1099 87.8959L109.84 90.6769Z" fill="#B67B8A"/>
</g>
<g style="mix-blend-mode:multiply" opacity="0.5">
<path d="M109.84 94.13C110.12 94.13 101.25 94.08 101.25 94.08L73.25 89.959L111.22 93.439C110.91 93.86 110.41 94.134 109.85 94.134L109.84 94.13Z" fill="#B67B8A"/>
</g>
<g style="mix-blend-mode:multiply" opacity="0.5">
<path d="M72.9698 93.5938L109.12 97.5217L71.3799 94.5657V93.5938H72.9698Z" fill="#B67B8A"/>
</g>
<g style="mix-blend-mode:multiply" opacity="0.5">
<path d="M109.839 101.031L72.0195 98.2012L101.89 101.662L109.839 101.031Z" fill="#B67B8A"/>
</g>
<g style="mix-blend-mode:multiply" opacity="0.5">
<path d="M109.39 104.385L80.4695 102.323L72.0195 102.235L109.39 104.385Z" fill="#B67B8A"/>
</g>
<g style="mix-blend-mode:multiply" opacity="0.5">
<path d="M71.5195 105.708V107.026L109.839 107.934L71.5195 105.708Z" fill="#B67B8A"/>
</g>
<path d="M62.8596 55.444L42.0597 26.788L17.6896 75.805H11.3896L41.2396 17.021L62.8596 55.444Z" fill="#B67B8A"/>
<path d="M71.5204 77.9292L71.4204 87.4562L13.4004 85.8372L10.6804 81.9702C10.9004 81.8532 11.1404 81.7732 11.3904 81.7392V81.6972C10.3804 81.5642 9.61035 80.7022 9.61035 79.6532C9.61035 78.9582 9.95035 78.3472 10.4803 77.9742L71.5104 77.9292H71.5204Z" fill="#B67B8A"/>
<path d="M73.4696 83.775C73.4696 84.914 72.5497 85.8369 71.4097 85.8369C70.2697 85.8369 69.3496 84.914 69.3496 83.775C69.3496 82.635 70.2697 81.7119 71.4097 81.7119C72.5497 81.7119 73.4696 82.635 73.4696 83.775Z" fill="url(#paint43_linear_2013_3244)"/>
<path d="M73.4696 79.653C73.4696 79.839 73.4497 80.0219 73.3997 80.1929C73.1697 81.0589 72.3796 81.6929 71.4496 81.7119H71.4097C70.2697 81.7119 69.3496 80.789 69.3496 79.65C69.3496 79.501 69.3597 79.3529 69.3997 79.2089C69.5997 78.2819 70.4197 77.5869 71.4097 77.5869H71.4197C72.5497 77.5909 73.4696 78.514 73.4696 79.65V79.653Z" fill="url(#paint44_linear_2013_3244)"/>
<path d="M73.4696 92.022C73.4696 93.161 72.5497 94.084 71.4097 94.084C70.2697 94.084 69.3496 93.161 69.3496 92.022C69.3496 90.882 70.2697 89.959 71.4097 89.959C72.5497 89.959 73.4696 90.882 73.4696 92.022Z" fill="url(#paint45_linear_2013_3244)"/>
<path d="M73.4696 87.896C73.4696 89.035 72.5497 89.958 71.4097 89.958C70.2697 89.958 69.3496 89.035 69.3496 87.896C69.3496 86.756 70.2697 85.833 71.4097 85.833C72.5497 85.833 73.4696 86.756 73.4696 87.896Z" fill="url(#paint46_linear_2013_3244)"/>
<path d="M73.4696 100.264C73.4696 101.403 72.5497 102.326 71.4097 102.326C70.2697 102.326 69.3496 101.403 69.3496 100.264C69.3496 99.1242 70.2697 98.2012 71.4097 98.2012C72.5497 98.2012 73.4696 99.1242 73.4696 100.264Z" fill="url(#paint47_linear_2013_3244)"/>
<path d="M73.4696 96.1431C73.4696 97.2821 72.5497 98.2051 71.4097 98.2051C70.2697 98.2051 69.3496 97.2821 69.3496 96.1431C69.3496 95.0031 70.2697 94.0801 71.4097 94.0801C72.5497 94.0801 73.4696 95.0031 73.4696 96.1431Z" fill="url(#paint48_linear_2013_3244)"/>
<path d="M73.4696 108.507C73.4696 109.647 72.5497 110.57 71.4097 110.57C70.2697 110.57 69.3496 109.647 69.3496 108.507C69.3496 107.367 70.2697 106.444 71.4097 106.444C72.5497 106.444 73.4696 107.367 73.4696 108.507Z" fill="url(#paint49_linear_2013_3244)"/>
<path d="M73.4696 104.386C73.4696 105.525 72.5497 106.449 71.4097 106.449C70.2697 106.449 69.3496 105.525 69.3496 104.386C69.3496 103.246 70.2697 102.323 71.4097 102.323C72.5497 102.323 73.4696 103.246 73.4696 104.386Z" fill="url(#paint50_linear_2013_3244)"/>
<g style="mix-blend-mode:multiply" opacity="0.5">
<path d="M72.7995 104.386C72.8295 105.719 71.3395 106.384 70.4095 105.385C69.4995 104.473 70.0795 102.87 71.4095 102.87C72.2295 102.851 72.8295 103.626 72.7995 104.386ZM72.7695 104.386C72.6595 102.772 70.2495 102.749 70.1195 104.386C70.0395 106.122 72.7195 105.989 72.7695 104.386Z" fill="#B67B8A"/>
</g>
<g style="mix-blend-mode:multiply" opacity="0.5">
<path d="M72.2599 104.378C72.2699 105.199 71.3599 105.609 70.7899 104.994C70.2299 104.431 70.5899 103.447 71.4099 103.447C71.8999 103.436 72.2799 103.911 72.2599 104.378ZM72.2399 104.378C72.1699 103.387 70.6799 103.371 70.6099 104.378C70.5599 105.446 72.1999 105.362 72.2399 104.378Z" fill="#B67B8A"/>
</g>
<g style="mix-blend-mode:multiply" opacity="0.5">
<path d="M72.7995 108.527C72.8295 109.86 71.3395 110.525 70.4095 109.526C69.4995 108.614 70.0795 107.011 71.4095 107.011C72.2295 106.992 72.8295 107.767 72.7995 108.527ZM72.7695 108.527C72.6595 106.912 70.2495 106.89 70.1195 108.527C70.0395 110.263 72.7195 110.13 72.7695 108.527Z" fill="#B67B8A"/>
</g>
<g style="mix-blend-mode:multiply" opacity="0.5">
<path d="M72.2599 108.519C72.2699 109.339 71.3599 109.75 70.7899 109.134C70.2299 108.572 70.5899 107.588 71.4099 107.588C71.8999 107.577 72.2799 108.052 72.2599 108.519ZM72.2399 108.519C72.1699 107.527 70.6799 107.512 70.6099 108.519C70.5599 109.586 72.1999 109.503 72.2399 108.519Z" fill="#B67B8A"/>
</g>
<g style="mix-blend-mode:multiply" opacity="0.5">
<path d="M72.7995 96.1511C72.8295 97.4841 71.3395 98.1491 70.4095 97.1501C69.4995 96.2381 70.0795 94.6351 71.4095 94.6351C72.2295 94.6161 72.8295 95.3911 72.7995 96.1511ZM72.7695 96.1511C72.6595 94.5361 70.2495 94.5141 70.1195 96.1511C70.0395 97.8871 72.7195 97.7541 72.7695 96.1511Z" fill="#B67B8A"/>
</g>
<g style="mix-blend-mode:multiply" opacity="0.5">
<path d="M72.2599 96.1431C72.2699 96.9631 71.3599 97.3741 70.7899 96.7581C70.2299 96.1961 70.5899 95.2121 71.4099 95.2121C71.8999 95.2011 72.2799 95.6761 72.2599 96.1431ZM72.2399 96.1431C72.1699 95.1511 70.6799 95.1361 70.6099 96.1431C70.5599 97.2101 72.1999 97.1271 72.2399 96.1431Z" fill="#B67B8A"/>
</g>
<g style="mix-blend-mode:multiply" opacity="0.5">
<path d="M72.7995 100.287C72.8295 101.621 71.3395 102.286 70.4095 101.287C69.4995 100.375 70.0795 98.7718 71.4095 98.7718C72.2295 98.7528 72.8295 99.5278 72.7995 100.287ZM72.7695 100.287C72.6595 98.6728 70.2495 98.6498 70.1195 100.287C70.0395 102.023 72.7195 101.89 72.7695 100.287Z" fill="#B67B8A"/>
</g>
<g style="mix-blend-mode:multiply" opacity="0.5">
<path d="M72.2599 100.283C72.2699 101.104 71.3599 101.514 70.7899 100.899C70.2299 100.337 70.5899 99.3528 71.4099 99.3528C71.8999 99.3408 72.2799 99.8158 72.2599 100.283ZM72.2399 100.283C72.1699 99.2918 70.6799 99.2768 70.6099 100.283C70.5599 101.351 72.1999 101.267 72.2399 100.283Z" fill="#B67B8A"/>
</g>
<g style="mix-blend-mode:multiply" opacity="0.5">
<path d="M72.7995 87.7629C72.8295 89.0959 71.3395 89.7609 70.4095 88.7619C69.4995 87.8499 70.0795 86.2469 71.4095 86.2469C72.2295 86.2279 72.8295 87.0029 72.7995 87.7629ZM72.7695 87.7629C72.6595 86.1489 70.2495 86.1259 70.1195 87.7629C70.0395 89.4989 72.7195 89.3659 72.7695 87.7629Z" fill="#B67B8A"/>
</g>
<g style="mix-blend-mode:multiply" opacity="0.5">
<path d="M72.2599 87.7549C72.2699 88.5759 71.3599 88.9859 70.7899 88.3699C70.2299 87.8079 70.5899 86.8239 71.4099 86.8239C71.8999 86.8129 72.2799 87.2879 72.2599 87.7549ZM72.2399 87.7549C72.1699 86.7639 70.6799 86.7479 70.6099 87.7549C70.5599 88.8219 72.1999 88.7389 72.2399 87.7549Z" fill="#B67B8A"/>
</g>
<g style="mix-blend-mode:multiply" opacity="0.5">
<path d="M72.7995 91.904C72.8295 93.237 71.3395 93.9021 70.4095 92.9031C69.4995 91.9911 70.0795 90.388 71.4095 90.388C72.2295 90.369 72.8295 91.144 72.7995 91.904ZM72.7695 91.904C72.6595 90.289 70.2495 90.266 70.1195 91.904C70.0395 93.64 72.7195 93.507 72.7695 91.904Z" fill="#B67B8A"/>
</g>
<g style="mix-blend-mode:multiply" opacity="0.5">
<path d="M72.2599 91.896C72.2699 92.716 71.3599 93.126 70.7899 92.511C70.2299 91.949 70.5899 90.965 71.4099 90.965C71.8999 90.954 72.2799 91.428 72.2599 91.896ZM72.2399 91.896C72.1699 90.904 70.6799 90.889 70.6099 91.896C70.5599 92.963 72.1999 92.88 72.2399 91.896Z" fill="#B67B8A"/>
</g>
<g style="mix-blend-mode:multiply" opacity="0.5">
<path d="M72.7995 79.5281C72.8295 80.8611 71.3395 81.526 70.4095 80.527C69.4995 79.615 70.0795 78.0121 71.4095 78.0121C72.2295 77.9931 72.8295 78.7681 72.7995 79.5281ZM72.7695 79.5281C72.6595 77.9131 70.2495 77.8911 70.1195 79.5281C70.0395 81.2641 72.7195 81.1311 72.7695 79.5281Z" fill="#B67B8A"/>
</g>
<g style="mix-blend-mode:multiply" opacity="0.5">
<path d="M72.2599 79.521C72.2699 80.341 71.3599 80.751 70.7899 80.136C70.2299 79.574 70.5899 78.59 71.4099 78.59C71.8999 78.579 72.2799 79.053 72.2599 79.521ZM72.2399 79.521C72.1699 78.529 70.6799 78.514 70.6099 79.521C70.5599 80.588 72.1999 80.505 72.2399 79.521Z" fill="#B67B8A"/>
</g>
<g style="mix-blend-mode:multiply" opacity="0.5">
<path d="M72.7995 83.6682C72.8295 85.0022 71.3395 85.6662 70.4095 84.6672C69.4995 83.7562 70.0795 82.1532 71.4095 82.1532C72.2295 82.1342 72.8295 82.9092 72.7995 83.6682ZM72.7695 83.6682C72.6595 82.0542 70.2495 82.0312 70.1195 83.6682C70.0395 85.4042 72.7195 85.2712 72.7695 83.6682Z" fill="#B67B8A"/>
</g>
<g style="mix-blend-mode:multiply" opacity="0.5">
<path d="M72.2599 83.6597C72.2699 84.4807 71.3599 84.8907 70.7899 84.2757C70.2299 83.7137 70.5899 82.7297 71.4099 82.7297C71.8999 82.7177 72.2799 83.1927 72.2599 83.6597ZM72.2399 83.6597C72.1699 82.6687 70.6799 82.6537 70.6099 83.6597C70.5599 84.7277 72.1999 84.6437 72.2399 83.6597Z" fill="#B67B8A"/>
</g>
<g style="mix-blend-mode:multiply" opacity="0.5">
<path d="M12.9304 104.386C12.9604 105.719 11.4704 106.384 10.5404 105.385C9.63035 104.473 10.2104 102.87 11.5404 102.87C12.3604 102.851 12.9604 103.626 12.9304 104.386ZM12.9003 104.386C12.7903 102.772 10.3803 102.749 10.2503 104.386C10.1703 106.122 12.8503 105.989 12.9003 104.386Z" fill="#B67B8A"/>
</g>
<g style="mix-blend-mode:multiply" opacity="0.5">
<path d="M12.3898 104.378C12.3998 105.199 11.4898 105.609 10.9198 104.994C10.3598 104.431 10.7198 103.447 11.5398 103.447C12.0298 103.436 12.4098 103.911 12.3898 104.378ZM12.3697 104.378C12.2997 103.387 10.8097 103.371 10.7297 104.378C10.6797 105.446 12.3297 105.362 12.3697 104.378Z" fill="#B67B8A"/>
</g>
<g style="mix-blend-mode:multiply" opacity="0.5">
<path d="M12.9304 108.527C12.9604 109.86 11.4704 110.525 10.5404 109.526C9.63035 108.614 10.2104 107.011 11.5404 107.011C12.3604 106.992 12.9604 107.767 12.9304 108.527ZM12.9003 108.527C12.7903 106.912 10.3803 106.89 10.2503 108.527C10.1703 110.263 12.8503 110.13 12.9003 108.527Z" fill="#B67B8A"/>
</g>
<g style="mix-blend-mode:multiply" opacity="0.5">
<path d="M12.3898 108.519C12.3998 109.339 11.4898 109.75 10.9198 109.134C10.3598 108.572 10.7198 107.588 11.5398 107.588C12.0298 107.577 12.4098 108.052 12.3898 108.519ZM12.3697 108.519C12.2997 107.527 10.8097 107.512 10.7297 108.519C10.6797 109.586 12.3297 109.503 12.3697 108.519Z" fill="#B67B8A"/>
</g>
<g style="mix-blend-mode:multiply" opacity="0.5">
<path d="M12.9304 96.1511C12.9604 97.4841 11.4704 98.1491 10.5404 97.1501C9.63035 96.2381 10.2104 94.6351 11.5404 94.6351C12.3604 94.6161 12.9604 95.3911 12.9304 96.1511ZM12.9003 96.1511C12.7903 94.5361 10.3803 94.5141 10.2503 96.1511C10.1703 97.8871 12.8503 97.7541 12.9003 96.1511Z" fill="#B67B8A"/>
</g>
<g style="mix-blend-mode:multiply" opacity="0.5">
<path d="M12.3898 96.1431C12.3998 96.9631 11.4898 97.3741 10.9198 96.7581C10.3598 96.1961 10.7198 95.2121 11.5398 95.2121C12.0298 95.2011 12.4098 95.6761 12.3898 96.1431ZM12.3697 96.1431C12.2997 95.1511 10.8097 95.1361 10.7297 96.1431C10.6797 97.2101 12.3297 97.1271 12.3697 96.1431Z" fill="#B67B8A"/>
</g>
<g style="mix-blend-mode:multiply" opacity="0.5">
<path d="M12.9304 100.287C12.9604 101.621 11.4704 102.286 10.5404 101.287C9.63035 100.375 10.2104 98.7718 11.5404 98.7718C12.3604 98.7528 12.9604 99.5278 12.9304 100.287ZM12.9003 100.287C12.7903 98.6728 10.3803 98.6498 10.2503 100.287C10.1703 102.023 12.8503 101.89 12.9003 100.287Z" fill="#B67B8A"/>
</g>
<g style="mix-blend-mode:multiply" opacity="0.5">
<path d="M12.3898 100.283C12.3998 101.104 11.4898 101.514 10.9198 100.899C10.3598 100.337 10.7198 99.3528 11.5398 99.3528C12.0298 99.3408 12.4098 99.8158 12.3898 100.283ZM12.3697 100.283C12.2997 99.2918 10.8097 99.2768 10.7297 100.283C10.6797 101.351 12.3297 101.267 12.3697 100.283Z" fill="#B67B8A"/>
</g>
<g style="mix-blend-mode:multiply" opacity="0.5">
<path d="M12.9304 87.7629C12.9604 89.0959 11.4704 89.7609 10.5404 88.7619C9.63035 87.8499 10.2104 86.2469 11.5404 86.2469C12.3604 86.2279 12.9604 87.0029 12.9304 87.7629ZM12.9003 87.7629C12.7903 86.1489 10.3803 86.1259 10.2503 87.7629C10.1703 89.4989 12.8503 89.3659 12.9003 87.7629Z" fill="#B67B8A"/>
</g>
<g style="mix-blend-mode:multiply" opacity="0.5">
<path d="M12.3898 87.7549C12.3998 88.5759 11.4898 88.9859 10.9198 88.3699C10.3598 87.8079 10.7198 86.8239 11.5398 86.8239C12.0298 86.8129 12.4098 87.2879 12.3898 87.7549ZM12.3697 87.7549C12.2997 86.7639 10.8097 86.7479 10.7297 87.7549C10.6797 88.8219 12.3297 88.7389 12.3697 87.7549Z" fill="#B67B8A"/>
</g>
<g style="mix-blend-mode:multiply" opacity="0.5">
<path d="M12.9304 91.904C12.9604 93.237 11.4704 93.9021 10.5404 92.9031C9.63035 91.9911 10.2104 90.388 11.5404 90.388C12.3604 90.369 12.9604 91.144 12.9304 91.904ZM12.9003 91.904C12.7903 90.289 10.3803 90.266 10.2503 91.904C10.1703 93.64 12.8503 93.507 12.9003 91.904Z" fill="#B67B8A"/>
</g>
<g style="mix-blend-mode:multiply" opacity="0.5">
<path d="M12.3898 91.896C12.3998 92.716 11.4898 93.126 10.9198 92.511C10.3598 91.949 10.7198 90.965 11.5398 90.965C12.0298 90.954 12.4098 91.428 12.3898 91.896ZM12.3697 91.896C12.2997 90.904 10.8097 90.889 10.7297 91.896C10.6797 92.963 12.3297 92.88 12.3697 91.896Z" fill="#B67B8A"/>
</g>
<g style="mix-blend-mode:multiply" opacity="0.5">
<path d="M12.9304 79.5281C12.9604 80.8611 11.4704 81.526 10.5404 80.527C9.63035 79.615 10.2104 78.0121 11.5404 78.0121C12.3604 77.9931 12.9604 78.7681 12.9304 79.5281ZM12.9003 79.5281C12.7903 77.9131 10.3803 77.8911 10.2503 79.5281C10.1703 81.2641 12.8503 81.1311 12.9003 79.5281Z" fill="#B67B8A"/>
</g>
<g style="mix-blend-mode:multiply" opacity="0.5">
<path d="M12.3898 79.521C12.3998 80.341 11.4898 80.751 10.9198 80.136C10.3598 79.574 10.7198 78.59 11.5398 78.59C12.0298 78.579 12.4098 79.053 12.3898 79.521ZM12.3697 79.521C12.2997 78.529 10.8097 78.514 10.7297 79.521C10.6797 80.588 12.3297 80.505 12.3697 79.521Z" fill="#B67B8A"/>
</g>
<g style="mix-blend-mode:multiply" opacity="0.5">
<path d="M12.9304 83.6682C12.9604 85.0022 11.4704 85.6662 10.5404 84.6672C9.63035 83.7562 10.2104 82.1532 11.5404 82.1532C12.3604 82.1342 12.9604 82.9092 12.9304 83.6682ZM12.9003 83.6682C12.7903 82.0542 10.3803 82.0312 10.2503 83.6682C10.1703 85.4042 12.8503 85.2712 12.9003 83.6682Z" fill="#B67B8A"/>
</g>
<g style="mix-blend-mode:multiply" opacity="0.5">
<path d="M12.3898 83.6597C12.3998 84.4807 11.4898 84.8907 10.9198 84.2757C10.3598 83.7137 10.7198 82.7297 11.5398 82.7297C12.0298 82.7177 12.4098 83.1927 12.3898 83.6597ZM12.3697 83.6597C12.2997 82.6687 10.8097 82.6537 10.7297 83.6597C10.6797 84.7277 12.3297 84.6437 12.3697 83.6597Z" fill="#B67B8A"/>
</g>
<g style="mix-blend-mode:multiply" opacity="0.5">
<path d="M111.56 85.499C111.56 85.567 111.56 85.6319 111.55 85.6959L69.4004 79.2119C69.6004 78.2849 70.4204 77.59 71.4104 77.59H71.4204V76.9399L87.2604 79.09L109.83 83.7739C110.79 83.7739 111.56 84.545 111.56 85.499Z" fill="#B67B8A"/>
</g>
<path d="M118.52 85.112L75.48 78.597L72.5601 78.156L35.6 6.00598L2.58997 77.336L0 76.519L35.33 0L86.75 30.146L92.42 39.965L95.71 45.659V45.663L110.79 71.737L114.32 77.845L118.52 85.112Z" fill="url(#paint51_linear_2013_3244)"/>
<path d="M118.53 85.112L75.4801 78.597L70.2301 68.322L66.2802 60.592L59.3601 47.042L55.8301 40.129L46.7001 22.264L40.8701 10.853L35.3301 0L86.7501 30.146L92.4202 39.965L95.7101 45.659V45.663L110.79 71.737L114.32 77.845L118.53 85.112Z" fill="#B17181"/>
<path d="M89.13 53.1048L80.64 51.0719C78.99 50.6769 77.6101 52.3489 78.3001 53.8949L81.24 60.4738L97.01 63.5888L92.58 55.7029C91.85 54.3959 90.6 53.4538 89.14 53.1048H89.13ZM81.89 51.8968L88.57 53.4958C90.03 53.8448 91.27 54.7868 92.01 56.0938L95.75 62.7608L81.9201 60.0259L79.5501 54.7188C78.8601 53.1728 80.24 51.5018 81.89 51.8968Z" fill="#B17181"/>
<path d="M11.1597 63.1372V75.1712H10.2697L9.88965 63.1372H11.1597Z" fill="url(#paint52_linear_2013_3244)"/>
<path d="M11.1504 63.1372H10.6504V75.1712H11.1504V63.1372Z" fill="#B67B8A"/>
<path d="M16.02 63.1372V75.1712H15.13L14.75 63.1372H16.02Z" fill="url(#paint53_linear_2013_3244)"/>
<path d="M16.0198 63.1372H15.5098V75.1712H16.0198V63.1372Z" fill="#B67B8A"/>
<path d="M20.8804 63.1372V75.1712H19.9904L19.6104 63.1372H20.8804Z" fill="url(#paint54_linear_2013_3244)"/>
<path d="M20.8799 63.1372H20.3799V75.1712H20.8799V63.1372Z" fill="#B67B8A"/>
<path d="M25.7505 63.1372V75.1712H24.8605L24.4805 63.1372H25.7505Z" fill="url(#paint55_linear_2013_3244)"/>
<path d="M25.7402 63.1372H25.2402V75.1712H25.7402V63.1372Z" fill="#B67B8A"/>
<path d="M30.6099 63.1372V75.1712H29.7198L29.3398 63.1372H30.6099Z" fill="url(#paint56_linear_2013_3244)"/>
<path d="M30.6104 63.1372H30.1104V75.1712H30.6104V63.1372Z" fill="#B67B8A"/>
<path d="M35.4802 63.1372V75.1712H34.5802L34.2002 63.1372H35.4802Z" fill="url(#paint57_linear_2013_3244)"/>
<path d="M35.47 63.1372H34.96V75.1712H35.47V63.1372Z" fill="#B67B8A"/>
<path d="M40.3403 63.1372V75.1712H39.4503L39.0703 63.1372H40.3403Z" fill="url(#paint58_linear_2013_3244)"/>
<path d="M40.3401 63.1372H39.8301V75.1712H40.3401V63.1372Z" fill="#B67B8A"/>
<path d="M45.1996 63.1372V75.1712H44.3097L43.9297 63.1372H45.1996Z" fill="url(#paint59_linear_2013_3244)"/>
<path d="M45.1995 63.1372H44.6895V75.1712H45.1995V63.1372Z" fill="#B67B8A"/>
<path d="M50.0697 63.1372V75.1712H49.1798L48.7998 63.1372H50.0697Z" fill="url(#paint60_linear_2013_3244)"/>
<path d="M50.0605 63.1372H49.5605V75.1712H50.0605V63.1372Z" fill="#B67B8A"/>
<path d="M54.9302 63.1372V75.1712H54.0402L53.6602 63.1372H54.9302Z" fill="url(#paint61_linear_2013_3244)"/>
<path d="M54.9297 63.1372H54.4297V75.1712H54.9297V63.1372Z" fill="#B67B8A"/>
<path d="M59.7896 63.1372V75.1712H58.8995L58.5195 63.1372H59.7896Z" fill="url(#paint62_linear_2013_3244)"/>
<path d="M59.79 63.1372H59.29V75.1712H59.79V63.1372Z" fill="#B67B8A"/>
<path d="M64.6597 63.1372V75.1712H63.7697L63.3896 63.1372H64.6597Z" fill="url(#paint63_linear_2013_3244)"/>
<path d="M64.6604 63.1372H64.1504V75.1712H64.6604V63.1372Z" fill="#B67B8A"/>
<path d="M72.9698 75.1709H7.87988V77.9698H72.9698V75.1709Z" fill="url(#paint64_linear_2013_3244)"/>
<path opacity="0.7" d="M7.87988 75.1709L20.5698 76.1699L72.9698 75.1709H7.87988Z" fill="url(#paint65_linear_2013_3244)" style="mix-blend-mode:overlay"/>
<path opacity="0.7" d="M65.9395 110.114L20.8395 110.973L11.1895 110.213C11.3995 110.148 11.6195 110.114 11.8495 110.114H65.9395Z" fill="url(#paint66_linear_2013_3244)" style="mix-blend-mode:overlay"/>
<path d="M0 76.519L2.58997 77.336L35.6 6.00598L72.5601 78.156L75.48 78.597L35.33 0L0 76.519Z" fill="url(#paint67_linear_2013_3244)"/>
<path d="M65.0099 63.4142L64.6099 63.4102L7.87988 63.1372V61.8682H64.2198L65.0099 63.4142Z" fill="url(#paint68_linear_2013_3244)"/>
<path d="M65.0099 63.4141L7.87988 63.136V62.6431H64.6199L65.0099 63.4141Z" fill="#B67B8A"/>
<path fill-rule="evenodd" clip-rule="evenodd" d="M27.2695 85.1268V98.0188H28.0695L28.2996 85.1108L27.2695 85.1268Z" fill="url(#paint69_linear_2013_3244)"/>
<path fill-rule="evenodd" clip-rule="evenodd" d="M27 85.1268V98.0188H27.8L28.03 85.1108L27 85.1268Z" fill="url(#paint70_linear_2013_3244)"/>
<path d="M113.24 112.663L112.48 117.662H12.6805L8.73047 119.539V112.663H113.24Z" fill="url(#paint71_linear_2013_3244)"/>
<path d="M113.24 112.291V112.659H8.73047V112.355C8.73047 111.349 9.40044 110.494 10.3304 110.209C10.5304 110.145 10.7605 110.11 10.9905 110.11H111.051C112.261 110.11 113.24 111.087 113.24 112.287V112.291Z" fill="url(#paint72_linear_2013_3244)"/>
<path d="M113.24 112.291L112.48 117.662H71.6396V110.114H111.06C112.26 110.114 113.23 111.091 113.23 112.291H113.24Z" fill="#B67B8A"/>
<path d="M22.5303 126H32.4103C33.5703 126 34.5002 125.062 34.5002 123.907L35.6403 112.663H31.7202L26.5203 117.996L22.5303 123.33V125.996V126Z" fill="url(#paint73_linear_2013_3244)"/>
<path d="M13.9495 112.663H31.7195C33.0495 112.663 34.1295 113.742 34.1295 115.071V115.33H11.5195V115.09C11.5195 113.749 12.6095 112.659 13.9495 112.659V112.663Z" fill="url(#paint74_linear_2013_3244)"/>
<path d="M11.62 115.33H30.21C31.23 115.33 32.0699 116.162 32.0699 117.188V117.997H9.45996V117.495C9.45996 116.299 10.43 115.33 11.62 115.33Z" fill="url(#paint75_linear_2013_3244)"/>
<path d="M9.56006 117.996H27.66C28.99 117.996 30.0699 119.075 30.0699 120.404V120.663H7.45996V120.097C7.45996 118.938 8.40006 117.996 9.56006 117.996Z" fill="url(#paint76_linear_2013_3244)"/>
<path d="M7.58032 120.663H25.6504C26.9504 120.663 28.0104 121.719 28.0104 123.022V123.33H5.40039V122.847C5.40039 121.639 6.38032 120.663 7.58032 120.663Z" fill="url(#paint77_linear_2013_3244)"/>
<path d="M5.48022 123.333H23.4902C24.8102 123.333 25.8903 124.408 25.8903 125.73V126H3.28027V125.532C3.28027 124.317 4.26022 123.333 5.48022 123.333Z" fill="url(#paint78_linear_2013_3244)"/>
<path d="M66.1896 102.323H44.6797V104.386H66.1896V102.323Z" fill="url(#paint79_linear_2013_3244)"/>
<path d="M66.1899 102.323V104.386H65.66V110.114H65.21V102.323H66.1899Z" fill="#B67B8A"/>
<path d="M64.47 106.449V105.909L58.04 110.114L58.9301 110.118L64.47 106.449Z" fill="#B67B8A"/>
<path opacity="0.4" d="M46.2803 104.386V104.796L54.3302 110.141L54.7903 110.114L46.2803 104.386Z" fill="url(#paint80_linear_2013_3244)" style="mix-blend-mode:screen"/>
<path opacity="0.7" d="M66.1896 102.323H44.6797L50.3296 102.73L66.1896 102.323Z" fill="url(#paint81_linear_2013_3244)" style="mix-blend-mode:lighten"/>
<path d="M47.8301 84.793L66.9801 85.0629L66.8301 101.302H67.7401L67.5602 84.793H47.8301Z" fill="#B67B8A"/>
<path d="M78.6504 117.662L77.8904 126H65.8303L65.0703 117.662H78.6504Z" fill="url(#paint82_linear_2013_3244)"/>
<path d="M78.6604 117.662L77.9004 126H71.8604V117.662H78.6604Z" fill="#B67B8A"/>
<path d="M112.48 117.662L111.72 126H102.38L101.62 117.662H112.48Z" fill="url(#paint83_linear_2013_3244)"/>
<path d="M112.48 117.662L111.72 126H107.05V117.662H112.48Z" fill="#B67B8A"/>
<path d="M42.4899 27.5322L38.1299 35.2242L46.8699 35.1642L42.4899 27.5322Z" fill="url(#paint84_linear_2013_3244)"/>
<path d="M42.26 27.9199L38.25 35.012H46.58L42.26 27.9199Z" fill="url(#paint85_linear_2013_3244)"/>
<path d="M42.1405 28.8989L38.9805 34.4829H45.5405L42.1405 28.8989Z" fill="#400125"/>
<path d="M40.7096 31.4338L42.2096 32.3758L43.5597 31.2358L43.7997 31.6348L42.3496 32.7748L42.3097 34.4838H41.9197L41.9596 32.7288L40.5996 31.6278L40.7096 31.4338Z" fill="url(#paint86_linear_2013_3244)"/>
<path d="M40.6198 31.236L42.1198 32.182L43.6198 31.02L43.7898 31.377L42.2598 32.577L42.2097 34.67H41.8297L41.8798 32.531L40.5498 31.464L40.6198 31.236Z" fill="url(#paint87_linear_2013_3244)"/>
<g style="mix-blend-mode:soft-light" opacity="0.3">
<path d="M82.1101 34.67L46.7001 22.264L40.8701 10.853L79.3601 31.376L82.1101 34.67Z" fill="#B67B66"/>
</g>
<g style="mix-blend-mode:multiply" opacity="0.2">
<path d="M80.1204 48.1479L59.3604 47.0419L55.8203 40.1289L77.5604 44.4939L80.1204 48.1479Z" fill="#B67B8A"/>
</g>
<g style="mix-blend-mode:multiply" opacity="0.2">
<path d="M95.7104 45.6589L60.6205 33.2839L55.7305 27.9199L92.4205 39.965L95.7104 45.6589Z" fill="#B67B8A"/>
</g>
<g style="mix-blend-mode:multiply" opacity="0.2">
<path d="M114.32 77.8448L86.5597 73.8368L82.9297 69.1528L110.79 71.7358L114.32 77.8448Z" fill="#B67B8A"/>
</g>
<g style="mix-blend-mode:soft-light" opacity="0.3">
<path d="M100.2 70.7572L82.9303 69.1542C82.9303 69.1542 76.3602 68.7252 70.2302 68.3262L66.2803 60.5962L99.2903 66.4762L100.2 70.7612V70.7572Z" fill="#B67B66"/>
</g>
<path d="M84.3398 19.665L84.8999 54.985C84.8999 55.433 84.9598 55.87 85.0698 56.295C85.4298 57.773 86.4198 59.0491 87.8298 59.7181C89.3698 60.4471 90.3599 59.9271 90.5199 57.5411L91.9299 19.665H84.3398Z" fill="url(#paint88_linear_2013_3244)"/>
<path d="M92.8 19.73H83.46C83.46 19.282 83.57 18.856 83.78 18.484C83.91 18.237 84.08 18.013 84.29 17.815C84.8 17.325 85.51 17.021 86.29 17.021H89.98C90.34 17.021 90.69 17.086 91.01 17.208C92.06 17.603 92.8 18.583 92.8 19.73Z" fill="url(#paint89_linear_2013_3244)"/>
<g style="mix-blend-mode:overlay" opacity="0.3">
<path d="M89.6002 17.021C89.4802 17.884 87.5503 18.568 85.1803 18.568C84.6903 18.568 84.2203 18.537 83.7803 18.484C83.9103 18.237 84.0903 18.013 84.2903 17.815C84.8003 17.325 85.5103 17.021 86.2903 17.021H89.6002Z" fill="white"/>
</g>
<path d="M58.2305 95.144V95.394H65.9205L65.8705 95.144H58.2305Z" fill="#B67B8A"/>
<defs>
<linearGradient id="paint0_linear_2013_3244" x1="91.4899" y1="111.386" x2="91.4899" y2="75.8051" gradientUnits="userSpaceOnUse">
<stop stop-color="#CB5646"/>
<stop offset="0.99" stop-color="#FF823C"/>
</linearGradient>
<linearGradient id="paint1_linear_2013_3244" x1="91.4901" y1="111.383" x2="91.4901" y2="75.805" gradientUnits="userSpaceOnUse">
<stop stop-color="#754449"/>
<stop offset="0.33" stop-color="#8A4944"/>
<stop offset="0.72" stop-color="#9D4D41"/>
<stop offset="0.99" stop-color="#A44F40"/>
</linearGradient>
<linearGradient id="paint2_linear_2013_3244" x1="24.0298" y1="78.1109" x2="24.0298" y2="6.00586" gradientUnits="userSpaceOnUse">
<stop stop-color="#621627"/>
<stop offset="0.99" stop-color="#53070D"/>
</linearGradient>
<linearGradient id="paint3_linear_2013_3244" x1="40.5096" y1="75.8049" x2="40.5096" y2="110.57" gradientUnits="userSpaceOnUse">
<stop stop-color="#D26046"/>
<stop offset="0.99" stop-color="#FB9C62"/>
</linearGradient>
<linearGradient id="paint4_linear_2013_3244" x1="11.6703" y1="85.8369" x2="11.6703" y2="81.7159" gradientUnits="userSpaceOnUse">
<stop stop-color="#FF7F49"/>
<stop offset="0.99" stop-color="#FFA236"/>
</linearGradient>
<linearGradient id="paint5_linear_2013_3244" x1="-307.549" y1="81.7158" x2="-307.169" y2="77.5948" gradientUnits="userSpaceOnUse">
<stop stop-color="#FF7F49"/>
<stop offset="0.99" stop-color="#FFA236"/>
</linearGradient>
<linearGradient id="paint6_linear_2013_3244" x1="-307.549" y1="94.08" x2="-307.169" y2="89.959" gradientUnits="userSpaceOnUse">
<stop stop-color="#FF7F49"/>
<stop offset="0.99" stop-color="#FFA236"/>
</linearGradient>
<linearGradient id="paint7_linear_2013_3244" x1="-307.549" y1="89.958" x2="-307.169" y2="85.837" gradientUnits="userSpaceOnUse">
<stop stop-color="#FF7F49"/>
<stop offset="0.99" stop-color="#FFA236"/>
</linearGradient>
<linearGradient id="paint8_linear_2013_3244" x1="-307.549" y1="102.326" x2="-307.169" y2="98.2012" gradientUnits="userSpaceOnUse">
<stop stop-color="#FF7F49"/>
<stop offset="0.99" stop-color="#FFA236"/>
</linearGradient>
<linearGradient id="paint9_linear_2013_3244" x1="-307.549" y1="98.2021" x2="-307.169" y2="94.0801" gradientUnits="userSpaceOnUse">
<stop stop-color="#FF7F49"/>
<stop offset="0.99" stop-color="#FFA236"/>
</linearGradient>
<linearGradient id="paint10_linear_2013_3244" x1="-307.549" y1="110.57" x2="-307.169" y2="106.448" gradientUnits="userSpaceOnUse">
<stop stop-color="#FF7F49"/>
<stop offset="0.99" stop-color="#FFA236"/>
</linearGradient>
<linearGradient id="paint11_linear_2013_3244" x1="-307.549" y1="106.449" x2="-307.169" y2="102.327" gradientUnits="userSpaceOnUse">
<stop stop-color="#FF7F49"/>
<stop offset="0.99" stop-color="#FFA236"/>
</linearGradient>
<linearGradient id="paint12_linear_2013_3244" x1="26.7004" y1="109.461" x2="26.7004" y2="83.1919" gradientUnits="userSpaceOnUse">
<stop offset="0.01" stop-color="#FFC49D"/>
<stop offset="1" stop-color="#FFECB3"/>
</linearGradient>
<linearGradient id="paint13_linear_2013_3244" x1="27.1498" y1="109.461" x2="27.1498" y2="82.128" gradientUnits="userSpaceOnUse">
<stop stop-color="#CB5646"/>
<stop offset="0.99" stop-color="#FF823C"/>
</linearGradient>
<linearGradient id="paint14_linear_2013_3244" x1="27.8004" y1="98.206" x2="27.8004" y2="85.229" gradientUnits="userSpaceOnUse">
<stop stop-color="#9F2A3B"/>
<stop offset="0.99" stop-color="#882A30"/>
</linearGradient>
<linearGradient id="paint15_linear_2013_3244" x1="27.2504" y1="110.163" x2="27.2504" y2="83.7739" gradientUnits="userSpaceOnUse">
<stop stop-color="#CB5646"/>
<stop offset="0.99" stop-color="#FF823C"/>
</linearGradient>
<linearGradient id="paint16_linear_2013_3244" x1="27.4505" y1="102.483" x2="27.4505" y2="98.7642" gradientUnits="userSpaceOnUse">
<stop stop-color="#9F2A3B"/>
<stop offset="0.99" stop-color="#882A30"/>
</linearGradient>
<linearGradient id="paint17_linear_2013_3244" x1="26.7805" y1="99.1972" x2="26.7805" y2="98.9362" gradientUnits="userSpaceOnUse">
<stop stop-color="#CB5646"/>
<stop offset="0.99" stop-color="#FF823C"/>
</linearGradient>
<linearGradient id="paint18_linear_2013_3244" x1="29.9702" y1="109.142" x2="29.9702" y2="103.28" gradientUnits="userSpaceOnUse">
<stop stop-color="#9F2A3B"/>
<stop offset="0.99" stop-color="#882A30"/>
</linearGradient>
<linearGradient id="paint19_linear_2013_3244" x1="29.7802" y1="103.019" x2="29.7802" y2="102.609" gradientUnits="userSpaceOnUse">
<stop stop-color="#CB5646"/>
<stop offset="0.99" stop-color="#FF823C"/>
</linearGradient>
<linearGradient id="paint20_linear_2013_3244" x1="22.86" y1="101.488" x2="22.86" y2="99.937" gradientUnits="userSpaceOnUse">
<stop offset="0.01" stop-color="#A44C47"/>
<stop offset="0.97" stop-color="#9D4F48"/>
<stop offset="1" stop-color="#9D5049"/>
</linearGradient>
<linearGradient id="paint21_linear_2013_3244" x1="22.8001" y1="101.924" x2="22.8001" y2="100.188" gradientUnits="userSpaceOnUse">
<stop stop-color="#CB5646"/>
<stop offset="0.99" stop-color="#FF823C"/>
</linearGradient>
<linearGradient id="paint22_linear_2013_3244" x1="27.3398" y1="110.163" x2="27.3398" y2="82.707" gradientUnits="userSpaceOnUse">
<stop offset="0.01" stop-color="#A44C47"/>
<stop offset="0.97" stop-color="#9D4F48"/>
<stop offset="1" stop-color="#9D5049"/>
</linearGradient>
<linearGradient id="paint23_linear_2013_3244" x1="24.7405" y1="109.142" x2="24.7405" y2="103.28" gradientUnits="userSpaceOnUse">
<stop stop-color="#9F2A3B"/>
<stop offset="0.99" stop-color="#882A30"/>
</linearGradient>
<linearGradient id="paint24_linear_2013_3244" x1="27.2801" y1="110.164" x2="27.2801" y2="82.479" gradientUnits="userSpaceOnUse">
<stop stop-color="#621627"/>
<stop offset="0.99" stop-color="#53070D"/>
</linearGradient>
<linearGradient id="paint25_linear_2013_3244" x1="57.7801" y1="101.302" x2="57.7801" y2="84.793" gradientUnits="userSpaceOnUse">
<stop offset="0.01" stop-color="#A44C47"/>
<stop offset="0.97" stop-color="#9D4F48"/>
<stop offset="1" stop-color="#9D5049"/>
</linearGradient>
<linearGradient id="paint26_linear_2013_3244" x1="55.44" y1="106.023" x2="55.44" y2="104.283" gradientUnits="userSpaceOnUse">
<stop stop-color="#621627"/>
<stop offset="0.99" stop-color="#53070D"/>
</linearGradient>
<linearGradient id="paint27_linear_2013_3244" x1="45.6896" y1="110.114" x2="45.6896" y2="104.386" gradientUnits="userSpaceOnUse">
<stop stop-color="#A44135"/>
<stop offset="0.06" stop-color="#A64336"/>
<stop offset="0.61" stop-color="#B9543E"/>
<stop offset="0.99" stop-color="#C05B42"/>
</linearGradient>
<linearGradient id="paint28_linear_2013_3244" x1="55.38" y1="-22.4999" x2="55.38" y2="-22.4999" gradientUnits="userSpaceOnUse">
<stop stop-color="#A44135"/>
<stop offset="0.06" stop-color="#A64336"/>
<stop offset="0.61" stop-color="#B9543E"/>
<stop offset="0.99" stop-color="#C05B42"/>
</linearGradient>
<linearGradient id="paint29_linear_2013_3244" x1="42.8496" y1="-22.499" x2="42.8496" y2="17.021" gradientUnits="userSpaceOnUse">
<stop stop-color="#D26046"/>
<stop offset="0.99" stop-color="#FB9C62"/>
</linearGradient>
<linearGradient id="paint30_linear_2013_3244" x1="11.6699" y1="46.096" x2="42.0698" y2="46.096" gradientUnits="userSpaceOnUse">
<stop stop-color="#FF7F49"/>
<stop offset="0.99" stop-color="#FFA236"/>
</linearGradient>
<linearGradient id="paint31_linear_2013_3244" x1="56.9502" y1="93.0499" x2="58.2302" y2="93.0499" gradientUnits="userSpaceOnUse">
<stop offset="0.01" stop-color="#A44C47"/>
<stop offset="0.97" stop-color="#9D4F48"/>
<stop offset="1" stop-color="#9D5049"/>
</linearGradient>
<linearGradient id="paint32_linear_2013_3244" x1="57.4003" y1="96.4161" x2="57.4003" y2="95.144" gradientUnits="userSpaceOnUse">
<stop offset="0.01" stop-color="#A44C47"/>
<stop offset="0.97" stop-color="#9D4F48"/>
<stop offset="1" stop-color="#9D5049"/>
</linearGradient>
<linearGradient id="paint33_linear_2013_3244" x1="65.0598" y1="-22.4999" x2="65.0598" y2="-22.4999" gradientUnits="userSpaceOnUse">
<stop stop-color="#A44135"/>
<stop offset="0.06" stop-color="#A64336"/>
<stop offset="0.61" stop-color="#B9543E"/>
<stop offset="0.99" stop-color="#C05B42"/>
</linearGradient>
<linearGradient id="paint34_linear_2013_3244" x1="50.5303" y1="110.118" x2="50.5303" y2="-22.4991" gradientUnits="userSpaceOnUse">
<stop stop-color="#A44135"/>
<stop offset="0.06" stop-color="#A64336"/>
<stop offset="0.61" stop-color="#B9543E"/>
<stop offset="0.99" stop-color="#C05B42"/>
</linearGradient>
<linearGradient id="paint35_linear_2013_3244" x1="60.2197" y1="110.118" x2="60.2197" y2="-22.4991" gradientUnits="userSpaceOnUse">
<stop stop-color="#A44135"/>
<stop offset="0.06" stop-color="#A64336"/>
<stop offset="0.61" stop-color="#B9543E"/>
<stop offset="0.99" stop-color="#C05B42"/>
</linearGradient>
<linearGradient id="paint36_linear_2013_3244" x1="25.4902" y1="61.606" x2="60.0702" y2="61.606" gradientUnits="userSpaceOnUse">
<stop stop-color="#FF7F49"/>
<stop offset="0.99" stop-color="#FFA236"/>
</linearGradient>
<linearGradient id="paint37_linear_2013_3244" x1="26.9395" y1="49.4228" x2="57.9595" y2="49.4228" gradientUnits="userSpaceOnUse">
<stop stop-color="#A44135"/>
<stop offset="0.06" stop-color="#A64336"/>
<stop offset="0.61" stop-color="#B9543E"/>
<stop offset="0.99" stop-color="#C05B42"/>
</linearGradient>
<linearGradient id="paint38_linear_2013_3244" x1="42.1396" y1="62.3798" x2="43.1196" y2="62.3798" gradientUnits="userSpaceOnUse">
<stop stop-color="#A44135"/>
<stop offset="0.06" stop-color="#A64336"/>
<stop offset="0.61" stop-color="#B9543E"/>
<stop offset="0.99" stop-color="#C05B42"/>
</linearGradient>
<linearGradient id="paint39_linear_2013_3244" x1="26.9297" y1="53.0619" x2="58.0896" y2="53.0619" gradientUnits="userSpaceOnUse">
<stop stop-color="#A44135"/>
<stop offset="0.06" stop-color="#A64336"/>
<stop offset="0.61" stop-color="#B9543E"/>
<stop offset="0.99" stop-color="#C05B42"/>
</linearGradient>
<linearGradient id="paint40_linear_2013_3244" x1="41.8799" y1="62.062" x2="42.8599" y2="62.062" gradientUnits="userSpaceOnUse">
<stop stop-color="#FF7F49"/>
<stop offset="0.99" stop-color="#FFA236"/>
</linearGradient>
<linearGradient id="paint41_linear_2013_3244" x1="26.2305" y1="52.7441" x2="58.5205" y2="52.7441" gradientUnits="userSpaceOnUse">
<stop stop-color="#FF7F49"/>
<stop offset="0.99" stop-color="#FFA236"/>
</linearGradient>
<linearGradient id="paint42_linear_2013_3244" x1="59.6602" y1="75.17" x2="59.6602" y2="52.8921" gradientUnits="userSpaceOnUse">
<stop stop-color="#A44135"/>
<stop offset="0.06" stop-color="#A64336"/>
<stop offset="0.61" stop-color="#B9543E"/>
<stop offset="0.99" stop-color="#C05B42"/>
</linearGradient>
<linearGradient id="paint43_linear_2013_3244" x1="71.4096" y1="-22.4991" x2="71.4096" y2="-22.4991" gradientUnits="userSpaceOnUse">
<stop stop-color="#FF7F49"/>
<stop offset="0.99" stop-color="#FFA236"/>
</linearGradient>
<linearGradient id="paint44_linear_2013_3244" x1="71.4096" y1="81.7159" x2="71.4096" y2="77.5909" gradientUnits="userSpaceOnUse">
<stop stop-color="#FF7F49"/>
<stop offset="0.99" stop-color="#FFA236"/>
</linearGradient>
<linearGradient id="paint45_linear_2013_3244" x1="71.4096" y1="94.08" x2="71.4096" y2="89.959" gradientUnits="userSpaceOnUse">
<stop stop-color="#FF7F49"/>
<stop offset="0.99" stop-color="#FFA236"/>
</linearGradient>
<linearGradient id="paint46_linear_2013_3244" x1="71.4096" y1="89.958" x2="71.4096" y2="85.837" gradientUnits="userSpaceOnUse">
<stop stop-color="#FF7F49"/>
<stop offset="0.99" stop-color="#FFA236"/>
</linearGradient>
<linearGradient id="paint47_linear_2013_3244" x1="71.4096" y1="102.326" x2="71.4096" y2="98.2012" gradientUnits="userSpaceOnUse">
<stop stop-color="#FF7F49"/>
<stop offset="0.99" stop-color="#FFA236"/>
</linearGradient>
<linearGradient id="paint48_linear_2013_3244" x1="71.4096" y1="98.2021" x2="71.4096" y2="94.0801" gradientUnits="userSpaceOnUse">
<stop stop-color="#FF7F49"/>
<stop offset="0.99" stop-color="#FFA236"/>
</linearGradient>
<linearGradient id="paint49_linear_2013_3244" x1="71.4096" y1="110.57" x2="71.4096" y2="106.448" gradientUnits="userSpaceOnUse">
<stop stop-color="#FF7F49"/>
<stop offset="0.99" stop-color="#FFA236"/>
</linearGradient>
<linearGradient id="paint50_linear_2013_3244" x1="71.4096" y1="106.449" x2="71.4096" y2="102.327" gradientUnits="userSpaceOnUse">
<stop stop-color="#FF7F49"/>
<stop offset="0.99" stop-color="#FFA236"/>
</linearGradient>
<linearGradient id="paint51_linear_2013_3244" x1="59.26" y1="85.112" x2="59.26" y2="0" gradientUnits="userSpaceOnUse">
<stop stop-color="#9F2A3B"/>
<stop offset="0.99" stop-color="#A73E43"/>
</linearGradient>
<linearGradient id="paint52_linear_2013_3244" x1="10.5197" y1="75.1712" x2="10.5197" y2="63.1372" gradientUnits="userSpaceOnUse">
<stop stop-color="#A44135"/>
<stop offset="0.06" stop-color="#A64336"/>
<stop offset="0.61" stop-color="#B9543E"/>
<stop offset="0.99" stop-color="#C05B42"/>
</linearGradient>
<linearGradient id="paint53_linear_2013_3244" x1="15.38" y1="75.1712" x2="15.38" y2="63.1372" gradientUnits="userSpaceOnUse">
<stop stop-color="#A44135"/>
<stop offset="0.06" stop-color="#A64336"/>
<stop offset="0.61" stop-color="#B9543E"/>
<stop offset="0.99" stop-color="#C05B42"/>
</linearGradient>
<linearGradient id="paint54_linear_2013_3244" x1="20.2504" y1="75.1712" x2="20.2504" y2="63.1372" gradientUnits="userSpaceOnUse">
<stop stop-color="#A44135"/>
<stop offset="0.06" stop-color="#A64336"/>
<stop offset="0.61" stop-color="#B9543E"/>
<stop offset="0.99" stop-color="#C05B42"/>
</linearGradient>
<linearGradient id="paint55_linear_2013_3244" x1="25.1105" y1="75.1712" x2="25.1105" y2="63.1372" gradientUnits="userSpaceOnUse">
<stop stop-color="#A44135"/>
<stop offset="0.06" stop-color="#A64336"/>
<stop offset="0.61" stop-color="#B9543E"/>
<stop offset="0.99" stop-color="#C05B42"/>
</linearGradient>
<linearGradient id="paint56_linear_2013_3244" x1="29.9699" y1="75.1712" x2="29.9699" y2="63.1372" gradientUnits="userSpaceOnUse">
<stop stop-color="#A44135"/>
<stop offset="0.06" stop-color="#A64336"/>
<stop offset="0.61" stop-color="#B9543E"/>
<stop offset="0.99" stop-color="#C05B42"/>
</linearGradient>
<linearGradient id="paint57_linear_2013_3244" x1="34.8402" y1="75.1712" x2="34.8402" y2="63.1372" gradientUnits="userSpaceOnUse">
<stop stop-color="#A44135"/>
<stop offset="0.06" stop-color="#A64336"/>
<stop offset="0.61" stop-color="#B9543E"/>
<stop offset="0.99" stop-color="#C05B42"/>
</linearGradient>
<linearGradient id="paint58_linear_2013_3244" x1="39.7003" y1="75.1712" x2="39.7003" y2="63.1372" gradientUnits="userSpaceOnUse">
<stop stop-color="#A44135"/>
<stop offset="0.06" stop-color="#A64336"/>
<stop offset="0.61" stop-color="#B9543E"/>
<stop offset="0.99" stop-color="#C05B42"/>
</linearGradient>
<linearGradient id="paint59_linear_2013_3244" x1="44.5596" y1="75.1712" x2="44.5596" y2="63.1372" gradientUnits="userSpaceOnUse">
<stop stop-color="#A44135"/>
<stop offset="0.06" stop-color="#A64336"/>
<stop offset="0.61" stop-color="#B9543E"/>
<stop offset="0.99" stop-color="#C05B42"/>
</linearGradient>
<linearGradient id="paint60_linear_2013_3244" x1="49.4298" y1="75.1712" x2="49.4298" y2="63.1372" gradientUnits="userSpaceOnUse">
<stop stop-color="#A44135"/>
<stop offset="0.06" stop-color="#A64336"/>
<stop offset="0.61" stop-color="#B9543E"/>
<stop offset="0.99" stop-color="#C05B42"/>
</linearGradient>
<linearGradient id="paint61_linear_2013_3244" x1="54.2902" y1="75.1712" x2="54.2902" y2="63.1372" gradientUnits="userSpaceOnUse">
<stop stop-color="#A44135"/>
<stop offset="0.06" stop-color="#A64336"/>
<stop offset="0.61" stop-color="#B9543E"/>
<stop offset="0.99" stop-color="#C05B42"/>
</linearGradient>
<linearGradient id="paint62_linear_2013_3244" x1="59.1595" y1="75.1712" x2="59.1595" y2="63.1372" gradientUnits="userSpaceOnUse">
<stop stop-color="#A44135"/>
<stop offset="0.06" stop-color="#A64336"/>
<stop offset="0.61" stop-color="#B9543E"/>
<stop offset="0.99" stop-color="#C05B42"/>
</linearGradient>
<linearGradient id="paint63_linear_2013_3244" x1="64.0197" y1="75.1712" x2="64.0197" y2="63.1372" gradientUnits="userSpaceOnUse">
<stop stop-color="#A44135"/>
<stop offset="0.06" stop-color="#A64336"/>
<stop offset="0.61" stop-color="#B9543E"/>
<stop offset="0.99" stop-color="#C05B42"/>
</linearGradient>
<linearGradient id="paint64_linear_2013_3244" x1="40.4299" y1="77.9738" x2="40.4299" y2="75.1709" gradientUnits="userSpaceOnUse">
<stop stop-color="#A44135"/>
<stop offset="0.06" stop-color="#A64336"/>
<stop offset="0.61" stop-color="#B9543E"/>
<stop offset="0.99" stop-color="#C05B42"/>
</linearGradient>
<linearGradient id="paint65_linear_2013_3244" x1="7.87988" y1="75.6719" x2="72.9698" y2="75.6719" gradientUnits="userSpaceOnUse">
<stop offset="0.01" stop-color="#FFC49D"/>
<stop offset="1" stop-color="#FFECB3"/>
</linearGradient>
<linearGradient id="paint66_linear_2013_3244" x1="11.1895" y1="110.547" x2="65.9395" y2="110.547" gradientUnits="userSpaceOnUse">
<stop offset="0.01" stop-color="#FFC49D"/>
<stop offset="1" stop-color="#FFECB3"/>
</linearGradient>
<linearGradient id="paint67_linear_2013_3244" x1="37.74" y1="78.597" x2="37.74" y2="0" gradientUnits="userSpaceOnUse">
<stop stop-color="#FF7F49"/>
<stop offset="0.99" stop-color="#FFA236"/>
</linearGradient>
<linearGradient id="paint68_linear_2013_3244" x1="36.4399" y1="63.4142" x2="36.4399" y2="61.8682" gradientUnits="userSpaceOnUse">
<stop stop-color="#A44135"/>
<stop offset="0.06" stop-color="#A64336"/>
<stop offset="0.61" stop-color="#B9543E"/>
<stop offset="0.99" stop-color="#C05B42"/>
</linearGradient>
<linearGradient id="paint69_linear_2013_3244" x1="27.7895" y1="98.0188" x2="27.7895" y2="85.1108" gradientUnits="userSpaceOnUse">
<stop stop-color="#9F2A3B"/>
<stop offset="0.99" stop-color="#882A30"/>
</linearGradient>
<linearGradient id="paint70_linear_2013_3244" x1="27.52" y1="98.0188" x2="27.52" y2="85.1108" gradientUnits="userSpaceOnUse">
<stop offset="0.01" stop-color="#C58D77"/>
<stop offset="1" stop-color="#FFB3A2"/>
</linearGradient>
<linearGradient id="paint71_linear_2013_3244" x1="60.9805" y1="119.539" x2="60.9805" y2="112.663" gradientUnits="userSpaceOnUse">
<stop stop-color="#621627"/>
<stop offset="0.99" stop-color="#53070D"/>
</linearGradient>
<linearGradient id="paint72_linear_2013_3244" x1="60.9805" y1="112.663" x2="60.9805" y2="110.114" gradientUnits="userSpaceOnUse">
<stop stop-color="#A44135"/>
<stop offset="0.06" stop-color="#A64336"/>
<stop offset="0.61" stop-color="#B9543E"/>
<stop offset="0.99" stop-color="#C05B42"/>
</linearGradient>
<linearGradient id="paint73_linear_2013_3244" x1="29.0903" y1="126" x2="29.0903" y2="112.663" gradientUnits="userSpaceOnUse">
<stop stop-color="#621627"/>
<stop offset="0.99" stop-color="#53070D"/>
</linearGradient>
<linearGradient id="paint74_linear_2013_3244" x1="22.8195" y1="115.33" x2="22.8195" y2="112.663" gradientUnits="userSpaceOnUse">
<stop stop-color="#D26046"/>
<stop offset="0.99" stop-color="#FB9C62"/>
</linearGradient>
<linearGradient id="paint75_linear_2013_3244" x1="20.76" y1="117.997" x2="20.76" y2="115.33" gradientUnits="userSpaceOnUse">
<stop stop-color="#D26046"/>
<stop offset="0.99" stop-color="#FB9C62"/>
</linearGradient>
<linearGradient id="paint76_linear_2013_3244" x1="18.76" y1="120.663" x2="18.76" y2="117.996" gradientUnits="userSpaceOnUse">
<stop stop-color="#D26046"/>
<stop offset="0.99" stop-color="#FB9C62"/>
</linearGradient>
<linearGradient id="paint77_linear_2013_3244" x1="16.7004" y1="123.334" x2="16.7004" y2="120.663" gradientUnits="userSpaceOnUse">
<stop stop-color="#D26046"/>
<stop offset="0.99" stop-color="#FB9C62"/>
</linearGradient>
<linearGradient id="paint78_linear_2013_3244" x1="14.5803" y1="126" x2="14.5803" y2="123.333" gradientUnits="userSpaceOnUse">
<stop stop-color="#D26046"/>
<stop offset="0.99" stop-color="#FB9C62"/>
</linearGradient>
<linearGradient id="paint79_linear_2013_3244" x1="55.4396" y1="104.386" x2="55.4396" y2="102.323" gradientUnits="userSpaceOnUse">
<stop stop-color="#A44135"/>
<stop offset="0.06" stop-color="#A64336"/>
<stop offset="0.61" stop-color="#B9543E"/>
<stop offset="0.99" stop-color="#C05B42"/>
</linearGradient>
<linearGradient id="paint80_linear_2013_3244" x1="50.5303" y1="104.386" x2="50.5303" y2="110.141" gradientUnits="userSpaceOnUse">
<stop stop-color="#CB5646"/>
<stop offset="0.99" stop-color="#FF823C"/>
</linearGradient>
<linearGradient id="paint81_linear_2013_3244" x1="55.4396" y1="102.323" x2="55.4396" y2="102.73" gradientUnits="userSpaceOnUse">
<stop offset="0.01" stop-color="#FFC49D"/>
<stop offset="1" stop-color="#FFECB3"/>
</linearGradient>
<linearGradient id="paint82_linear_2013_3244" x1="65.0703" y1="121.833" x2="78.6504" y2="121.833" gradientUnits="userSpaceOnUse">
<stop stop-color="#621627"/>
<stop offset="0.99" stop-color="#53070D"/>
</linearGradient>
<linearGradient id="paint83_linear_2013_3244" x1="101.62" y1="121.833" x2="112.48" y2="121.833" gradientUnits="userSpaceOnUse">
<stop stop-color="#621627"/>
<stop offset="0.99" stop-color="#53070D"/>
</linearGradient>
<linearGradient id="paint84_linear_2013_3244" x1="38.1299" y1="31.3762" x2="46.8699" y2="31.3762" gradientUnits="userSpaceOnUse">
<stop stop-color="#A44135"/>
<stop offset="0.06" stop-color="#A64336"/>
<stop offset="0.61" stop-color="#B9543E"/>
<stop offset="0.99" stop-color="#C05B42"/>
</linearGradient>
<linearGradient id="paint85_linear_2013_3244" x1="38.25" y1="31.4639" x2="46.58" y2="31.4639" gradientUnits="userSpaceOnUse">
<stop stop-color="#FF7F49"/>
<stop offset="0.99" stop-color="#FFA236"/>
</linearGradient>
<linearGradient id="paint86_linear_2013_3244" x1="40.5996" y1="32.8578" x2="43.7997" y2="32.8578" gradientUnits="userSpaceOnUse">
<stop stop-color="#A44135"/>
<stop offset="0.06" stop-color="#A64336"/>
<stop offset="0.61" stop-color="#B9543E"/>
<stop offset="0.99" stop-color="#C05B42"/>
</linearGradient>
<linearGradient id="paint87_linear_2013_3244" x1="40.5498" y1="32.847" x2="43.7898" y2="32.847" gradientUnits="userSpaceOnUse">
<stop stop-color="#FF7F49"/>
<stop offset="0.99" stop-color="#FFA236"/>
</linearGradient>
<linearGradient id="paint88_linear_2013_3244" x1="88.1299" y1="60.0221" x2="88.1299" y2="19.665" gradientUnits="userSpaceOnUse">
<stop offset="0.01" stop-color="#B87277"/>
<stop offset="1" stop-color="#E17F49"/>
</linearGradient>
<linearGradient id="paint89_linear_2013_3244" x1="88.13" y1="19.73" x2="88.13" y2="17.021" gradientUnits="userSpaceOnUse">
<stop stop-color="#621627"/>
<stop offset="0.99" stop-color="#53070D"/>
</linearGradient>
</defs>
</svg>
