<svg width="57" height="113" viewBox="0 0 57 113" fill="none" xmlns="http://www.w3.org/2000/svg">
<path d="M2.1388 93.5253C8.56597 107.053 19.7594 111.795 25.5222 113C15.8806 106.819 14.9939 97.7234 14.196 93.5253C11.9235 81.5687 20.8677 71.6016 20.8677 62.9721C20.8677 49.4593 11.1892 41.1262 11.0045 37.0836C9.54156 52.9432 9.09777 55.9752 5.77356 65.5377C2.44935 75.1001 -3.06567 82.5714 2.1388 93.5253Z" fill="url(#paint0_linear_10_29)"/>
<path d="M33.5015 29.387C21.9485 15.6645 26.7974 4.44988 30.7973 0.387731C25.8685 3.80209 18.5623 14.157 17.2106 29.387C15.3961 49.8306 28.9061 60.7205 31.3959 70.4355C33.3683 78.1321 36.1118 83.3798 31.3959 93.5253C26.4088 104.254 19.5379 102.854 20.8677 104.254C30.7309 106.703 45.3595 99.7059 50.5682 91.7761C55.7768 83.8462 57.8824 75.2167 56.6634 65.5377C55.4443 55.8586 48.1301 46.7626 33.5015 29.387Z" fill="url(#paint1_linear_10_29)"/>
<path d="M16.1795 46.6466C16.4311 51.6642 17.8003 63.4892 13.7401 71.835C7.15903 85.3624 2.21413 101.689 25.2665 112.884C19.1124 109.268 10.8476 98.0304 17.6136 81.901C24.3797 65.7717 22.7912 59.1934 16.1795 46.6466Z" fill="url(#paint2_linear_10_29)"/>
<path d="M19.9582 48.4452C11.0707 24.2871 22.1798 6.38854 29.553 1.38058C21.7919 9.92559 19.9221 20.7684 19.9376 32.5311C19.9499 41.9412 24.8941 50.2832 31.5156 60.883C44.7585 82.0827 33.2088 94.7847 29.6804 98.2495C26.8578 101.021 22.7005 103.718 20.0313 103.799C35.8442 92.8896 32.9664 77.487 31.5304 72.1844C28.596 61.3485 22.5024 55.3608 19.9582 48.4452Z" fill="url(#paint3_linear_10_29)"/>
<defs>
<linearGradient id="paint0_linear_10_29" x1="7.09264" y1="38.2497" x2="77.5553" y2="70.8726" gradientUnits="userSpaceOnUse">
<stop offset="0.441485" stop-color="#FFFEFD"/>
<stop offset="0.982456" stop-color="#D7CFCC"/>
</linearGradient>
<linearGradient id="paint1_linear_10_29" x1="7.09264" y1="38.2497" x2="77.5553" y2="70.8726" gradientUnits="userSpaceOnUse">
<stop offset="0.441485" stop-color="#FFFEFD"/>
<stop offset="0.982456" stop-color="#D7CFCC"/>
</linearGradient>
<linearGradient id="paint2_linear_10_29" x1="15.5129" y1="83.4967" x2="21.2622" y2="46.0368" gradientUnits="userSpaceOnUse">
<stop offset="0.14247" stop-color="#D2C9BF"/>
<stop offset="0.978868" stop-color="#FDFDFD"/>
</linearGradient>
<linearGradient id="paint3_linear_10_29" x1="33.9133" y1="103.787" x2="26.555" y2="8.91777" gradientUnits="userSpaceOnUse">
<stop offset="0.0289996" stop-color="#D2C9BF"/>
<stop offset="1" stop-color="#F8F7F6"/>
</linearGradient>
</defs>
</svg>
