<svg width="60" height="113" viewBox="0 0 60 113" fill="none" xmlns="http://www.w3.org/2000/svg">
<path d="M2.25137 93.5253C9.01681 107.053 20.7994 111.795 26.8655 113C16.7164 106.819 15.7831 97.7234 14.9432 93.5253C12.551 81.5687 21.966 71.6016 21.966 62.9721C21.966 49.4593 11.7781 41.1262 11.5837 37.0836C10.0437 52.9432 9.5766 55.9752 6.07743 65.5377C2.57826 75.1001 -3.22702 82.5714 2.25137 93.5253Z" fill="url(#paint0_linear_10_87)"/>
<path d="M35.2647 29.387C23.1037 15.6645 28.2078 4.44988 32.4182 0.387735C27.2299 3.8021 19.5393 14.157 18.1164 29.387C16.2064 49.8306 30.4275 60.7205 33.0483 70.4355C35.1245 78.1321 38.0125 83.3798 33.0483 93.5253C27.7988 104.254 20.5662 102.854 21.966 104.254C32.3484 106.703 47.7468 99.7059 53.2296 91.7761C58.7124 83.8462 60.9289 75.2167 59.6457 65.5377C58.3625 55.8586 50.6632 46.7626 35.2647 29.387Z" fill="url(#paint1_linear_10_87)"/>
<path d="M17.0334 46.6461C17.2983 51.6637 18.7395 63.4887 14.4656 71.8345C7.53816 85.3619 2.33301 101.688 26.5987 112.884C20.1207 109.267 11.4209 98.03 18.543 81.9006C25.6651 65.7712 23.993 59.1929 17.0334 46.6461Z" fill="url(#paint2_linear_10_87)"/>
<path d="M21.0067 48.4452C11.6514 24.2871 23.3452 6.38854 31.1065 1.38058C22.9369 9.92559 20.9687 20.7684 20.985 32.5311C20.998 41.9412 26.2023 50.2832 33.1723 60.883C47.1123 82.0826 34.9546 94.7847 31.2406 98.2494C28.2694 101.021 23.8933 103.718 21.0836 103.799C37.7288 92.8896 34.6995 77.487 33.188 72.1844C30.0991 61.3485 23.6847 55.3608 21.0067 48.4452Z" fill="url(#paint3_linear_10_87)"/>
<defs>
<linearGradient id="paint0_linear_10_87" x1="7.46594" y1="38.2497" x2="80.2492" y2="73.7205" gradientUnits="userSpaceOnUse">
<stop offset="0.525" stop-color="#FF3C00"/>
<stop offset="0.982456" stop-color="#992400"/>
</linearGradient>
<linearGradient id="paint1_linear_10_87" x1="7.46594" y1="38.2497" x2="80.2492" y2="73.7205" gradientUnits="userSpaceOnUse">
<stop offset="0.525" stop-color="#FF3C00"/>
<stop offset="0.982456" stop-color="#992400"/>
</linearGradient>
<linearGradient id="paint2_linear_10_87" x1="16.3318" y1="83.4962" x2="26.8841" y2="50.8881" gradientUnits="userSpaceOnUse">
<stop offset="0.14247" stop-color="#FDA03C"/>
<stop offset="0.978868" stop-color="#FFCC00"/>
</linearGradient>
<linearGradient id="paint3_linear_10_87" x1="28.6524" y1="1.38398" x2="28.7941" y2="103.788" gradientUnits="userSpaceOnUse">
<stop offset="0.0289996" stop-color="#FFCC00"/>
<stop offset="1" stop-color="#FDA03C"/>
</linearGradient>
</defs>
</svg>
