<svg width="32" height="58" viewBox="0 0 32 58" fill="none" xmlns="http://www.w3.org/2000/svg">
<path d="M1.20073 48.0041C4.80896 54.9474 11.093 57.3815 14.3283 58C8.91541 54.8277 8.41765 50.1589 7.9697 48.0041C6.69389 41.8671 11.7152 36.7513 11.7152 32.322C11.7152 25.3862 6.28166 21.109 6.17797 19.0341C5.35667 27.1744 5.10752 28.7306 3.2413 33.6388C1.37507 38.547 -1.72108 42.3818 1.20073 48.0041Z" fill="url(#paint0_linear_10_262)"/>
<path d="M18.8079 15.0836C12.322 8.04021 15.0442 2.28401 17.2897 0.199015C14.5226 1.95152 10.4209 7.26642 9.66208 15.0836C8.64344 25.5767 16.228 31.1663 17.6257 36.1527C18.7331 40.1032 20.2733 42.7967 17.6257 48.0041C14.826 53.5108 10.9686 52.7926 11.7152 53.5108C17.2525 54.7678 25.465 51.1765 28.3891 47.1063C31.3133 43.0361 32.4954 38.6068 31.811 33.6388C31.1266 28.6708 27.0204 24.0021 18.8079 15.0836Z" fill="url(#paint1_linear_10_262)"/>
<path d="M9.08456 23.9427C9.22583 26.5181 9.9945 32.5875 7.71507 36.8712C4.02043 43.8145 1.24435 52.1943 14.1861 57.9407C10.7311 56.0844 6.0912 50.3167 9.88968 42.0379C13.6882 33.7591 12.7964 30.3826 9.08456 23.9427Z" fill="url(#paint2_linear_10_262)"/>
<path d="M11.204 24.8657C6.21458 12.4659 12.4513 3.2791 16.5906 0.708642C12.2335 5.09457 11.1838 10.6599 11.1924 16.6974C11.1994 21.5274 13.975 25.8091 17.6924 31.2497C25.127 42.1309 18.6429 48.6506 16.6621 50.4289C15.0775 51.8516 12.7436 53.2359 11.2451 53.2773C20.1225 47.6779 18.5069 39.7721 17.7007 37.0504C16.0533 31.4887 12.6323 28.4153 11.204 24.8657Z" fill="url(#paint3_linear_10_262)"/>
<defs>
<linearGradient id="paint0_linear_10_262" x1="3.98184" y1="19.6326" x2="42.2149" y2="38.9936" gradientUnits="userSpaceOnUse">
<stop offset="0.441485" stop-color="#FFFEFD"/>
<stop offset="0.982456" stop-color="#D7CFCC"/>
</linearGradient>
<linearGradient id="paint1_linear_10_262" x1="3.98184" y1="19.6326" x2="42.2149" y2="38.9936" gradientUnits="userSpaceOnUse">
<stop offset="0.441485" stop-color="#FFFEFD"/>
<stop offset="0.982456" stop-color="#D7CFCC"/>
</linearGradient>
<linearGradient id="paint2_linear_10_262" x1="8.71035" y1="42.8569" x2="11.4185" y2="23.5568" gradientUnits="userSpaceOnUse">
<stop offset="0.14247" stop-color="#D2C9BF"/>
<stop offset="0.978868" stop-color="#FDFDFD"/>
</linearGradient>
<linearGradient id="paint3_linear_10_262" x1="19.0385" y1="53.2715" x2="15.582" y2="4.52945" gradientUnits="userSpaceOnUse">
<stop offset="0.0289996" stop-color="#D2C9BF"/>
<stop offset="1" stop-color="#F8F7F6"/>
</linearGradient>
</defs>
</svg>
