<svg width="40" height="40" viewBox="0 0 40 40" fill="none" xmlns="http://www.w3.org/2000/svg">
    <path fill-rule="evenodd" clip-rule="evenodd" d="M25.376 0H14.624C2.58 0 0 2.584 0 14.624V25.376C0 37.42 2.584 40 14.624 40H25.376C37.42 40 40 37.416 40 25.376V14.624C40 2.58 37.416 0 25.376 0ZM20.3294 35.1332C17.3291 35.1332 15.9348 34.6952 13.5113 32.9432C11.9783 34.9142 7.12382 36.4545 6.91212 33.8192C6.91212 31.8409 6.47413 30.1692 5.97773 28.3442C5.38644 26.0958 4.71484 23.592 4.71484 19.9639C4.71484 11.2989 11.825 4.78003 20.2491 4.78003C28.6805 4.78003 35.287 11.6201 35.287 20.0442C35.3153 28.338 28.6232 35.0889 20.3294 35.1332ZM20.4535 12.2698C16.3509 12.0581 13.1536 14.8977 12.4455 19.3507C11.8615 23.0372 12.8981 27.5266 13.7814 27.7602C14.2048 27.8624 15.2706 27.001 15.9348 26.3367C17.0333 27.0956 18.3124 27.5513 19.6432 27.658C23.8941 27.8625 27.5264 24.6263 27.8118 20.38C27.978 16.1247 24.705 12.5206 20.4535 12.2771L20.4535 12.2698Z" fill="#FF3C00"/>
</svg>