<svg width="40" height="40" viewBox="0 0 40 40" fill="none" xmlns="http://www.w3.org/2000/svg">
<g clip-path="url(#clip0_10_80)">
<path fill-rule="evenodd" clip-rule="evenodd" d="M34.1057 5.81333C30.3624 2.06667 25.3857 0.00166667 20.084 0C9.15904 0 0.26737 8.89 0.26237 19.82C0.260703 23.3133 1.17404 26.7233 2.90904 29.73L0.0957031 40L10.6024 37.2433C13.4974 38.8233 16.7574 39.655 20.074 39.6567H20.0824C31.0057 39.6567 39.899 30.765 39.904 19.835C39.9074 14.54 37.8474 9.55833 34.1057 5.81333ZM20.084 36.3083H20.0774C17.1207 36.3083 14.2224 35.5133 11.6924 34.0117L11.0907 33.655L4.8557 35.29L6.5207 29.21L6.12904 28.5867C4.47904 25.9633 3.60904 22.9317 3.6107 19.82C3.61404 10.7367 11.0057 3.34667 20.0924 3.34667C24.4924 3.34667 28.629 5.06333 31.739 8.17667C34.849 11.2917 36.5607 15.43 36.559 19.8317C36.554 28.9183 29.164 36.3083 20.084 36.3083ZM29.1207 23.97C28.6257 23.7217 26.1907 22.5233 25.7357 22.3583C25.2824 22.1933 24.9524 22.11 24.6207 22.605C24.289 23.1 23.3424 24.2167 23.0524 24.5483C22.764 24.8783 22.474 24.92 21.979 24.6717C21.484 24.4233 19.8874 23.9017 17.9957 22.2133C16.524 20.9 15.529 19.2783 15.2407 18.7817C14.9524 18.285 15.2107 18.0183 15.4574 17.7717C15.6807 17.55 15.9524 17.1933 16.2007 16.9033C16.4507 16.6167 16.5324 16.41 16.699 16.0783C16.864 15.7483 16.7824 15.4583 16.6574 15.21C16.5324 14.9633 15.5424 12.525 15.1307 11.5333C14.729 10.5667 14.3207 10.6983 14.0157 10.6833C13.7274 10.6683 13.3974 10.6667 13.0657 10.6667C12.7357 10.6667 12.199 10.79 11.7457 11.2867C11.2924 11.7833 10.0124 12.9817 10.0124 15.4183C10.0124 17.8567 11.7874 20.2117 12.034 20.5417C12.2807 20.8717 15.5257 25.875 20.494 28.02C21.6757 28.53 22.599 28.835 23.3174 29.0633C24.504 29.44 25.584 29.3867 26.4374 29.26C27.389 29.1183 29.3674 28.0617 29.7807 26.905C30.194 25.7483 30.194 24.755 30.069 24.55C29.9457 24.3417 29.6157 24.2183 29.1207 23.97Z" fill="#FF3C00"/>
</g>
<defs>
<clipPath id="clip0_10_80">
<rect width="40" height="40" fill="white"/>
</clipPath>
</defs>
</svg>
