<svg width="274" height="44" viewBox="0 0 274 44" fill="none" xmlns="http://www.w3.org/2000/svg">
<path d="M0.00019145 0.736033H7.77419V26.266H20.7002V32.936H0.00019145V0.736033ZM29.3043 16.836C29.3043 18.7374 29.6723 20.424 30.4083 21.896C31.175 23.3374 32.233 24.472 33.5823 25.3C34.9623 26.128 36.5723 26.542 38.4123 26.542C40.2217 26.542 41.801 26.128 43.1503 25.3C44.5303 24.472 45.5883 23.3374 46.3243 21.896C47.091 20.424 47.4743 18.7374 47.4743 16.836C47.4743 14.9347 47.1063 13.2634 46.3704 11.822C45.6343 10.35 44.5917 9.20003 43.2423 8.37203C41.893 7.54403 40.283 7.13003 38.4123 7.13003C36.5723 7.13003 34.9623 7.54403 33.5823 8.37203C32.233 9.20003 31.175 10.35 30.4083 11.822C29.6723 13.2634 29.3043 14.9347 29.3043 16.836ZM21.0703 16.836C21.0703 14.352 21.4997 12.0827 22.3583 10.028C23.2477 7.97337 24.4743 6.1947 26.0383 4.69203C27.6023 3.18937 29.4423 2.03937 31.5583 1.24203C33.6743 0.414034 35.959 3.42131e-05 38.4123 3.42131e-05C40.8963 3.42131e-05 43.181 0.414034 45.2663 1.24203C47.3823 2.03937 49.2223 3.18937 50.7863 4.69203C52.3503 6.1947 53.5617 7.97337 54.4204 10.028C55.279 12.0827 55.7084 14.352 55.7084 16.836C55.7084 19.32 55.279 21.6047 54.4204 23.69C53.5924 25.7754 52.3964 27.5847 50.8324 29.118C49.299 30.6514 47.4743 31.8474 45.3583 32.706C43.2423 33.534 40.927 33.948 38.4123 33.948C35.867 33.948 33.5363 33.534 31.4203 32.706C29.3043 31.8474 27.4643 30.6514 25.9003 29.118C24.367 27.5847 23.171 25.7754 22.3123 23.69C21.4843 21.6047 21.0703 19.32 21.0703 16.836ZM60.6896 0.736033H68.7396V32.936H60.6896V0.736033ZM79.6876 0.736033H88.7956L75.7316 15.824L89.4856 32.936H80.0556L66.4856 16.054L79.6876 0.736033ZM96.9567 16.836C96.9567 18.7374 97.3247 20.424 98.0607 21.896C98.8274 23.3374 99.8854 24.472 101.235 25.3C102.615 26.128 104.225 26.542 106.065 26.542C107.874 26.542 109.453 26.128 110.803 25.3C112.183 24.472 113.241 23.3374 113.977 21.896C114.743 20.424 115.127 18.7374 115.127 16.836C115.127 14.9347 114.759 13.2634 114.023 11.822C113.287 10.35 112.244 9.20003 110.895 8.37203C109.545 7.54403 107.935 7.13003 106.065 7.13003C104.225 7.13003 102.615 7.54403 101.235 8.37203C99.8854 9.20003 98.8274 10.35 98.0607 11.822C97.3247 13.2634 96.9567 14.9347 96.9567 16.836ZM88.7227 16.836C88.7227 14.352 89.152 12.0827 90.0107 10.028C90.9 7.97337 92.1267 6.1947 93.6907 4.69203C95.2547 3.18937 97.0947 2.03937 99.2107 1.24203C101.327 0.414034 103.611 3.42131e-05 106.065 3.42131e-05C108.549 3.42131e-05 110.833 0.414034 112.919 1.24203C115.035 2.03937 116.875 3.18937 118.439 4.69203C120.003 6.1947 121.214 7.97337 122.073 10.028C122.931 12.0827 123.361 14.352 123.361 16.836C123.361 19.32 122.931 21.6047 122.073 23.69C121.245 25.7754 120.049 27.5847 118.485 29.118C116.951 30.6514 115.127 31.8474 113.011 32.706C110.895 33.534 108.579 33.948 106.065 33.948C103.519 33.948 101.189 33.534 99.0727 32.706C96.9567 31.8474 95.1167 30.6514 93.5527 29.118C92.0194 27.5847 90.8234 25.7754 89.9647 23.69C89.1367 21.6047 88.7227 19.32 88.7227 16.836Z" fill="#C8102E"/>
<path d="M144.341 23.506V20.056H152.161V23.506H144.341ZM142.179 11.776H145.859V32.936H142.179V11.776ZM149.539 22.356C149.539 20.2094 150.014 18.308 150.965 16.652C151.946 14.996 153.265 13.6927 154.921 12.742C156.577 11.7914 158.432 11.316 160.487 11.316C162.572 11.316 164.428 11.7914 166.053 12.742C167.709 13.6927 169.012 14.996 169.963 16.652C170.944 18.308 171.435 20.2094 171.435 22.356C171.435 24.472 170.944 26.3734 169.963 28.06C169.012 29.716 167.709 31.0194 166.053 31.97C164.428 32.9207 162.572 33.396 160.487 33.396C158.432 33.396 156.577 32.9207 154.921 31.97C153.265 31.0194 151.946 29.716 150.965 28.06C150.014 26.3734 149.539 24.472 149.539 22.356ZM153.265 22.356C153.265 23.828 153.572 25.1314 154.185 26.266C154.829 27.4007 155.688 28.3054 156.761 28.98C157.865 29.624 159.107 29.946 160.487 29.946C161.867 29.946 163.094 29.624 164.167 28.98C165.271 28.3054 166.13 27.4007 166.743 26.266C167.387 25.1314 167.709 23.828 167.709 22.356C167.709 20.884 167.387 19.5807 166.743 18.446C166.13 17.2807 165.271 16.376 164.167 15.732C163.094 15.088 161.867 14.766 160.487 14.766C159.107 14.766 157.865 15.088 156.761 15.732C155.688 16.376 154.829 17.2807 154.185 18.446C153.572 19.5807 153.265 20.884 153.265 22.356ZM178.661 23.506V20.056H194.301V23.506H178.661ZM191.909 11.776H195.589V32.936H191.909V11.776ZM176.499 11.776H180.179V32.936H176.499V11.776ZM220.219 15.456L202.739 34.546L202.969 29.256L220.449 10.166L220.219 15.456ZM206.419 11.776V29.486L202.739 34.546V11.776H206.419ZM220.449 10.166V32.936H216.769V15.226L220.449 10.166ZM225.735 22.356C225.735 20.2094 226.211 18.308 227.161 16.652C228.143 14.996 229.461 13.6927 231.117 12.742C232.773 11.7914 234.629 11.316 236.683 11.316C238.769 11.316 240.624 11.7914 242.249 12.742C243.905 13.6927 245.209 14.996 246.159 16.652C247.141 18.308 247.631 20.2094 247.631 22.356C247.631 24.472 247.141 26.3734 246.159 28.06C245.209 29.716 243.905 31.0194 242.249 31.97C240.624 32.9207 238.769 33.396 236.683 33.396C234.629 33.396 232.773 32.9207 231.117 31.97C229.461 31.0194 228.143 29.716 227.161 28.06C226.211 26.3734 225.735 24.472 225.735 22.356ZM229.461 22.356C229.461 23.828 229.768 25.1314 230.381 26.266C231.025 27.4007 231.884 28.3054 232.957 28.98C234.061 29.624 235.303 29.946 236.683 29.946C238.063 29.946 239.29 29.624 240.363 28.98C241.467 28.3054 242.326 27.4007 242.939 26.266C243.583 25.1314 243.905 23.828 243.905 22.356C243.905 20.884 243.583 19.5807 242.939 18.446C242.326 17.2807 241.467 16.376 240.363 15.732C239.29 15.088 238.063 14.766 236.683 14.766C235.303 14.766 234.061 15.088 232.957 15.732C231.884 16.376 231.025 17.2807 230.381 18.446C229.768 19.5807 229.461 20.884 229.461 22.356ZM256.137 43.056H252.457V11.776H256.137V43.056ZM273.847 22.356C273.847 24.6254 273.371 26.588 272.421 28.244C271.47 29.9 270.197 31.1727 268.603 32.062C267.039 32.9514 265.291 33.396 263.359 33.396C261.611 33.396 260.062 32.9514 258.713 32.062C257.394 31.1727 256.351 29.9 255.585 28.244C254.849 26.588 254.481 24.6254 254.481 22.356C254.481 20.056 254.849 18.0934 255.585 16.468C256.351 14.812 257.394 13.5394 258.713 12.65C260.062 11.7607 261.611 11.316 263.359 11.316C265.291 11.316 267.039 11.7607 268.603 12.65C270.197 13.5394 271.47 14.812 272.421 16.468C273.371 18.0934 273.847 20.056 273.847 22.356ZM270.121 22.356C270.121 20.7307 269.783 19.3507 269.109 18.216C268.465 17.0814 267.591 16.2227 266.487 15.64C265.413 15.0574 264.217 14.766 262.899 14.766C261.825 14.766 260.767 15.0574 259.725 15.64C258.682 16.2227 257.823 17.0814 257.149 18.216C256.474 19.3507 256.137 20.7307 256.137 22.356C256.137 23.9814 256.474 25.3614 257.149 26.496C257.823 27.6307 258.682 28.4894 259.725 29.072C260.767 29.6547 261.825 29.946 262.899 29.946C264.217 29.946 265.413 29.6547 266.487 29.072C267.591 28.4894 268.465 27.6307 269.109 26.496C269.783 25.3614 270.121 23.9814 270.121 22.356Z" fill="#007367"/>
</svg>
